  0
SECTION
  2
HEADER
  9
$ACADVER
  1
AC1032
  9
$ACADMAINTVER
 90
       55
  9
$DWGCODEPAGE
  3
ANSI_1252
  9
$LASTSAVEDBY
  1
szymo
  9
$REQUIREDVERSIONS
160
                 0
  9
$INSBASE
 10
0.0
 20
0.0
 30
0.0
  9
$EXTMIN
 10
717.2948022877944
 20
92.18886928440406
 30
0.0
  9
$EXTMAX
 10
763.6447007030131
 20
140.6452710119331
 30
0.0
  9
$LIMMIN
 10
0.0
 20
0.0
  9
$LIMMAX
 10
12.0
 20
9.0
  9
$ORTHOMODE
 70
     0
  9
$REGENMODE
 70
     1
  9
$FILLMODE
 70
     1
  9
$QTEXTMODE
 70
     0
  9
$MIRRTEXT
 70
     1
  9
$LTSCALE
 40
1.0
  9
$ATTMODE
 70
     1
  9
$TEXTSIZE
 40
0.2
  9
$TRACEWID
 40
0.05
  9
$TEXTSTYLE
  7
Standard
  9
$CLAYER
  8
0
  9
$CELTYPE
  6
ByLayer
  9
$CECOLOR
 62
   256
  9
$CELTSCALE
 40
1.0
  9
$DISPSILH
 70
     0
  9
$DIMSCALE
 40
1.0
  9
$DIMASZ
 40
0.18
  9
$DIMEXO
 40
0.0625
  9
$DIMDLI
 40
0.38
  9
$DIMRND
 40
0.0
  9
$DIMDLE
 40
0.0
  9
$DIMEXE
 40
0.18
  9
$DIMTP
 40
0.0
  9
$DIMTM
 40
0.0
  9
$DIMTXT
 40
0.18
  9
$DIMCEN
 40
0.09
  9
$DIMTSZ
 40
0.0
  9
$DIMTOL
 70
     0
  9
$DIMLIM
 70
     0
  9
$DIMTIH
 70
     1
  9
$DIMTOH
 70
     1
  9
$DIMSE1
 70
     0
  9
$DIMSE2
 70
     0
  9
$DIMTAD
 70
     0
  9
$DIMZIN
 70
     0
  9
$DIMBLK
  1

  9
$DIMASO
 70
     1
  9
$DIMSHO
 70
     1
  9
$DIMPOST
  1

  9
$DIMAPOST
  1

  9
$DIMALT
 70
     0
  9
$DIMALTD
 70
     2
  9
$DIMALTF
 40
25.4
  9
$DIMLFAC
 40
1.0
  9
$DIMTOFL
 70
     0
  9
$DIMTVP
 40
0.0
  9
$DIMTIX
 70
     0
  9
$DIMSOXD
 70
     0
  9
$DIMSAH
 70
     0
  9
$DIMBLK1
  1

  9
$DIMBLK2
  1

  9
$DIMSTYLE
  2
STANDARD_ACAD
  9
$DIMCLRD
 70
     0
  9
$DIMCLRE
 70
     0
  9
$DIMCLRT
 70
     0
  9
$DIMTFAC
 40
1.0
  9
$DIMGAP
 40
0.09
  9
$DIMJUST
 70
     0
  9
$DIMSD1
 70
     0
  9
$DIMSD2
 70
     0
  9
$DIMTOLJ
 70
     1
  9
$DIMTZIN
 70
     0
  9
$DIMALTZ
 70
     0
  9
$DIMALTTZ
 70
     0
  9
$DIMUPT
 70
     0
  9
$DIMDEC
 70
     4
  9
$DIMTDEC
 70
     4
  9
$DIMALTU
 70
     2
  9
$DIMALTTD
 70
     2
  9
$DIMTXSTY
  7
Standard
  9
$DIMAUNIT
 70
     0
  9
$DIMADEC
 70
     0
  9
$DIMALTRND
 40
0.0
  9
$DIMAZIN
 70
     0
  9
$DIMDSEP
 70
    46
  9
$DIMATFIT
 70
     3
  9
$DIMFRAC
 70
     0
  9
$DIMLDRBLK
  1

  9
$DIMLUNIT
 70
     2
  9
$DIMLWD
 70
    -2
  9
$DIMLWE
 70
    -2
  9
$DIMTMOVE
 70
     2
  9
$DIMFXL
 40
1.0
  9
$DIMFXLON
 70
     0
  9
$DIMJOGANG
 40
0.7853981633974483
  9
$DIMTFILL
 70
     0
  9
$DIMTFILLCLR
 70
     0
  9
$DIMARCSYM
 70
     0
  9
$DIMLTYPE
  6

  9
$DIMLTEX1
  6

  9
$DIMLTEX2
  6

  9
$DIMTXTDIRECTION
 70
     0
  9
$LUNITS
 70
     2
  9
$LUPREC
 70
     3
  9
$SKETCHINC
 40
0.1
  9
$FILLETRAD
 40
0.0
  9
$AUNITS
 70
     0
  9
$AUPREC
 70
     0
  9
$MENU
  1
.
  9
$ELEVATION
 40
0.0
  9
$PELEVATION
 40
0.0
  9
$THICKNESS
 40
0.0
  9
$LIMCHECK
 70
     0
  9
$CHAMFERA
 40
0.0
  9
$CHAMFERB
 40
0.0
  9
$CHAMFERC
 40
0.0
  9
$CHAMFERD
 40
0.0
  9
$SKPOLY
 70
     0
  9
$TDCREATE
 40
2461082.90712485
  9
$TDUCREATE
 40
2461082.865458183
  9
$TDUPDATE
 40
2461082.90713985
  9
$TDUUPDATE
 40
2461082.865473183
  9
$TDINDWG
 40
0.0000000116
  9
$TDUSRTIMER
 40
0.0000000116
  9
$USRTIMER
 70
     1
  9
$ANGBASE
 50
0.0
  9
$ANGDIR
 70
     0
  9
$PDMODE
 70
     0
  9
$PDSIZE
 40
0.0
  9
$PLINEWID
 40
0.0
  9
$SPLFRAME
 70
     0
  9
$SPLINETYPE
 70
     6
  9
$SPLINESEGS
 70
     8
  9
$HANDSEED
  5
2CF
  9
$SURFTAB1
 70
     6
  9
$SURFTAB2
 70
     6
  9
$SURFTYPE
 70
     6
  9
$SURFU
 70
     6
  9
$SURFV
 70
     6
  9
$UCSBASE
  2

  9
$UCSNAME
  2

  9
$UCSORG
 10
0.0
 20
0.0
 30
0.0
  9
$UCSXDIR
 10
1.0
 20
0.0
 30
0.0
  9
$UCSYDIR
 10
0.0
 20
1.0
 30
0.0
  9
$UCSORTHOREF
  2

  9
$UCSORTHOVIEW
 70
     0
  9
$UCSORGTOP
 10
0.0
 20
0.0
 30
0.0
  9
$UCSORGBOTTOM
 10
0.0
 20
0.0
 30
0.0
  9
$UCSORGLEFT
 10
0.0
 20
0.0
 30
0.0
  9
$UCSORGRIGHT
 10
0.0
 20
0.0
 30
0.0
  9
$UCSORGFRONT
 10
0.0
 20
0.0
 30
0.0
  9
$UCSORGBACK
 10
0.0
 20
0.0
 30
0.0
  9
$PUCSBASE
  2

  9
$PUCSNAME
  2

  9
$PUCSORG
 10
0.0
 20
0.0
 30
0.0
  9
$PUCSXDIR
 10
1.0
 20
0.0
 30
0.0
  9
$PUCSYDIR
 10
0.0
 20
1.0
 30
0.0
  9
$PUCSORTHOREF
  2

  9
$PUCSORTHOVIEW
 70
     0
  9
$PUCSORGTOP
 10
0.0
 20
0.0
 30
0.0
  9
$PUCSORGBOTTOM
 10
0.0
 20
0.0
 30
0.0
  9
$PUCSORGLEFT
 10
0.0
 20
0.0
 30
0.0
  9
$PUCSORGRIGHT
 10
0.0
 20
0.0
 30
0.0
  9
$PUCSORGFRONT
 10
0.0
 20
0.0
 30
0.0
  9
$PUCSORGBACK
 10
0.0
 20
0.0
 30
0.0
  9
$USERI1
 70
     0
  9
$USERI2
 70
     0
  9
$USERI3
 70
     0
  9
$USERI4
 70
     0
  9
$USERI5
 70
     0
  9
$USERR1
 40
0.0
  9
$USERR2
 40
0.0
  9
$USERR3
 40
0.0
  9
$USERR4
 40
0.0
  9
$USERR5
 40
0.0
  9
$WORLDVIEW
 70
     1
  9
$SHADEDGE
 70
     3
  9
$SHADEDIF
 70
    70
  9
$TILEMODE
 70
     1
  9
$MAXACTVP
 70
    64
  9
$PINSBASE
 10
0.0
 20
0.0
 30
0.0
  9
$PLIMCHECK
 70
     0
  9
$PEXTMIN
 10
1.000000000000000E+20
 20
1.000000000000000E+20
 30
1.000000000000000E+20
  9
$PEXTMAX
 10
-1.000000000000000E+20
 20
-1.000000000000000E+20
 30
-1.000000000000000E+20
  9
$PLIMMIN
 10
0.0
 20
0.0
  9
$PLIMMAX
 10
12.0
 20
9.0
  9
$UNITMODE
 70
     0
  9
$VISRETAIN
 70
     1
  9
$PLINEGEN
 70
     0
  9
$PSLTSCALE
 70
     1
  9
$TREEDEPTH
 70
  3020
  9
$CMLSTYLE
  2
Standard
  9
$CMLJUST
 70
     0
  9
$CMLSCALE
 40
1.0
  9
$PROXYGRAPHICS
 70
     1
  9
$MEASUREMENT
 70
     1
  9
$CELWEIGHT
370
    -1
  9
$ENDCAPS
280
     0
  9
$JOINSTYLE
280
     0
  9
$LWDISPLAY
290
     0
  9
$INSUNITS
 70
     4
  9
$HYPERLINKBASE
  1

  9
$STYLESHEET
  1

  9
$XEDIT
290
     1
  9
$CEPSNTYPE
380
     0
  9
$PSTYLEMODE
290
     1
  9
$FINGERPRINTGUID
  2
{99cf19e4-b138-4139-850f-ae167cb9854f}
  9
$VERSIONGUID
  2
{FAEB1C32-E019-11D5-929B-00C0DF256EC4}
  9
$EXTNAMES
290
     1
  9
$PSVPSCALE
 40
0.0
  9
$OLESTARTUP
290
     0
  9
$SORTENTS
280
   127
  9
$INDEXCTL
280
     0
  9
$HIDETEXT
280
     1
  9
$XCLIPFRAME
280
     2
  9
$HALOGAP
280
     0
  9
$OBSCOLOR
 70
   257
  9
$OBSLTYPE
280
     0
  9
$INTERSECTIONDISPLAY
280
     0
  9
$INTERSECTIONCOLOR
 70
   257
  9
$DIMASSOC
280
     2
  9
$PROJECTNAME
  1

  9
$CAMERADISPLAY
290
     0
  9
$LENSLENGTH
 40
50.0
  9
$CAMERAHEIGHT
 40
0.0
  9
$STEPSPERSEC
 40
2.0
  9
$STEPSIZE
 40
6.0
  9
$3DDWFPREC
 40
2.0
  9
$PSOLWIDTH
 40
0.25
  9
$PSOLHEIGHT
 40
4.0
  9
$LOFTANG1
 40
1.570796326794897
  9
$LOFTANG2
 40
1.570796326794897
  9
$LOFTMAG1
 40
0.0
  9
$LOFTMAG2
 40
0.0
  9
$LOFTPARAM
 70
     7
  9
$LOFTNORMALS
280
     1
  9
$LATITUDE
 40
37.795
  9
$LONGITUDE
 40
-122.394
  9
$NORTHDIRECTION
 40
0.0
  9
$TIMEZONE
 70
 -8000
  9
$LIGHTGLYPHDISPLAY
280
     1
  9
$TILEMODELIGHTSYNCH
280
     1
  9
$CMATERIAL
347
44
  9
$SOLIDHIST
280
     0
  9
$SHOWHIST
280
     1
  9
$DWFFRAME
280
     2
  9
$DGNFRAME
280
     2
  9
$REALWORLDSCALE
290
     1
  9
$INTERFERECOLOR
 62
   256
  9
$CSHADOW
280
     0
  9
$SHADOWPLANELOCATION
 40
0.0
  0
ENDSEC
  0
SECTION
  2
CLASSES
  0
CLASS
  1
ACDBDICTIONARYWDFLT
  2
AcDbDictionaryWithDefault
  3
ObjectDBX Classes
 90
        0
 91
        3
280
     0
281
     0
  0
CLASS
  1
VISUALSTYLE
  2
AcDbVisualStyle
  3
ObjectDBX Classes
 90
     4095
 91
        3
280
     0
281
     0
  0
CLASS
  1
MATERIAL
  2
AcDbMaterial
  3
ObjectDBX Classes
 90
     1153
 91
        3
280
     0
281
     0
  0
CLASS
  1
SCALE
  2
AcDbScale
  3
ObjectDBX Classes
 90
     1153
 91
        3
280
     0
281
     0
  0
CLASS
  1
TABLESTYLE
  2
AcDbTableStyle
  3
ObjectDBX Classes
 90
     4095
 91
        3
280
     0
281
     0
  0
CLASS
  1
MLEADERSTYLE
  2
AcDbMLeaderStyle
  3
ACDB_MLEADERSTYLE_CLASS
 90
     4095
 91
        3
280
     0
281
     0
  0
CLASS
  1
SUN
  2
AcDbSun
  3
SCENEOE
 90
     1153
 91
        3
280
     0
281
     0
  0
CLASS
  1
DICTIONARYVAR
  2
AcDbDictionaryVar
  3
ObjectDBX Classes
 90
        0
 91
        3
280
     0
281
     0
  0
CLASS
  1
CELLSTYLEMAP
  2
AcDbCellStyleMap
  3
ObjectDBX Classes
 90
     1152
 91
        3
280
     0
281
     0
  0
ENDSEC
  0
SECTION
  2
TABLES
  0
TABLE
  2
VPORT
  5
8
330
0
100
AcDbSymbolTable
 70
     1
  0
VPORT
  5
29
330
8
100
AcDbSymbolTableRecord
100
AcDbViewportTableRecord
  2
*Active
 70
     0
 10
0.0
 20
0.0
 11
1.0
 21
1.0
 12
10.42990654205607
 22
4.5
 13
0.0
 23
0.0
 14
0.5
 24
0.5
 15
0.5
 25
0.5
 16
0.0
 26
0.0
 36
1.0
 17
0.0
 27
0.0
 37
0.0
 40
9.0
 41
1.972972972850329
 42
50.0
 43
0.0
 44
0.0
 50
0.0
 51
0.0
 71
     0
 72
   100
 73
     1
 74
     3
 75
     0
 76
     0
 77
     0
 78
     0
281
     0
 65
     1
110
0.0
120
0.0
130
0.0
111
1.0
121
0.0
131
0.0
112
0.0
122
1.0
132
0.0
 79
     0
146
0.0
348
2F
 60
     3
 61
     5
292
     1
282
     1
141
0.0
142
0.0
 63
   250
361
5D
  0
ENDTAB
  0
TABLE
  2
LTYPE
  5
5
330
0
100
AcDbSymbolTable
 70
     1
  0
LTYPE
  5
14
330
5
100
AcDbSymbolTableRecord
100
AcDbLinetypeTableRecord
  2
ByBlock
 70
     0
  3

 72
    65
 73
     0
 40
0.0
  0
LTYPE
  5
15
330
5
100
AcDbSymbolTableRecord
100
AcDbLinetypeTableRecord
  2
ByLayer
 70
     0
  3

 72
    65
 73
     0
 40
0.0
  0
LTYPE
  5
16
330
5
100
AcDbSymbolTableRecord
100
AcDbLinetypeTableRecord
  2
Continuous
 70
     0
  3
Solid line
 72
    65
 73
     0
 40
0.0
  0
ENDTAB
  0
TABLE
  2
LAYER
  5
2
330
0
100
AcDbSymbolTable
 70
     4
  0
LAYER
  5
10
330
2
100
AcDbSymbolTableRecord
100
AcDbLayerTableRecord
  2
0
 70
     0
 62
     7
  6
Continuous
370
    -3
390
F
347
46
348
0
  0
LAYER
  5
5F
330
2
100
AcDbSymbolTableRecord
100
AcDbLayerTableRecord
  2
DXF_SILKSCREEN_BOTTOM
 70
     0
 62
    30
  6
Continuous
370
    -3
390
F
347
46
348
0
  0
LAYER
  5
64
330
2
100
AcDbSymbolTableRecord
100
AcDbLayerTableRecord
  2
DXF_SILKSCREEN_TOP
 70
     0
 62
     2
  6
Continuous
370
    -3
390
F
347
46
348
0
  0
LAYER
  5
12E
330
2
100
AcDbSymbolTableRecord
100
AcDbLayerTableRecord
  2
DXF_1_BOARD
 70
     0
 62
     6
  6
Continuous
370
     0
390
F
347
46
348
0
  0
ENDTAB
  0
TABLE
  2
STYLE
  5
3
330
0
100
AcDbSymbolTable
 70
     3
  0
STYLE
  5
11
330
3
100
AcDbSymbolTableRecord
100
AcDbTextStyleTableRecord
  2
Standard
 70
     0
 40
0.0
 41
1.0
 50
0.0
 71
     0
 42
0.2
  3
txt
  4

  0
STYLE
  5
60
330
3
100
AcDbSymbolTableRecord
100
AcDbTextStyleTableRecord
  2
Default
 70
     0
 40
0.0
 41
1.0
 50
0.0
 71
     0
 42
0.2
  3

  4

1001
ACAD
1000
ISOCPEUR
1071
      256
  0
STYLE
  5
73
330
3
100
AcDbSymbolTableRecord
100
AcDbTextStyleTableRecord
  2
SimSun Regular
 70
     0
 40
0.0
 41
1.0
 50
0.0
 71
     0
 42
0.2
  3

  4

1001
ACAD
1000
ISOCPEUR
1071
      256
  0
ENDTAB
  0
TABLE
  2
VIEW
  5
6
330
0
100
AcDbSymbolTable
 70
     0
  0
ENDTAB
  0
TABLE
  2
UCS
  5
7
330
0
100
AcDbSymbolTable
 70
     0
  0
ENDTAB
  0
TABLE
  2
APPID
  5
9
330
0
100
AcDbSymbolTable
 70
     2
  0
APPID
  5
12
330
9
100
AcDbSymbolTableRecord
100
AcDbRegAppTableRecord
  2
ACAD
 70
     0
  0
APPID
  5
5E
330
9
100
AcDbSymbolTableRecord
100
AcDbRegAppTableRecord
  2
Rhino
 70
     0
  0
ENDTAB
  0
TABLE
  2
DIMSTYLE
  5
A
330
0
100
AcDbSymbolTable
 70
     1
100
AcDbDimStyleTable
  0
DIMSTYLE
105
27
330
A
100
AcDbSymbolTableRecord
100
AcDbDimStyleTableRecord
  2
STANDARD_ACAD
 70
     0
178
     0
340
11
  0
ENDTAB
  0
TABLE
  2
BLOCK_RECORD
  5
1
330
0
100
AcDbSymbolTable
 70
     1
  0
BLOCK_RECORD
  5
1F
330
1
100
AcDbSymbolTableRecord
100
AcDbBlockTableRecord
  2
*Model_Space
340
22
 70
     0
280
     1
281
     0
  0
BLOCK_RECORD
  5
1B
330
1
100
AcDbSymbolTableRecord
100
AcDbBlockTableRecord
  2
*Paper_Space
340
1E
 70
     0
280
     1
281
     0
  0
BLOCK_RECORD
  5
23
330
1
100
AcDbSymbolTableRecord
100
AcDbBlockTableRecord
  2
*Paper_Space0
340
26
 70
     0
280
     1
281
     0
  0
ENDTAB
  0
ENDSEC
  0
SECTION
  2
BLOCKS
  0
BLOCK
  5
20
330
1F
100
AcDbEntity
  8
0
100
AcDbBlockBegin
  2
*Model_Space
 70
     0
 10
0.0
 20
0.0
 30
0.0
  3
*Model_Space
  1

  0
ENDBLK
  5
21
330
1F
100
AcDbEntity
  8
0
100
AcDbBlockEnd
  0
BLOCK
  5
1C
330
1B
100
AcDbEntity
 67
     1
  8
0
100
AcDbBlockBegin
  2
*Paper_Space
 70
     0
 10
0.0
 20
0.0
 30
0.0
  3
*Paper_Space
  1

  0
ENDBLK
  5
1D
330
1B
100
AcDbEntity
 67
     1
  8
0
100
AcDbBlockEnd
  0
BLOCK
  5
24
330
23
100
AcDbEntity
  8
0
100
AcDbBlockBegin
  2
*Paper_Space0
 70
     0
 10
0.0
 20
0.0
 30
0.0
  3
*Paper_Space0
  1

  0
ENDBLK
  5
25
330
23
100
AcDbEntity
  8
0
100
AcDbBlockEnd
  0
ENDSEC
  0
SECTION
  2
ENTITIES
  0
MTEXT
  5
61
330
1F
100
AcDbEntity
  8
DXF_SILKSCREEN_BOTTOM
100
AcDbMText
 10
747.7502482206003
 20
133.971296426943
 30
0.0
 40
0.6710810285563243
 41
15.89445248241282
 46
2.415891702802768
 71
     1
 72
     1
  1
{\fISOCPEUR;2-64 110a2033630 }\P{\fISOCPEUR;M-circuit board}\P{\fISOCPEUR;FUJICA2026}\P
  7
Default
 73
     1
 44
1.0
  0
CIRCLE
  5
62
330
1F
100
AcDbEntity
  8
DXF_SILKSCREEN_BOTTOM
100
AcDbCircle
 10
-733.3506612151402
 20
125.004278081884
 30
0.0
 40
1.612623309487122
210
0.0
220
0.0
230
-1.0
  0
CIRCLE
  5
63
330
1F
100
AcDbEntity
  8
DXF_SILKSCREEN_BOTTOM
100
AcDbCircle
 10
-733.3506612151406
 20
136.2855232671595
 30
0.0
 40
1.564243925955968
210
0.0
220
0.0
230
-1.0
  0
CIRCLE
  5
65
330
1F
100
AcDbEntity
  8
DXF_SILKSCREEN_TOP
100
AcDbCircle
 10
-733.2476865344033
 20
99.31613939931901
 30
0.0
 40
1.612623309487077
210
0.0
220
0.0
230
-1.0
  0
CIRCLE
  5
66
330
1F
100
AcDbEntity
  8
DXF_SILKSCREEN_TOP
100
AcDbCircle
 10
-733.2476865344032
 20
110.5973845845948
 30
0.0
 40
1.564243925956232
210
0.0
220
0.0
230
-1.0
  0
POLYLINE
  5
67
330
1F
100
AcDbEntity
  8
DXF_SILKSCREEN_BOTTOM
100
AcDb2dPolyline
 66
     1
 10
0.0
 20
0.0
 30
0.0
 70
     1
  0
VERTEX
  5
68
330
67
100
AcDbEntity
  8
DXF_SILKSCREEN_BOTTOM
100
AcDbVertex
100
AcDb2dVertex
 10
762.634945560568
 20
134.6320443332012
 30
0.0
  0
VERTEX
  5
69
330
67
100
AcDbEntity
  8
DXF_SILKSCREEN_BOTTOM
100
AcDbVertex
100
AcDb2dVertex
 10
751.7654628593833
 20
140.3777202393995
 30
0.0
 42
0.1221698808957498
  0
VERTEX
  5
6A
330
67
100
AcDbEntity
  8
DXF_SILKSCREEN_BOTTOM
100
AcDbVertex
100
AcDb2dVertex
 10
751.6425887574247
 20
140.4081981658786
 30
0.0
  0
VERTEX
  5
6B
330
67
100
AcDbEntity
  8
DXF_SILKSCREEN_BOTTOM
100
AcDbVertex
100
AcDb2dVertex
 10
717.8977769685316
 20
140.4081981658786
 30
0.0
 42
0.4142135623731621
  0
VERTEX
  5
6C
330
67
100
AcDbEntity
  8
DXF_SILKSCREEN_BOTTOM
100
AcDbVertex
100
AcDb2dVertex
 10
717.6348498145862
 20
140.1452710119332
 30
0.0
  0
VERTEX
  5
6D
330
67
100
AcDbEntity
  8
DXF_SILKSCREEN_BOTTOM
100
AcDbVertex
100
AcDb2dVertex
 10
717.6348498145862
 20
118.377007966969
 30
0.0
 42
0.4142135623730124
  0
VERTEX
  5
6E
330
67
100
AcDbEntity
  8
DXF_SILKSCREEN_BOTTOM
100
AcDbVertex
100
AcDb2dVertex
 10
717.8977769685316
 20
118.1140808130237
 30
0.0
  0
VERTEX
  5
6F
330
67
100
AcDbEntity
  8
DXF_SILKSCREEN_BOTTOM
100
AcDbVertex
100
AcDb2dVertex
 10
759.2801642544331
 20
118.1140808130237
 30
0.0
 42
0.4142135623731331
  0
VERTEX
  5
70
330
67
100
AcDbEntity
  8
DXF_SILKSCREEN_BOTTOM
100
AcDbVertex
100
AcDb2dVertex
 10
762.7749986125544
 20
121.6089151711451
 30
0.0
  0
VERTEX
  5
71
330
67
100
AcDbEntity
  8
DXF_SILKSCREEN_BOTTOM
100
AcDbVertex
100
AcDb2dVertex
 10
762.7749986125544
 20
134.3995951057351
 30
0.0
 42
0.2779768250330179
  0
SEQEND
  5
72
330
67
100
AcDbEntity
  8
DXF_SILKSCREEN_BOTTOM
  0
MTEXT
  5
74
330
1F
100
AcDbEntity
  8
DXF_SILKSCREEN_BOTTOM
100
AcDbMText
 10
718.5718168841345
 20
132.500627786973
 30
0.0
 40
0.15
 41
1.381818181818182
 46
0.06
 71
     7
 72
     1
  1
WHITE
  7
SimSun Regular
 73
     1
 44
1.0
  0
MTEXT
  5
75
330
1F
100
AcDbEntity
  8
DXF_SILKSCREEN_BOTTOM
100
AcDbMText
 10
718.6768168841345
 20
133.9603249833053
 30
0.0
 40
0.15
 41
0.9618181818181819
 46
0.06
 71
     7
 72
     1
  1
RED
  7
SimSun Regular
 73
     1
 44
1.0
  0
MTEXT
  5
76
330
1F
100
AcDbEntity
  8
DXF_SILKSCREEN_BOTTOM
100
AcDbMText
 10
718.6095441568618
 20
135.3319879748751
 30
0.0
 40
0.15
 41
1.230909090909091
 46
0.06
 71
     7
 72
     1
  1
GREY
  7
SimSun Regular
 73
     1
 44
1.0
  0
MTEXT
  5
77
330
1F
100
AcDbEntity
  8
DXF_SILKSCREEN_BOTTOM
100
AcDbMText
 10
718.4683795395495
 20
125.7561766774496
 30
0.0
 40
0.15
 41
1.743636363636364
 46
0.06
 71
     7
 72
     1
  1
YELLOW
  7
SimSun Regular
 73
     1
 44
1.0
  0
MTEXT
  5
78
330
1F
100
AcDbEntity
  8
DXF_SILKSCREEN_BOTTOM
100
AcDbMText
 10
718.642347023034
 20
124.2719614384691
 30
0.0
 40
0.15
 41
0.9618181818181819
 46
0.06
 71
     7
 72
     1
  1
RED
  7
SimSun Regular
 73
     1
 44
1.0
  0
MTEXT
  5
79
330
1F
100
AcDbEntity
  8
DXF_SILKSCREEN_BOTTOM
100
AcDbMText
 10
718.5833283332977
 20
122.8253578985664
 30
0.0
 40
0.15
 41
1.170909090909091
 46
0.06
 71
     7
 72
     1
  1
BLUE
  7
SimSun Regular
 73
     1
 44
1.0
  0
MTEXT
  5
7A
330
1F
100
AcDbEntity
  8
DXF_SILKSCREEN_BOTTOM
100
AcDbMText
 10
718.4663754707151
 20
121.346374248212
 30
0.0
 40
0.15
 41
1.710909090909091
 46
0.06
 71
     7
 72
     1
  1
ORANGE
  7
SimSun Regular
 73
     1
 44
1.0
  0
MTEXT
  5
7B
330
1F
100
AcDbEntity
  8
DXF_SILKSCREEN_BOTTOM
100
AcDbMText
 10
718.4723876772189
 20
119.9011633380387
 30
0.0
 40
0.15
 41
1.710909090909091
 46
0.06
 71
     7
 72
     1
  1
ORANGE
  7
SimSun Regular
 73
     1
 44
1.0
  0
SPLINE
  5
7C
330
1F
100
AcDbEntity
  8
DXF_SILKSCREEN_BOTTOM
100
AcDbSpline
210
0.0
220
0.0
230
1.0
 70
     8
 71
     1
 72
     5
 73
     3
 74
     0
 42
0.0000000001
 43
0.0000000001
 40
0.0
 40
0.0
 40
1.19570102508635
 40
1.538082276402577
 40
1.538082276402577
 10
722.9006675874786
 20
118.517358318286
 30
0.0
 10
721.7049665623922
 20
118.517358318286
 30
0.0
 10
721.7049665623922
 20
118.8597395696023
 30
0.0
  0
MTEXT
  5
7D
330
1F
100
AcDbEntity
  8
DXF_SILKSCREEN_BOTTOM
100
AcDbMText
 10
721.177084259258
 20
135.0718747612387
 30
0.0
 40
0.420280199021253
 41
3.280732705087114
 46
0.9679180341095521
 71
     1
 72
     1
  1
\P{\fISOCPEUR;β Mg}\P
  7
Default
 73
     1
 44
1.0
  0
MTEXT
  5
7E
330
1F
100
AcDbEntity
  8
DXF_SILKSCREEN_BOTTOM
100
AcDbMText
 10
721.2082172721887
 20
133.0165741547474
 30
0.0
 40
0.420280199021253
 41
3.321487148628569
 46
0.2954697156755475
 71
     1
 72
     1
  1
α Mg
  7
Default
 73
     1
 44
1.0
  0
POLYLINE
  5
7F
102
{ACAD_REACTORS
330
2A1
102
}
330
1F
100
AcDbEntity
  8
DXF_SILKSCREEN_BOTTOM
100
AcDb2dPolyline
 66
     1
 10
0.0
 20
0.0
 30
0.0
 70
     1
  0
VERTEX
  5
80
330
7F
100
AcDbEntity
  8
DXF_SILKSCREEN_BOTTOM
100
AcDbVertex
100
AcDb2dVertex
 10
719.9251267429195
 20
131.9676058825239
 30
0.0
 42
0.5393650877868162
  0
VERTEX
  5
81
330
7F
100
AcDbEntity
  8
DXF_SILKSCREEN_BOTTOM
100
AcDbVertex
100
AcDb2dVertex
 10
719.5916091657314
 20
131.967605882524
 30
0.0
 42
0.5393650877867394
  0
SEQEND
  5
82
330
7F
100
AcDbEntity
  8
DXF_SILKSCREEN_BOTTOM
  0
POLYLINE
  5
83
102
{ACAD_REACTORS
330
2A1
102
}
330
1F
100
AcDbEntity
  8
DXF_SILKSCREEN_BOTTOM
100
AcDb2dPolyline
 66
     1
 10
0.0
 20
0.0
 30
0.0
 70
     1
  0
VERTEX
  5
84
330
83
100
AcDbEntity
  8
DXF_SILKSCREEN_BOTTOM
100
AcDbVertex
100
AcDb2dVertex
 10
719.930517771398
 20
133.3807284297705
 30
0.0
 42
0.5393650877868162
  0
VERTEX
  5
85
330
83
100
AcDbEntity
  8
DXF_SILKSCREEN_BOTTOM
100
AcDbVertex
100
AcDb2dVertex
 10
719.5970001942098
 20
133.3807284297705
 30
0.0
 42
0.5393650877868162
  0
SEQEND
  5
86
330
83
100
AcDbEntity
  8
DXF_SILKSCREEN_BOTTOM
  0
POLYLINE
  5
87
102
{ACAD_REACTORS
330
2A1
102
}
330
1F
100
AcDbEntity
  8
DXF_SILKSCREEN_BOTTOM
100
AcDb2dPolyline
 66
     1
 10
0.0
 20
0.0
 30
0.0
  0
VERTEX
  5
88
330
87
100
AcDbEntity
  8
DXF_SILKSCREEN_BOTTOM
100
AcDbVertex
100
AcDb2dVertex
 10
719.9251267429195
 20
131.967605882524
 30
0.0
  0
VERTEX
  5
89
330
87
100
AcDbEntity
  8
DXF_SILKSCREEN_BOTTOM
100
AcDbVertex
100
AcDb2dVertex
 10
720.6847073758884
 20
131.9676679779124
 30
0.0
 42
0.5868955851896834
  0
VERTEX
  5
8A
330
87
100
AcDbEntity
  8
DXF_SILKSCREEN_BOTTOM
100
AcDbVertex
100
AcDb2dVertex
 10
720.8921484099484
 20
132.3197926260405
 30
0.0
 42
0.5393650877866907
  0
VERTEX
  5
8B
330
87
100
AcDbEntity
  8
DXF_SILKSCREEN_BOTTOM
100
AcDbVertex
100
AcDb2dVertex
 10
720.5586308327602
 20
132.3197926260404
 30
0.0
 42
0.5393650877867394
  0
VERTEX
  5
8C
330
87
100
AcDbEntity
  8
DXF_SILKSCREEN_BOTTOM
100
AcDbVertex
100
AcDb2dVertex
 10
720.8921484099483
 20
132.3197926260405
 30
0.0
 42
0.270889179000477
  0
VERTEX
  5
8D
330
87
100
AcDbEntity
  8
DXF_SILKSCREEN_BOTTOM
100
AcDbVertex
100
AcDb2dVertex
 10
720.8921484099484
 20
132.5560630112412
 30
0.0
 42
0.5393650877868058
  0
VERTEX
  5
8E
330
87
100
AcDbEntity
  8
DXF_SILKSCREEN_BOTTOM
100
AcDbVertex
100
AcDb2dVertex
 10
720.5586308327602
 20
132.5560630112411
 30
0.0
 42
0.5393650877868162
  0
VERTEX
  5
8F
330
87
100
AcDbEntity
  8
DXF_SILKSCREEN_BOTTOM
100
AcDbVertex
100
AcDb2dVertex
 10
720.8921484099483
 20
132.5560630112411
 30
0.0
 42
0.2708891790005479
  0
VERTEX
  5
90
330
87
100
AcDbEntity
  8
DXF_SILKSCREEN_BOTTOM
100
AcDbVertex
100
AcDb2dVertex
 10
720.8921484099485
 20
132.7923333964418
 30
0.0
 42
0.5393650877867049
  0
VERTEX
  5
91
330
87
100
AcDbEntity
  8
DXF_SILKSCREEN_BOTTOM
100
AcDbVertex
100
AcDb2dVertex
 10
720.5586308327602
 20
132.7923333964418
 30
0.0
 42
0.5393650877868162
  0
VERTEX
  5
92
330
87
100
AcDbEntity
  8
DXF_SILKSCREEN_BOTTOM
100
AcDbVertex
100
AcDb2dVertex
 10
720.8921484099483
 20
132.7923333964418
 30
0.0
 42
0.270889179000496
  0
VERTEX
  5
93
330
87
100
AcDbEntity
  8
DXF_SILKSCREEN_BOTTOM
100
AcDbVertex
100
AcDb2dVertex
 10
720.8921484099485
 20
133.0286037816424
 30
0.0
 42
0.5393650877867049
  0
VERTEX
  5
94
330
87
100
AcDbEntity
  8
DXF_SILKSCREEN_BOTTOM
100
AcDbVertex
100
AcDb2dVertex
 10
720.5586308327602
 20
133.0286037816424
 30
0.0
 42
0.5393650877867394
  0
VERTEX
  5
95
330
87
100
AcDbEntity
  8
DXF_SILKSCREEN_BOTTOM
100
AcDbVertex
100
AcDb2dVertex
 10
720.8921484099482
 20
133.0286037816425
 30
0.0
 42
0.5868955851899688
  0
VERTEX
  5
96
330
87
100
AcDbEntity
  8
DXF_SILKSCREEN_BOTTOM
100
AcDbVertex
100
AcDb2dVertex
 10
720.6847073758884
 20
133.3807284297704
 30
0.0
  0
VERTEX
  5
97
330
87
100
AcDbEntity
  8
DXF_SILKSCREEN_BOTTOM
100
AcDbVertex
100
AcDb2dVertex
 10
719.930517771398
 20
133.3807284297704
 30
0.0
  0
SEQEND
  5
98
330
87
100
AcDbEntity
  8
DXF_SILKSCREEN_BOTTOM
  0
POLYLINE
  5
99
102
{ACAD_REACTORS
330
2A2
102
}
330
1F
100
AcDbEntity
  8
DXF_SILKSCREEN_BOTTOM
100
AcDb2dPolyline
 66
     1
 10
0.0
 20
0.0
 30
0.0
  0
VERTEX
  5
9A
330
99
100
AcDbEntity
  8
DXF_SILKSCREEN_BOTTOM
100
AcDbVertex
100
AcDb2dVertex
 10
719.9251267429195
 20
133.3858383908084
 30
0.0
  0
VERTEX
  5
9B
330
99
100
AcDbEntity
  8
DXF_SILKSCREEN_BOTTOM
100
AcDbVertex
100
AcDb2dVertex
 10
720.6847073758884
 20
133.3859004861968
 30
0.0
 42
0.5868955851896873
  0
VERTEX
  5
9C
330
99
100
AcDbEntity
  8
DXF_SILKSCREEN_BOTTOM
100
AcDbVertex
100
AcDb2dVertex
 10
720.8921484099485
 20
133.7380251343248
 30
0.0
 42
0.5393650877867049
  0
VERTEX
  5
9D
330
99
100
AcDbEntity
  8
DXF_SILKSCREEN_BOTTOM
100
AcDbVertex
100
AcDb2dVertex
 10
720.5586308327602
 20
133.7380251343248
 30
0.0
 42
0.5393650877868162
  0
VERTEX
  5
9E
330
99
100
AcDbEntity
  8
DXF_SILKSCREEN_BOTTOM
100
AcDbVertex
100
AcDb2dVertex
 10
720.8921484099483
 20
133.7380251343248
 30
0.0
 42
0.2708891790005758
  0
VERTEX
  5
9F
330
99
100
AcDbEntity
  8
DXF_SILKSCREEN_BOTTOM
100
AcDbVertex
100
AcDb2dVertex
 10
720.8921484099486
 20
133.9742955195254
 30
0.0
 42
0.539365087787105
  0
VERTEX
  5
A0
330
99
100
AcDbEntity
  8
DXF_SILKSCREEN_BOTTOM
100
AcDbVertex
100
AcDb2dVertex
 10
720.5586308327602
 20
133.9742955195255
 30
0.0
 42
0.5393650877867394
  0
VERTEX
  5
A1
330
99
100
AcDbEntity
  8
DXF_SILKSCREEN_BOTTOM
100
AcDbVertex
100
AcDb2dVertex
 10
720.8921484099483
 20
133.9742955195255
 30
0.0
 42
0.2708891790005151
  0
VERTEX
  5
A2
330
99
100
AcDbEntity
  8
DXF_SILKSCREEN_BOTTOM
100
AcDbVertex
100
AcDb2dVertex
 10
720.8921484099486
 20
134.210565904726
 30
0.0
 42
0.5393650877870121
  0
VERTEX
  5
A3
330
99
100
AcDbEntity
  8
DXF_SILKSCREEN_BOTTOM
100
AcDbVertex
100
AcDb2dVertex
 10
720.5586308327602
 20
134.2105659047261
 30
0.0
 42
0.5393650877867394
  0
VERTEX
  5
A4
330
99
100
AcDbEntity
  8
DXF_SILKSCREEN_BOTTOM
100
AcDbVertex
100
AcDb2dVertex
 10
720.8921484099483
 20
134.2105659047262
 30
0.0
 42
0.2708891790005151
  0
VERTEX
  5
A5
330
99
100
AcDbEntity
  8
DXF_SILKSCREEN_BOTTOM
100
AcDbVertex
100
AcDb2dVertex
 10
720.8921484099485
 20
134.4468362899267
 30
0.0
 42
0.5393650877867049
  0
VERTEX
  5
A6
330
99
100
AcDbEntity
  8
DXF_SILKSCREEN_BOTTOM
100
AcDbVertex
100
AcDb2dVertex
 10
720.5586308327602
 20
134.4468362899267
 30
0.0
 42
0.5393650877867394
  0
VERTEX
  5
A7
330
99
100
AcDbEntity
  8
DXF_SILKSCREEN_BOTTOM
100
AcDbVertex
100
AcDb2dVertex
 10
720.8921484099483
 20
134.4468362899268
 30
0.0
 42
0.5868955851896593
  0
VERTEX
  5
A8
330
99
100
AcDbEntity
  8
DXF_SILKSCREEN_BOTTOM
100
AcDbVertex
100
AcDb2dVertex
 10
720.6847073758884
 20
134.7989609380548
 30
0.0
  0
VERTEX
  5
A9
330
99
100
AcDbEntity
  8
DXF_SILKSCREEN_BOTTOM
100
AcDbVertex
100
AcDb2dVertex
 10
719.930517771398
 20
134.7989609380548
 30
0.0
  0
SEQEND
  5
AA
330
99
100
AcDbEntity
  8
DXF_SILKSCREEN_BOTTOM
  0
POLYLINE
  5
AB
102
{ACAD_REACTORS
330
2A2
102
}
330
1F
100
AcDbEntity
  8
DXF_SILKSCREEN_BOTTOM
100
AcDb2dPolyline
 66
     1
 10
0.0
 20
0.0
 30
0.0
 70
     1
  0
VERTEX
  5
AC
330
AB
100
AcDbEntity
  8
DXF_SILKSCREEN_BOTTOM
100
AcDbVertex
100
AcDb2dVertex
 10
719.930517771398
 20
134.7989609380549
 30
0.0
 42
0.5393650877868162
  0
VERTEX
  5
AD
330
AB
100
AcDbEntity
  8
DXF_SILKSCREEN_BOTTOM
100
AcDbVertex
100
AcDb2dVertex
 10
719.5970001942098
 20
134.7989609380549
 30
0.0
 42
0.5393650877868162
  0
SEQEND
  5
AE
330
AB
100
AcDbEntity
  8
DXF_SILKSCREEN_BOTTOM
  0
POLYLINE
  5
AF
102
{ACAD_REACTORS
330
2A2
102
}
330
1F
100
AcDbEntity
  8
DXF_SILKSCREEN_BOTTOM
100
AcDb2dPolyline
 66
     1
 10
0.0
 20
0.0
 30
0.0
 70
     1
  0
VERTEX
  5
B0
330
AF
100
AcDbEntity
  8
DXF_SILKSCREEN_BOTTOM
100
AcDbVertex
100
AcDb2dVertex
 10
719.9251267429195
 20
133.3858383908083
 30
0.0
 42
0.5393650877868162
  0
VERTEX
  5
B1
330
AF
100
AcDbEntity
  8
DXF_SILKSCREEN_BOTTOM
100
AcDbVertex
100
AcDb2dVertex
 10
719.5916091657314
 20
133.3858383908084
 30
0.0
 42
0.5393650877867394
  0
SEQEND
  5
B2
330
AF
100
AcDbEntity
  8
DXF_SILKSCREEN_BOTTOM
  0
MTEXT
  5
B3
330
1F
100
AcDbEntity
  8
DXF_SILKSCREEN_BOTTOM
100
AcDbMText
 10
721.1039202420623
 20
121.8599751052672
 30
0.0
 40
0.4978634331004613
 41
2.492334519642309
 46
0.1991453732401844
 71
     1
 72
     1
  1
ML
  7
Default
 73
     1
 44
1.0
  0
SPLINE
  5
B4
330
1F
100
AcDbEntity
  8
DXF_SILKSCREEN_BOTTOM
100
AcDbSpline
210
0.0
220
0.0
230
1.0
 70
     8
 71
     1
 72
     6
 73
     4
 74
     0
 42
0.0000000001
 43
0.0000000001
 40
0.0
 40
0.0
 40
0.6321978388521075
 40
1.373602453674835
 40
3.827489322449026
 40
3.827489322449026
 10
719.598406650008
 20
119.3391088024522
 30
0.0
 10
720.2306044888601
 20
119.3391088024522
 30
0.0
 10
720.2306044888601
 20
119.9304808655326
 30
0.0
 10
722.906058615957
 20
119.9304808655326
 30
0.0
  0
MTEXT
  5
B5
330
1F
100
AcDbEntity
  8
DXF_SILKSCREEN_BOTTOM
100
AcDbMText
 10
724.4225624781214
 20
119.5996539906467
 30
0.0
 40
0.4978634331004613
 41
3.789796799843511
 46
0.3500130802403242
 71
     1
 72
     1
  1
ε Mg
  7
Default
 73
     1
 44
1.0
  0
POLYLINE
  5
B6
102
{ACAD_REACTORS
330
2A3
102
}
330
1F
100
AcDbEntity
  8
DXF_SILKSCREEN_BOTTOM
100
AcDb2dPolyline
 66
     1
 10
0.0
 20
0.0
 30
0.0
 70
     1
  0
VERTEX
  5
B7
330
B6
100
AcDbEntity
  8
DXF_SILKSCREEN_BOTTOM
100
AcDbVertex
100
AcDb2dVertex
 10
723.2341851646667
 20
118.5173583182861
 30
0.0
 42
0.5393650877867778
  0
VERTEX
  5
B8
330
B6
100
AcDbEntity
  8
DXF_SILKSCREEN_BOTTOM
100
AcDbVertex
100
AcDb2dVertex
 10
722.9006675874786
 20
118.5173583182861
 30
0.0
 42
0.5393650877869891
  0
SEQEND
  5
B9
330
B6
100
AcDbEntity
  8
DXF_SILKSCREEN_BOTTOM
  0
POLYLINE
  5
BA
102
{ACAD_REACTORS
330
2A3
102
}
330
1F
100
AcDbEntity
  8
DXF_SILKSCREEN_BOTTOM
100
AcDb2dPolyline
 66
     1
 10
0.0
 20
0.0
 30
0.0
 70
     1
  0
VERTEX
  5
BB
330
BA
100
AcDbEntity
  8
DXF_SILKSCREEN_BOTTOM
100
AcDbVertex
100
AcDb2dVertex
 10
723.2395761931451
 20
119.9304808655326
 30
0.0
 42
0.5393650877867778
  0
VERTEX
  5
BC
330
BA
100
AcDbEntity
  8
DXF_SILKSCREEN_BOTTOM
100
AcDbVertex
100
AcDb2dVertex
 10
722.9060586159571
 20
119.9304808655326
 30
0.0
 42
0.539365087787338
  0
SEQEND
  5
BD
330
BA
100
AcDbEntity
  8
DXF_SILKSCREEN_BOTTOM
  0
POLYLINE
  5
BE
102
{ACAD_REACTORS
330
2A3
102
}
330
1F
100
AcDbEntity
  8
DXF_SILKSCREEN_BOTTOM
100
AcDb2dPolyline
 66
     1
 10
0.0
 20
0.0
 30
0.0
  0
VERTEX
  5
BF
330
BE
100
AcDbEntity
  8
DXF_SILKSCREEN_BOTTOM
100
AcDbVertex
100
AcDb2dVertex
 10
723.2341851646667
 20
118.517358318286
 30
0.0
  0
VERTEX
  5
C0
330
BE
100
AcDbEntity
  8
DXF_SILKSCREEN_BOTTOM
100
AcDbVertex
100
AcDb2dVertex
 10
723.9937657976354
 20
118.5174204136743
 30
0.0
 42
0.5868955851896855
  0
VERTEX
  5
C1
330
BE
100
AcDbEntity
  8
DXF_SILKSCREEN_BOTTOM
100
AcDbVertex
100
AcDb2dVertex
 10
724.2012068316956
 20
118.8695450618025
 30
0.0
 42
0.5393650877868738
  0
VERTEX
  5
C2
330
BE
100
AcDbEntity
  8
DXF_SILKSCREEN_BOTTOM
100
AcDbVertex
100
AcDb2dVertex
 10
723.8676892545076
 20
118.8695450618025
 30
0.0
 42
0.5393650877864931
  0
VERTEX
  5
C3
330
BE
100
AcDbEntity
  8
DXF_SILKSCREEN_BOTTOM
100
AcDbVertex
100
AcDb2dVertex
 10
724.2012068316956
 20
118.8695450618025
 30
0.0
 42
0.2708891790000574
  0
VERTEX
  5
C4
330
BE
100
AcDbEntity
  8
DXF_SILKSCREEN_BOTTOM
100
AcDbVertex
100
AcDb2dVertex
 10
724.2012068316956
 20
119.1058154470031
 30
0.0
 42
0.5393650877867778
  0
VERTEX
  5
C5
330
BE
100
AcDbEntity
  8
DXF_SILKSCREEN_BOTTOM
100
AcDbVertex
100
AcDb2dVertex
 10
723.8676892545076
 20
119.1058154470032
 30
0.0
 42
0.5393650877864931
  0
VERTEX
  5
C6
330
BE
100
AcDbEntity
  8
DXF_SILKSCREEN_BOTTOM
100
AcDbVertex
100
AcDb2dVertex
 10
724.2012068316956
 20
119.1058154470032
 30
0.0
 42
0.2708891790000574
  0
VERTEX
  5
C7
330
BE
100
AcDbEntity
  8
DXF_SILKSCREEN_BOTTOM
100
AcDbVertex
100
AcDb2dVertex
 10
724.2012068316956
 20
119.3420858322038
 30
0.0
 42
0.5393650877864896
  0
VERTEX
  5
C8
330
BE
100
AcDbEntity
  8
DXF_SILKSCREEN_BOTTOM
100
AcDbVertex
100
AcDb2dVertex
 10
723.8676892545076
 20
119.3420858322037
 30
0.0
 42
0.5393650877864931
  0
VERTEX
  5
C9
330
BE
100
AcDbEntity
  8
DXF_SILKSCREEN_BOTTOM
100
AcDbVertex
100
AcDb2dVertex
 10
724.2012068316956
 20
119.3420858322037
 30
0.0
 42
0.2708891790001181
  0
VERTEX
  5
CA
330
BE
100
AcDbEntity
  8
DXF_SILKSCREEN_BOTTOM
100
AcDbVertex
100
AcDb2dVertex
 10
724.2012068316955
 20
119.5783562174044
 30
0.0
 42
0.5393650877864931
  0
VERTEX
  5
CB
330
BE
100
AcDbEntity
  8
DXF_SILKSCREEN_BOTTOM
100
AcDbVertex
100
AcDb2dVertex
 10
723.8676892545075
 20
119.5783562174044
 30
0.0
 42
0.539365087786893
  0
VERTEX
  5
CC
330
BE
100
AcDbEntity
  8
DXF_SILKSCREEN_BOTTOM
100
AcDbVertex
100
AcDb2dVertex
 10
724.2012068316955
 20
119.5783562174044
 30
0.0
 42
0.5868955851897296
  0
VERTEX
  5
CD
330
BE
100
AcDbEntity
  8
DXF_SILKSCREEN_BOTTOM
100
AcDbVertex
100
AcDb2dVertex
 10
723.9937657976354
 20
119.9304808655325
 30
0.0
  0
VERTEX
  5
CE
330
BE
100
AcDbEntity
  8
DXF_SILKSCREEN_BOTTOM
100
AcDbVertex
100
AcDb2dVertex
 10
723.2395761931452
 20
119.9304808655325
 30
0.0
  0
SEQEND
  5
CF
330
BE
100
AcDbEntity
  8
DXF_SILKSCREEN_BOTTOM
  0
POLYLINE
  5
D0
102
{ACAD_REACTORS
330
2A4
102
}
330
1F
100
AcDbEntity
  8
DXF_SILKSCREEN_BOTTOM
100
AcDb2dPolyline
 66
     1
 10
0.0
 20
0.0
 30
0.0
 70
     1
  0
VERTEX
  5
D1
330
D0
100
AcDbEntity
  8
DXF_SILKSCREEN_BOTTOM
100
AcDbVertex
100
AcDb2dVertex
 10
719.9155429286075
 20
123.7809995945703
 30
0.0
 42
0.5393650877867778
  0
VERTEX
  5
D2
330
D0
100
AcDbEntity
  8
DXF_SILKSCREEN_BOTTOM
100
AcDbVertex
100
AcDb2dVertex
 10
719.5820253514194
 20
123.7809995945703
 30
0.0
 42
0.5393650877867778
  0
SEQEND
  5
D3
330
D0
100
AcDbEntity
  8
DXF_SILKSCREEN_BOTTOM
  0
POLYLINE
  5
D4
102
{ACAD_REACTORS
330
2A4
102
}
330
1F
100
AcDbEntity
  8
DXF_SILKSCREEN_BOTTOM
100
AcDb2dPolyline
 66
     1
 10
0.0
 20
0.0
 30
0.0
 70
     1
  0
VERTEX
  5
D5
330
D4
100
AcDbEntity
  8
DXF_SILKSCREEN_BOTTOM
100
AcDbVertex
100
AcDb2dVertex
 10
719.9209339570859
 20
125.1941221418167
 30
0.0
 42
0.5393650877867778
  0
VERTEX
  5
D6
330
D4
100
AcDbEntity
  8
DXF_SILKSCREEN_BOTTOM
100
AcDbVertex
100
AcDb2dVertex
 10
719.5874163798977
 20
125.1941221418167
 30
0.0
 42
0.5393650877869769
  0
SEQEND
  5
D7
330
D4
100
AcDbEntity
  8
DXF_SILKSCREEN_BOTTOM
  0
POLYLINE
  5
D8
102
{ACAD_REACTORS
330
2A4
102
}
330
1F
100
AcDbEntity
  8
DXF_SILKSCREEN_BOTTOM
100
AcDb2dPolyline
 66
     1
 10
0.0
 20
0.0
 30
0.0
  0
VERTEX
  5
D9
330
D8
100
AcDbEntity
  8
DXF_SILKSCREEN_BOTTOM
100
AcDbVertex
100
AcDb2dVertex
 10
719.9155429286075
 20
123.7809995945703
 30
0.0
  0
VERTEX
  5
DA
330
D8
100
AcDbEntity
  8
DXF_SILKSCREEN_BOTTOM
100
AcDbVertex
100
AcDb2dVertex
 10
720.6751235615764
 20
123.7810616899585
 30
0.0
 42
0.5868955851896683
  0
VERTEX
  5
DB
330
D8
100
AcDbEntity
  8
DXF_SILKSCREEN_BOTTOM
100
AcDbVertex
100
AcDb2dVertex
 10
720.8825645956365
 20
124.1331863380866
 30
0.0
 42
0.5393650877867241
  0
VERTEX
  5
DC
330
D8
100
AcDbEntity
  8
DXF_SILKSCREEN_BOTTOM
100
AcDbVertex
100
AcDb2dVertex
 10
720.5490470184483
 20
124.1331863380867
 30
0.0
 42
0.5393650877864931
  0
VERTEX
  5
DD
330
D8
100
AcDbEntity
  8
DXF_SILKSCREEN_BOTTOM
100
AcDbVertex
100
AcDb2dVertex
 10
720.8825645956363
 20
124.1331863380867
 30
0.0
 42
0.2708891790005264
  0
VERTEX
  5
DE
330
D8
100
AcDbEntity
  8
DXF_SILKSCREEN_BOTTOM
100
AcDbVertex
100
AcDb2dVertex
 10
720.8825645956365
 20
124.3694567232873
 30
0.0
 42
0.53936508778682
  0
VERTEX
  5
DF
330
D8
100
AcDbEntity
  8
DXF_SILKSCREEN_BOTTOM
100
AcDbVertex
100
AcDb2dVertex
 10
720.549047018448
 20
124.3694567232873
 30
0.0
 42
0.5393650877869769
  0
VERTEX
  5
E0
330
D8
100
AcDbEntity
  8
DXF_SILKSCREEN_BOTTOM
100
AcDbVertex
100
AcDb2dVertex
 10
720.8825645956363
 20
124.3694567232872
 30
0.0
 42
0.2708891790005264
  0
VERTEX
  5
E1
330
D8
100
AcDbEntity
  8
DXF_SILKSCREEN_BOTTOM
100
AcDbVertex
100
AcDb2dVertex
 10
720.8825645956365
 20
124.6057271084879
 30
0.0
 42
0.53936508778682
  0
VERTEX
  5
E2
330
D8
100
AcDbEntity
  8
DXF_SILKSCREEN_BOTTOM
100
AcDbVertex
100
AcDb2dVertex
 10
720.5490470184482
 20
124.6057271084879
 30
0.0
 42
0.5393650877867778
  0
VERTEX
  5
E3
330
D8
100
AcDbEntity
  8
DXF_SILKSCREEN_BOTTOM
100
AcDbVertex
100
AcDb2dVertex
 10
720.8825645956363
 20
124.6057271084879
 30
0.0
 42
0.270889179000522
  0
VERTEX
  5
E4
330
D8
100
AcDbEntity
  8
DXF_SILKSCREEN_BOTTOM
100
AcDbVertex
100
AcDb2dVertex
 10
720.8825645956365
 20
124.8419974936886
 30
0.0
 42
0.53936508778682
  0
VERTEX
  5
E5
330
D8
100
AcDbEntity
  8
DXF_SILKSCREEN_BOTTOM
100
AcDbVertex
100
AcDb2dVertex
 10
720.5490470184482
 20
124.8419974936886
 30
0.0
 42
0.5393650877867778
  0
VERTEX
  5
E6
330
D8
100
AcDbEntity
  8
DXF_SILKSCREEN_BOTTOM
100
AcDbVertex
100
AcDb2dVertex
 10
720.8825645956363
 20
124.8419974936886
 30
0.0
 42
0.586895585189765
  0
VERTEX
  5
E7
330
D8
100
AcDbEntity
  8
DXF_SILKSCREEN_BOTTOM
100
AcDbVertex
100
AcDb2dVertex
 10
720.6751235615764
 20
125.1941221418167
 30
0.0
  0
VERTEX
  5
E8
330
D8
100
AcDbEntity
  8
DXF_SILKSCREEN_BOTTOM
100
AcDbVertex
100
AcDb2dVertex
 10
719.9209339570859
 20
125.1941221418166
 30
0.0
  0
SEQEND
  5
E9
330
D8
100
AcDbEntity
  8
DXF_SILKSCREEN_BOTTOM
  0
POLYLINE
  5
EA
102
{ACAD_REACTORS
330
2A5
102
}
330
1F
100
AcDbEntity
  8
DXF_SILKSCREEN_BOTTOM
100
AcDb2dPolyline
 66
     1
 10
0.0
 20
0.0
 30
0.0
 70
     1
  0
VERTEX
  5
EB
330
EA
100
AcDbEntity
  8
DXF_SILKSCREEN_BOTTOM
100
AcDbVertex
100
AcDb2dVertex
 10
719.9155429286075
 20
120.8501808157143
 30
0.0
 42
0.5393650877867778
  0
VERTEX
  5
EC
330
EA
100
AcDbEntity
  8
DXF_SILKSCREEN_BOTTOM
100
AcDbVertex
100
AcDb2dVertex
 10
719.5820253514195
 20
120.8501808157143
 30
0.0
 42
0.5393650877864931
  0
SEQEND
  5
ED
330
EA
100
AcDbEntity
  8
DXF_SILKSCREEN_BOTTOM
  0
POLYLINE
  5
EE
102
{ACAD_REACTORS
330
2A5
102
}
330
1F
100
AcDbEntity
  8
DXF_SILKSCREEN_BOTTOM
100
AcDb2dPolyline
 66
     1
 10
0.0
 20
0.0
 30
0.0
 70
     1
  0
VERTEX
  5
EF
330
EE
100
AcDbEntity
  8
DXF_SILKSCREEN_BOTTOM
100
AcDbVertex
100
AcDb2dVertex
 10
719.9209339570859
 20
122.2633033629608
 30
0.0
 42
0.5393650877867778
  0
VERTEX
  5
F0
330
EE
100
AcDbEntity
  8
DXF_SILKSCREEN_BOTTOM
100
AcDbVertex
100
AcDb2dVertex
 10
719.5874163798978
 20
122.2633033629608
 30
0.0
 42
0.5393650877867778
  0
SEQEND
  5
F1
330
EE
100
AcDbEntity
  8
DXF_SILKSCREEN_BOTTOM
  0
POLYLINE
  5
F2
102
{ACAD_REACTORS
330
2A5
102
}
330
1F
100
AcDbEntity
  8
DXF_SILKSCREEN_BOTTOM
100
AcDb2dPolyline
 66
     1
 10
0.0
 20
0.0
 30
0.0
  0
VERTEX
  5
F3
330
F2
100
AcDbEntity
  8
DXF_SILKSCREEN_BOTTOM
100
AcDbVertex
100
AcDb2dVertex
 10
719.9155429286075
 20
120.8501808157143
 30
0.0
  0
VERTEX
  5
F4
330
F2
100
AcDbEntity
  8
DXF_SILKSCREEN_BOTTOM
100
AcDbVertex
100
AcDb2dVertex
 10
720.6751235615764
 20
120.8502429111027
 30
0.0
 42
0.5868955851896855
  0
VERTEX
  5
F5
330
F2
100
AcDbEntity
  8
DXF_SILKSCREEN_BOTTOM
100
AcDbVertex
100
AcDb2dVertex
 10
720.8825645956364
 20
121.2023675592308
 30
0.0
 42
0.5393650877864353
  0
VERTEX
  5
F6
330
F2
100
AcDbEntity
  8
DXF_SILKSCREEN_BOTTOM
100
AcDbVertex
100
AcDb2dVertex
 10
720.5490470184484
 20
121.2023675592308
 30
0.0
 42
0.539365087786893
  0
VERTEX
  5
F7
330
F2
100
AcDbEntity
  8
DXF_SILKSCREEN_BOTTOM
100
AcDbVertex
100
AcDb2dVertex
 10
720.8825645956365
 20
121.2023675592308
 30
0.0
 42
0.2708891790000877
  0
VERTEX
  5
F8
330
F2
100
AcDbEntity
  8
DXF_SILKSCREEN_BOTTOM
100
AcDbVertex
100
AcDb2dVertex
 10
720.8825645956365
 20
121.4386379444314
 30
0.0
 42
0.5393650877867778
  0
VERTEX
  5
F9
330
F2
100
AcDbEntity
  8
DXF_SILKSCREEN_BOTTOM
100
AcDbVertex
100
AcDb2dVertex
 10
720.5490470184485
 20
121.4386379444314
 30
0.0
 42
0.5393650877864931
  0
VERTEX
  5
FA
330
F2
100
AcDbEntity
  8
DXF_SILKSCREEN_BOTTOM
100
AcDbVertex
100
AcDb2dVertex
 10
720.8825645956365
 20
121.4386379444314
 30
0.0
 42
0.2708891790000574
  0
VERTEX
  5
FB
330
F2
100
AcDbEntity
  8
DXF_SILKSCREEN_BOTTOM
100
AcDbVertex
100
AcDb2dVertex
 10
720.8825645956365
 20
121.6749083296321
 30
0.0
 42
0.5393650877867778
  0
VERTEX
  5
FC
330
F2
100
AcDbEntity
  8
DXF_SILKSCREEN_BOTTOM
100
AcDbVertex
100
AcDb2dVertex
 10
720.5490470184485
 20
121.6749083296321
 30
0.0
 42
0.5393650877864931
  0
VERTEX
  5
FD
330
F2
100
AcDbEntity
  8
DXF_SILKSCREEN_BOTTOM
100
AcDbVertex
100
AcDb2dVertex
 10
720.8825645956365
 20
121.6749083296321
 30
0.0
 42
0.2708891790000574
  0
VERTEX
  5
FE
330
F2
100
AcDbEntity
  8
DXF_SILKSCREEN_BOTTOM
100
AcDbVertex
100
AcDb2dVertex
 10
720.8825645956365
 20
121.9111787148328
 30
0.0
 42
0.5393650877868738
  0
VERTEX
  5
FF
330
F2
100
AcDbEntity
  8
DXF_SILKSCREEN_BOTTOM
100
AcDbVertex
100
AcDb2dVertex
 10
720.5490470184483
 20
121.9111787148328
 30
0.0
 42
0.5393650877869769
  0
VERTEX
  5
100
330
F2
100
AcDbEntity
  8
DXF_SILKSCREEN_BOTTOM
100
AcDbVertex
100
AcDb2dVertex
 10
720.8825645956364
 20
121.9111787148327
 30
0.0
 42
0.5868955851896246
  0
VERTEX
  5
101
330
F2
100
AcDbEntity
  8
DXF_SILKSCREEN_BOTTOM
100
AcDbVertex
100
AcDb2dVertex
 10
720.6751235615764
 20
122.2633033629608
 30
0.0
  0
VERTEX
  5
102
330
F2
100
AcDbEntity
  8
DXF_SILKSCREEN_BOTTOM
100
AcDbVertex
100
AcDb2dVertex
 10
719.9209339570862
 20
122.2633033629608
 30
0.0
  0
SEQEND
  5
103
330
F2
100
AcDbEntity
  8
DXF_SILKSCREEN_BOTTOM
  0
MTEXT
  5
104
330
1F
100
AcDbEntity
  8
DXF_SILKSCREEN_BOTTOM
100
AcDbMText
 10
721.1039202420623
 20
124.8212673286814
 30
0.0
 40
0.4978634331004613
 41
3.934629798563646
 46
0.3500130802403242
 71
     1
 72
     1
  1
γ Mg
  7
Default
 73
     1
 44
1.0
  0
MTEXT
  5
105
330
1F
100
AcDbEntity
  8
DXF_SILKSCREEN_BOTTOM
100
AcDbMText
 10
731.8422922483849
 20
119.5270317328521
 30
0.0
 40
0.3
 41
1.261818181818182
 46
0.12
 71
     1
 72
     1
  1
31
  7
Default
 73
     1
 44
1.0
  0
MTEXT
  5
106
330
1F
100
AcDbEntity
  8
DXF_SILKSCREEN_BOTTOM
100
AcDbMText
 10
723.3518276059588
 20
122.9597420479237
 30
0.0
 40
0.3
 41
0.96
 46
0.12
 71
     1
 72
     1
  1
5
  7
Default
 73
     1
 44
1.0
  0
MTEXT
  5
107
330
1F
100
AcDbEntity
  8
DXF_SILKSCREEN_BOTTOM
100
AcDbMText
 10
725.7349127928429
 20
120.474886096014
 30
0.0
 40
0.3
 41
0.96
 46
0.12
 71
     1
 72
     1
  1
8
  7
Default
 73
     1
 44
1.0
  0
MTEXT
  5
108
330
1F
100
AcDbEntity
  8
DXF_SILKSCREEN_BOTTOM
100
AcDbMText
 10
760.1725924300565
 20
134.0189468863477
 30
0.0
 40
0.3
 41
1.32
 46
0.12
 71
     1
 72
     1
  1
41
  7
Default
 73
     1
 44
1.0
  0
MTEXT
  5
109
330
1F
100
AcDbEntity
  8
DXF_SILKSCREEN_BOTTOM
100
AcDbMText
 10
750.1984571511736
 20
124.5485713151879
 30
0.0
 40
0.3
 41
1.381818181818182
 46
0.12
 71
     1
 72
     1
  1
35
  7
Default
 73
     1
 44
1.0
  0
MTEXT
  5
10A
330
1F
100
AcDbEntity
  8
DXF_SILKSCREEN_BOTTOM
100
AcDbMText
 10
745.5374700348767
 20
122.2668589463578
 30
0.0
 40
0.3
 41
1.381818181818182
 46
0.12
 71
     1
 72
     1
  1
33
  7
Default
 73
     1
 44
1.0
  0
MTEXT
  5
10B
330
1F
100
AcDbEntity
  8
DXF_SILKSCREEN_BOTTOM
100
AcDbMText
 10
745.8303741112122
 20
123.0668384369401
 30
0.0
 40
0.3
 41
1.381818181818182
 46
0.12
 71
     1
 72
     1
  1
36
  7
Default
 73
     1
 44
1.0
  0
MTEXT
  5
10C
330
1F
100
AcDbEntity
  8
DXF_SILKSCREEN_BOTTOM
100
AcDbMText
 10
721.2146720769041
 20
138.8698432235239
 30
0.0
 40
0.3
 41
0.84
 46
0.12
 71
     1
 72
     1
  1
1
  7
Default
 73
     1
 44
1.0
  0
MTEXT
  5
10D
330
1F
100
AcDbEntity
  8
DXF_SILKSCREEN_BOTTOM
100
AcDbMText
 10
728.2214640952268
 20
134.4856897540798
 30
0.0
 40
0.3
 41
1.141818181818182
 46
0.12
 71
     1
 72
     1
  1
11
  7
Default
 73
     1
 44
1.0
  0
MTEXT
  5
10E
330
1F
100
AcDbEntity
  8
DXF_SILKSCREEN_BOTTOM
100
AcDbMText
 10
736.8743121961003
 20
133.7509598758523
 30
0.0
 40
0.3
 41
1.261818181818182
 46
0.12
 71
     1
 72
     1
  1
18
  7
Default
 73
     1
 44
1.0
  0
MTEXT
  5
10F
330
1F
100
AcDbEntity
  8
DXF_SILKSCREEN_BOTTOM
100
AcDbMText
 10
734.2418843361936
 20
134.5828479783344
 30
0.0
 40
0.3
 41
1.261818181818182
 46
0.12
 71
     1
 72
     1
  1
17
  7
Default
 73
     1
 44
1.0
  0
MTEXT
  5
110
330
1F
100
AcDbEntity
  8
DXF_SILKSCREEN_BOTTOM
100
AcDbMText
 10
732.487410185983
 20
134.6462720306673
 30
0.0
 40
0.3
 41
1.261818181818182
 46
0.12
 71
     1
 72
     1
  1
16
  7
Default
 73
     1
 44
1.0
  0
MTEXT
  5
111
330
1F
100
AcDbEntity
  8
DXF_SILKSCREEN_BOTTOM
100
AcDbMText
 10
730.7230252487576
 20
134.6609083504363
 30
0.0
 40
0.3
 41
1.261818181818182
 46
0.12
 71
     1
 72
     1
  1
15
  7
Default
 73
     1
 44
1.0
  0
MTEXT
  5
112
330
1F
100
AcDbEntity
  8
DXF_SILKSCREEN_BOTTOM
100
AcDbMText
 10
744.1843617337345
 20
138.1813849649374
 30
0.0
 40
0.3
 41
1.44
 46
0.12
 71
     1
 72
     1
  1
40
  7
Default
 73
     1
 44
1.0
  0
MTEXT
  5
113
330
1F
100
AcDbEntity
  8
DXF_SILKSCREEN_BOTTOM
100
AcDbMText
 10
733.8681993433503
 20
139.7673502984612
 30
0.0
 40
0.3
 41
1.381818181818182
 46
0.12
 71
     1
 72
     1
  1
38
  7
Default
 73
     1
 44
1.0
  0
MTEXT
  5
114
330
1F
100
AcDbEntity
  8
DXF_SILKSCREEN_BOTTOM
100
AcDbMText
 10
731.0591201952001
 20
136.4285557779517
 30
0.0
 40
0.3
 41
1.323636363636364
 46
0.12
 71
     1
 72
     1
  1
14
  7
Default
 73
     1
 44
1.0
  0
MTEXT
  5
115
330
1F
100
AcDbEntity
  8
DXF_SILKSCREEN_BOTTOM
100
AcDbMText
 10
731.0478931490171
 20
138.8687104709032
 30
0.0
 40
0.3
 41
1.261818181818182
 46
0.12
 71
     1
 72
     1
  1
13
  7
Default
 73
     1
 44
1.0
  0
MTEXT
  5
116
330
1F
100
AcDbEntity
  8
DXF_SILKSCREEN_BOTTOM
100
AcDbMText
 10
728.4068604801812
 20
137.4679820942058
 30
0.0
 40
0.3
 41
1.261818181818182
 46
0.12
 71
     1
 72
     1
  1
10
  7
Default
 73
     1
 44
1.0
  0
MTEXT
  5
117
330
1F
100
AcDbEntity
  8
DXF_SILKSCREEN_BOTTOM
100
AcDbMText
 10
726.2178187307452
 20
135.8140184970075
 30
0.0
 40
0.3
 41
0.96
 46
0.12
 71
     1
 72
     1
  1
6
  7
Default
 73
     1
 44
1.0
  0
MTEXT
  5
118
330
1F
100
AcDbEntity
  8
DXF_SILKSCREEN_BOTTOM
100
AcDbMText
 10
724.2259920467011
 20
126.9832453403903
 30
0.0
 40
0.3
 41
1.021818181818182
 46
0.12
 71
     1
 72
     1
  1
4
  7
Default
 73
     1
 44
1.0
  0
MTEXT
  5
119
330
1F
100
AcDbEntity
  8
DXF_SILKSCREEN_BOTTOM
100
AcDbMText
 10
721.6130725415101
 20
136.3472537413773
 30
0.0
 40
0.3
 41
0.96
 46
0.12
 71
     1
 72
     1
  1
2
  7
Default
 73
     1
 44
1.0
  0
MTEXT
  5
11A
330
1F
100
AcDbEntity
  8
DXF_SILKSCREEN_BOTTOM
100
AcDbMText
 10
761.8922964367653
 20
121.8227788404387
 30
0.0
 40
0.3
 41
1.501818181818182
 46
0.12
 71
     1
 72
     1
  1
44
  7
Default
 73
     1
 44
1.0
  0
MTEXT
  5
11B
330
1F
100
AcDbEntity
  8
DXF_SILKSCREEN_BOTTOM
100
AcDbMText
 10
737.6396659075343
 20
139.7555061984739
 30
0.0
 40
0.3
 41
1.381818181818182
 46
0.12
 71
     1
 72
     1
  1
39
  7
Default
 73
     1
 44
1.0
  0
MTEXT
  5
11C
330
1F
100
AcDbEntity
  8
DXF_SILKSCREEN_BOTTOM
100
AcDbMText
 10
740.3553857802898
 20
128.3289408918685
 30
0.0
 40
0.3
 41
1.381818181818182
 46
0.12
 71
     1
 72
     1
  1
25
  7
Default
 73
     1
 44
1.0
  0
MTEXT
  5
11D
330
1F
100
AcDbEntity
  8
DXF_SILKSCREEN_BOTTOM
100
AcDbMText
 10
738.6258346070052
 20
131.0310795432229
 30
0.0
 40
0.3
 41
1.443636363636364
 46
0.12
 71
     1
 72
     1
  1
24
  7
Default
 73
     1
 44
1.0
  0
MTEXT
  5
11E
330
1F
100
AcDbEntity
  8
DXF_SILKSCREEN_BOTTOM
100
AcDbMText
 10
739.1587511466661
 20
126.4818741077698
 30
0.0
 40
0.3
 41
1.381818181818182
 46
0.12
 71
     1
 72
     1
  1
27
  7
Default
 73
     1
 44
1.0
  0
MTEXT
  5
11F
330
1F
100
AcDbEntity
  8
DXF_SILKSCREEN_BOTTOM
100
AcDbMText
 10
731.5130126192613
 20
128.3909831720349
 30
0.0
 40
0.3
 41
1.381818181818182
 46
0.12
 71
     1
 72
     1
  1
20
  7
Default
 73
     1
 44
1.0
  0
MTEXT
  5
120
330
1F
100
AcDbEntity
  8
DXF_SILKSCREEN_BOTTOM
100
AcDbMText
 10
733.3531602477673
 20
128.3983268752103
 30
0.0
 40
0.3
 41
1.261818181818182
 46
0.12
 71
     1
 72
     1
  1
21
  7
Default
 73
     1
 44
1.0
  0
MTEXT
  5
121
330
1F
100
AcDbEntity
  8
DXF_SILKSCREEN_BOTTOM
100
AcDbMText
 10
735.1076343979776
 20
128.3487654585376
 30
0.0
 40
0.3
 41
1.381818181818182
 46
0.12
 71
     1
 72
     1
  1
22
  7
Default
 73
     1
 44
1.0
  0
MTEXT
  5
122
330
1F
100
AcDbEntity
  8
DXF_SILKSCREEN_BOTTOM
100
AcDbMText
 10
736.8521962648537
 20
128.3289408918685
 30
0.0
 40
0.3
 41
1.381818181818182
 46
0.12
 71
     1
 72
     1
  1
23
  7
Default
 73
     1
 44
1.0
  0
MTEXT
  5
123
330
1F
100
AcDbEntity
  8
DXF_SILKSCREEN_BOTTOM
100
AcDbMText
 10
728.8497288847898
 20
124.851875609527
 30
0.0
 40
0.3
 41
1.261818181818182
 46
0.12
 71
     1
 72
     1
  1
12
  7
Default
 73
     1
 44
1.0
  0
MTEXT
  5
124
330
1F
100
AcDbEntity
  8
DXF_SILKSCREEN_BOTTOM
100
AcDbMText
 10
730.7618375164037
 20
124.8810706352972
 30
0.0
 40
0.3
 41
1.381818181818182
 46
0.12
 71
     1
 72
     1
  1
26
  7
Default
 73
     1
 44
1.0
  0
MTEXT
  5
125
330
1F
100
AcDbEntity
  8
DXF_SILKSCREEN_BOTTOM
100
AcDbMText
 10
737.1578697663132
 20
121.4446802472257
 30
0.0
 40
0.3
 41
1.381818181818182
 46
0.12
 71
     1
 72
     1
  1
28
  7
Default
 73
     1
 44
1.0
  0
MTEXT
  5
126
330
1F
100
AcDbEntity
  8
DXF_SILKSCREEN_BOTTOM
100
AcDbMText
 10
739.0944651250653
 20
121.4446802472257
 30
0.0
 40
0.3
 41
1.381818181818182
 46
0.12
 71
     1
 72
     1
  1
29
  7
Default
 73
     1
 44
1.0
  0
MTEXT
  5
127
330
1F
100
AcDbEntity
  8
DXF_SILKSCREEN_BOTTOM
100
AcDbMText
 10
742.2922237637766
 20
121.0667423709062
 30
0.0
 40
0.3
 41
1.381818181818182
 46
0.12
 71
     1
 72
     1
  1
30
  7
Default
 73
     1
 44
1.0
  0
MTEXT
  5
128
330
1F
100
AcDbEntity
  8
DXF_SILKSCREEN_BOTTOM
100
AcDbMText
 10
739.1467057223007
 20
119.4469541889722
 30
0.0
 40
0.3
 41
1.381818181818182
 46
0.12
 71
     1
 72
     1
  1
32
  7
Default
 73
     1
 44
1.0
  0
MTEXT
  5
129
330
1F
100
AcDbEntity
  8
DXF_SILKSCREEN_BOTTOM
100
AcDbMText
 10
745.5717657397839
 20
119.8024566926516
 30
0.0
 40
0.3
 41
1.443636363636364
 46
0.12
 71
     1
 72
     1
  1
34
  7
Default
 73
     1
 44
1.0
  0
MTEXT
  5
12A
330
1F
100
AcDbEntity
  8
DXF_SILKSCREEN_BOTTOM
100
AcDbMText
 10
753.1583046163734
 20
122.9458446094275
 30
0.0
 40
0.3
 41
1.381818181818182
 46
0.12
 71
     1
 72
     1
  1
37
  7
Default
 73
     1
 44
1.0
  0
MTEXT
  5
12B
330
1F
100
AcDbEntity
  8
DXF_SILKSCREEN_BOTTOM
100
AcDbMText
 10
761.8532355701192
 20
128.9446947098636
 30
0.0
 40
0.3
 41
1.44
 46
0.12
 71
     1
 72
     1
  1
42
  7
Default
 73
     1
 44
1.0
  0
MTEXT
  5
12C
330
1F
100
AcDbEntity
  8
DXF_SILKSCREEN_BOTTOM
100
AcDbMText
 10
761.8532355701192
 20
127.3147623602925
 30
0.0
 40
0.3
 41
1.44
 46
0.12
 71
     1
 72
     1
  1
43
  7
Default
 73
     1
 44
1.0
  0
MTEXT
  5
12D
330
1F
100
AcDbEntity
  8
DXF_SILKSCREEN_BOTTOM
100
AcDbMText
 10
740.4293815305708
 20
133.7509598758523
 30
0.0
 40
0.3
 41
1.261818181818182
 46
0.12
 71
     1
 72
     1
  1
19
  7
Default
 73
     1
 44
1.0
  0
POLYLINE
  5
12F
330
1F
100
AcDbEntity
  8
DXF_1_BOARD
100
AcDb2dPolyline
 66
     1
 10
0.0
 20
0.0
 30
0.0
 70
     1
  0
VERTEX
  5
130
330
12F
100
AcDbEntity
  8
DXF_1_BOARD
100
AcDbVertex
100
AcDb2dVertex
 10
759.2801642544329
 20
117.877007966969
 30
0.0
 42
0.4142135623731376
  0
VERTEX
  5
131
330
12F
100
AcDbEntity
  8
DXF_1_BOARD
100
AcDbVertex
100
AcDb2dVertex
 10
763.012071458609
 20
121.6089151711449
 30
0.0
  0
VERTEX
  5
132
330
12F
100
AcDbEntity
  8
DXF_1_BOARD
100
AcDbVertex
100
AcDb2dVertex
 10
763.0120714586091
 20
134.7008502518868
 30
0.0
  0
VERTEX
  5
133
330
12F
100
AcDbEntity
  8
DXF_1_BOARD
100
AcDbVertex
100
AcDb2dVertex
 10
751.766609710552
 20
140.6452710119331
 30
0.0
  0
VERTEX
  5
134
330
12F
100
AcDbEntity
  8
DXF_1_BOARD
100
AcDbVertex
100
AcDb2dVertex
 10
717.3977769685314
 20
140.6452710119331
 30
0.0
  0
VERTEX
  5
135
330
12F
100
AcDbEntity
  8
DXF_1_BOARD
100
AcDbVertex
100
AcDb2dVertex
 10
717.3977769685314
 20
117.877007966969
 30
0.0
  0
SEQEND
  5
136
330
12F
100
AcDbEntity
  8
DXF_1_BOARD
  0
POLYLINE
  5
137
330
1F
100
AcDbEntity
  8
DXF_1_BOARD
100
AcDb2dPolyline
 66
     1
 10
0.0
 20
0.0
 30
0.0
 70
     1
  0
VERTEX
  5
138
330
137
100
AcDbEntity
  8
DXF_1_BOARD
100
AcDbVertex
100
AcDb2dVertex
 10
759.1771895736958
 20
92.18886928440406
 30
0.0
 42
0.4142135623731102
  0
VERTEX
  5
139
330
137
100
AcDbEntity
  8
DXF_1_BOARD
100
AcDbVertex
100
AcDb2dVertex
 10
762.909096777872
 20
95.92077648858
 30
0.0
  0
VERTEX
  5
13A
330
137
100
AcDbEntity
  8
DXF_1_BOARD
100
AcDbVertex
100
AcDb2dVertex
 10
762.909096777872
 20
109.0127115693219
 30
0.0
  0
VERTEX
  5
13B
330
137
100
AcDbEntity
  8
DXF_1_BOARD
100
AcDbVertex
100
AcDb2dVertex
 10
751.6636350298149
 20
114.9571323293681
 30
0.0
  0
VERTEX
  5
13C
330
137
100
AcDbEntity
  8
DXF_1_BOARD
100
AcDbVertex
100
AcDb2dVertex
 10
717.2948022877944
 20
114.9571323293681
 30
0.0
  0
VERTEX
  5
13D
330
137
100
AcDbEntity
  8
DXF_1_BOARD
100
AcDbVertex
100
AcDb2dVertex
 10
717.2948022877944
 20
92.18886928440406
 30
0.0
  0
SEQEND
  5
13E
330
137
100
AcDbEntity
  8
DXF_1_BOARD
  0
POLYLINE
  5
13F
330
1F
100
AcDbEntity
  8
DXF_SILKSCREEN_TOP
100
AcDb2dPolyline
 66
     1
 10
0.0
 20
0.0
 30
0.0
 70
     1
  0
VERTEX
  5
140
330
13F
100
AcDbEntity
  8
DXF_SILKSCREEN_TOP
100
AcDbVertex
100
AcDb2dVertex
 10
762.5920557719363
 20
109.057572294214
 30
0.0
  0
VERTEX
  5
141
330
13F
100
AcDbEntity
  8
DXF_SILKSCREEN_TOP
100
AcDbVertex
100
AcDb2dVertex
 10
751.7225730707517
 20
114.8032482004122
 30
0.0
 42
0.122169880895789
  0
VERTEX
  5
142
330
13F
100
AcDbEntity
  8
DXF_SILKSCREEN_TOP
100
AcDbVertex
100
AcDb2dVertex
 10
751.5396140766878
 20
114.8486296980662
 30
0.0
  0
VERTEX
  5
143
330
13F
100
AcDbEntity
  8
DXF_SILKSCREEN_TOP
100
AcDbVertex
100
AcDb2dVertex
 10
717.7948022877946
 20
114.8486296980661
 30
0.0
 42
0.4142135623734302
  0
VERTEX
  5
144
330
13F
100
AcDbEntity
  8
DXF_SILKSCREEN_TOP
100
AcDbVertex
100
AcDb2dVertex
 10
717.4033049190966
 20
114.4571323293683
 30
0.0
  0
VERTEX
  5
145
330
13F
100
AcDbEntity
  8
DXF_SILKSCREEN_TOP
100
AcDbVertex
100
AcDb2dVertex
 10
717.4033049190969
 20
92.68886928440406
 30
0.0
 42
0.414213562373052
  0
VERTEX
  5
146
330
13F
100
AcDbEntity
  8
DXF_SILKSCREEN_TOP
100
AcDbVertex
100
AcDb2dVertex
 10
717.7948022877947
 20
92.29737191570621
 30
0.0
  0
VERTEX
  5
147
330
13F
100
AcDbEntity
  8
DXF_SILKSCREEN_TOP
100
AcDbVertex
100
AcDb2dVertex
 10
759.1771895736961
 20
92.29737191570624
 30
0.0
 42
0.414213562373141
  0
VERTEX
  5
148
330
13F
100
AcDbEntity
  8
DXF_SILKSCREEN_TOP
100
AcDbVertex
100
AcDb2dVertex
 10
762.80059414657
 20
95.92077648858017
 30
0.0
  0
VERTEX
  5
149
330
13F
100
AcDbEntity
  8
DXF_SILKSCREEN_TOP
100
AcDbVertex
100
AcDb2dVertex
 10
762.80059414657
 20
108.7114564231701
 30
0.0
 42
0.2779768250327441
  0
SEQEND
  5
14A
330
13F
100
AcDbEntity
  8
DXF_SILKSCREEN_TOP
  0
MTEXT
  5
14B
330
1F
100
AcDbEntity
  8
DXF_SILKSCREEN_TOP
100
AcDbMText
 10
717.4902331610399
 20
93.83974442831837
 30
0.0
 40
0.3
 41
1.381818181818182
 46
0.12
 71
     1
 72
     1
  1
35
  7
Default
 73
     1
 44
1.0
  0
MTEXT
  5
14C
330
1F
100
AcDbEntity
  8
DXF_SILKSCREEN_TOP
100
AcDbMText
 10
717.4902331610399
 20
95.2849553384919
 30
0.0
 40
0.3
 41
1.381818181818182
 46
0.12
 71
     1
 72
     1
  1
36
  7
Default
 73
     1
 44
1.0
  0
MTEXT
  5
14D
330
1F
100
AcDbEntity
  8
DXF_SILKSCREEN_TOP
100
AcDbMText
 10
717.4902331610399
 20
96.76228204666936
 30
0.0
 40
0.3
 41
1.381818181818182
 46
0.12
 71
     1
 72
     1
  1
37
  7
Default
 73
     1
 44
1.0
  0
MTEXT
  5
14E
330
1F
100
AcDbEntity
  8
DXF_SILKSCREEN_TOP
100
AcDbMText
 10
717.4902331610399
 20
98.22355085584482
 30
0.0
 40
0.3
 41
1.381818181818182
 46
0.12
 71
     1
 72
     1
  1
38
  7
Default
 73
     1
 44
1.0
  0
MTEXT
  5
14F
330
1F
100
AcDbEntity
  8
DXF_SILKSCREEN_TOP
100
AcDbMText
 10
717.4902331610399
 20
99.70890651352326
 30
0.0
 40
0.3
 41
1.381818181818182
 46
0.12
 71
     1
 72
     1
  1
39
  7
Default
 73
     1
 44
1.0
  0
MTEXT
  5
150
330
1F
100
AcDbEntity
  8
DXF_SILKSCREEN_TOP
100
AcDbMText
 10
717.4660943279199
 20
106.4238535198932
 30
0.0
 40
0.3
 41
1.44
 46
0.12
 71
     1
 72
     1
  1
40
  7
Default
 73
     1
 44
1.0
  0
MTEXT
  5
151
330
1F
100
AcDbEntity
  8
DXF_SILKSCREEN_TOP
100
AcDbMText
 10
717.51588067123
 20
107.918339960232
 30
0.0
 40
0.3
 41
1.32
 46
0.12
 71
     1
 72
     1
  1
41
  7
Default
 73
     1
 44
1.0
  0
MTEXT
  5
152
330
1F
100
AcDbEntity
  8
DXF_SILKSCREEN_TOP
100
AcDbMText
 10
717.4660943279199
 20
109.291290324897
 30
0.0
 40
0.3
 41
1.44
 46
0.12
 71
     1
 72
     1
  1
42
  7
Default
 73
     1
 44
1.0
  0
MTEXT
  5
153
330
1F
100
AcDbEntity
  8
DXF_SILKSCREEN_TOP
100
AcDbMText
 10
717.4360943279199
 20
112.4390883284761
 30
0.0
 40
0.3
 41
1.501818181818182
 46
0.12
 71
     1
 72
     1
  1
44
  7
Default
 73
     1
 44
1.0
  0
MTEXT
  5
154
330
1F
100
AcDbEntity
  8
DXF_SILKSCREEN_TOP
100
AcDbMText
 10
717.4360943279199
 20
113.9364367955673
 30
0.0
 40
0.3
 41
1.44
 46
0.12
 71
     1
 72
     1
  1
45
  7
Default
 73
     1
 44
1.0
  0
MTEXT
  5
155
102
{ACAD_REACTORS
330
2A6
102
}
330
1F
100
AcDbEntity
  8
DXF_SILKSCREEN_TOP
100
AcDbMText
 10
726.9021764109337
 20
101.341274265781
 30
0.0
 40
0.5564437231164313
 41
2.900252132606854
 46
0.2225774892465725
 71
     1
 72
     1
  1
MD
  7
Default
 73
     1
 44
1.0
  0
MTEXT
  5
156
102
{ACAD_REACTORS
330
2A6
102
}
330
1F
100
AcDbEntity
  8
DXF_SILKSCREEN_TOP
100
AcDbMText
 10
728.7933771880732
 20
100.8207905820209
 30
0.0
 40
0.4
 41
1.92
 46
0.16
 71
     1
 72
     1
  1
T5
  7
Default
 73
     1
 44
1.0
  0
MTEXT
  5
157
102
{ACAD_REACTORS
330
2A7
102
}
330
1F
100
AcDbEntity
  8
DXF_SILKSCREEN_TOP
100
AcDbMText
 10
725.1242612573909
 20
100.8207905820209
 30
0.0
 40
0.4
 41
2.002424242424242
 46
0.16
 71
     1
 72
     1
  1
T4
  7
Default
 73
     1
 44
1.0
  0
MTEXT
  5
158
102
{ACAD_REACTORS
330
2A8
102
}
330
1F
100
AcDbEntity
  8
DXF_SILKSCREEN_TOP
100
AcDbMText
 10
721.2787858838857
 20
100.8207905820209
 30
0.0
 40
0.4
 41
1.92
 46
0.16
 71
     1
 72
     1
  1
T3
  7
Default
 73
     1
 44
1.0
  0
MTEXT
  5
159
102
{ACAD_REACTORS
330
2A9
102
}
330
1F
100
AcDbEntity
  8
DXF_SILKSCREEN_TOP
100
AcDbMText
 10
725.917955976379
 20
106.9431215253674
 30
0.0
 40
0.4
 41
1.76
 46
0.16
 71
     1
 72
     1
  1
T1
  7
Default
 73
     1
 44
1.0
  0
MTEXT
  5
15A
102
{ACAD_REACTORS
330
2A6
102
}
330
1F
100
AcDbEntity
  8
DXF_SILKSCREEN_TOP
100
AcDbMText
 10
728.0331684251574
 20
100.0169902001992
 30
0.0
 40
0.15
 41
0.48
 46
0.06
 71
     1
 72
     1
  1
3
  7
Default
 73
     1
 44
1.0
  0
MTEXT
  5
15B
102
{ACAD_REACTORS
330
2A6
102
}
330
1F
100
AcDbEntity
  8
DXF_SILKSCREEN_TOP
100
AcDbMText
 10
728.9400520039034
 20
102.3411653165338
 30
0.0
 40
0.15
 41
0.42
 46
0.06
 71
     1
 72
     1
  1
1
  7
Default
 73
     1
 44
1.0
  0
MTEXT
  5
15C
102
{ACAD_REACTORS
330
2A6
102
}
330
1F
100
AcDbEntity
  8
DXF_SILKSCREEN_TOP
100
AcDbMText
 10
727.0869619778264
 20
102.3411653165338
 30
0.0
 40
0.15
 41
0.48
 46
0.06
 71
     1
 72
     1
  1
2
  7
Default
 73
     1
 44
1.0
  0
MTEXT
  5
15D
102
{ACAD_REACTORS
330
2A6
102
}
330
1F
100
AcDbEntity
  8
DXF_SILKSCREEN_TOP
100
AcDbMText
 10
728.0133968104157
 20
101.6462795264437
 30
0.0
 40
0.1185650195252151
 41
0.3794080624806884
 46
0.047426007810086
 71
     1
 72
     1
  1
E
  7
Default
 73
     1
 44
1.0
  0
MTEXT
  5
15E
102
{ACAD_REACTORS
330
2A6
102
}
330
1F
100
AcDbEntity
  8
DXF_SILKSCREEN_TOP
100
AcDbMText
 10
728.8630972607234
 20
101.2112505746383
 30
0.0
 40
0.1185650195252151
 41
0.4038396422616418
 46
0.047426007810086
 71
     1
 72
     1
  1
B
  7
Default
 73
     1
 44
1.0
  0
MTEXT
  5
15F
102
{ACAD_REACTORS
330
2A6
102
}
330
1F
100
AcDbEntity
  8
DXF_SILKSCREEN_TOP
100
AcDbMText
 10
727.9839697268769
 20
100.5553850652657
 30
0.0
 40
0.1185650195252151
 41
0.3794080624806884
 46
0.047426007810086
 71
     1
 72
     1
  1
C
  7
Default
 73
     1
 44
1.0
  0
SPLINE
  5
160
102
{ACAD_REACTORS
330
2A6
102
}
330
1F
100
AcDbEntity
  8
DXF_SILKSCREEN_TOP
100
AcDbSpline
210
0.0
220
0.0
230
1.0
 70
     8
 71
     1
 72
     5
 73
     3
 74
     0
 42
0.0000000001
 43
0.0000000001
 40
0.0
 40
0.0
 40
0.708237789122677
 40
1.31605526757528
 40
1.31605526757528
 10
728.977324731176
 20
101.771021319144
 30
0.0
 10
728.9773247311762
 20
101.0627835300214
 30
0.0
 10
728.3695072527236
 20
101.0627835300214
 30
0.0
  0
SPLINE
  5
161
102
{ACAD_REACTORS
330
2A6
102
}
330
1F
100
AcDbEntity
  8
DXF_SILKSCREEN_TOP
100
AcDbSpline
210
0.0
220
0.0
230
1.0
 70
     8
 71
     1
 72
     6
 73
     4
 74
     0
 42
0.0000000001
 43
0.0000000001
 40
0.0
 40
0.0
 40
0.2754233249698927
 40
1.221629772300503
 40
1.294328943955236
 40
1.294328943955236
 10
727.139234705099
 20
101.771021319144
 30
0.0
 10
727.139234705099
 20
101.4955979941741
 30
0.0
 10
728.0854411524298
 20
101.4955979941741
 30
0.0
 10
728.0854411524298
 20
101.4228988225194
 30
0.0
  0
LINE
  5
162
102
{ACAD_REACTORS
330
2A6
102
}
330
1F
100
AcDbEntity
  8
DXF_SILKSCREEN_TOP
100
AcDbLine
 10
728.0854411524301
 20
100.3550834893015
 30
0.0
 11
728.0854411524299
 21
100.629526414835
 31
0.0
  0
LINE
  5
163
102
{ACAD_REACTORS
330
2A6
102
}
330
1F
100
AcDbEntity
  8
DXF_SILKSCREEN_TOP
100
AcDbLine
 10
728.2079143703663
 20
101.3010601808416
 30
0.0
 11
728.3695072527236
 21
101.141069463173
 31
0.0
  0
LINE
  5
164
102
{ACAD_REACTORS
330
2A6
102
}
330
1F
100
AcDbEntity
  8
DXF_SILKSCREEN_TOP
100
AcDbLine
 10
728.1327221541022
 20
101.2254763384509
 30
0.0
 11
728.0854411524298
 21
101.4228988225194
 31
0.0
  0
LINE
  5
165
102
{ACAD_REACTORS
330
2A6
102
}
330
1F
100
AcDbEntity
  8
DXF_SILKSCREEN_TOP
100
AcDbLine
 10
728.2824635962223
 20
101.3759976839153
 30
0.0
 11
728.0854411524298
 21
101.4228988225194
 31
0.0
  0
LINE
  5
166
102
{ACAD_REACTORS
330
2A6
102
}
330
1F
100
AcDbEntity
  8
DXF_SILKSCREEN_TOP
100
AcDbLine
 10
728.1327221541022
 20
101.2254763384509
 30
0.0
 11
728.2824635962223
 21
101.3759976839153
 31
0.0
  0
LINE
  5
167
102
{ACAD_REACTORS
330
2A6
102
}
330
1F
100
AcDbEntity
  8
DXF_SILKSCREEN_TOP
100
AcDbLine
 10
728.3695072527236
 20
100.7818841313847
 30
0.0
 11
728.3695072527236
 21
101.3490863712621
 31
0.0
  0
LINE
  5
168
102
{ACAD_REACTORS
330
2A6
102
}
330
1F
100
AcDbEntity
  8
DXF_SILKSCREEN_TOP
100
AcDbLine
 10
728.0854411524299
 20
100.7060233489439
 30
0.0
 11
728.3695072527236
 21
100.9844975968695
 31
0.0
  0
CIRCLE
  5
169
102
{ACAD_REACTORS
330
2A6
102
}
330
1F
100
AcDbEntity
  8
DXF_SILKSCREEN_TOP
100
AcDbCircle
 10
728.2146585716456
 20
101.0625622045047
 30
0.0
 40
0.4519039019122904
  0
LINE
  5
16A
102
{ACAD_REACTORS
330
2A6
102
}
330
1F
100
AcDbEntity
  8
DXF_SILKSCREEN_TOP
100
AcDbLine
 10
728.0854411524299
 20
100.629526414835
 30
0.0
 11
728.0854411524299
 21
100.7060233489439
 31
0.0
  0
SPLINE
  5
16B
102
{ACAD_REACTORS
330
2A6
102
}
330
1F
100
AcDbEntity
  8
DXF_SILKSCREEN_TOP
100
AcDbSpline
210
0.0
220
0.0
230
1.0
 70
    11
 71
     1
 72
     7
 73
     5
 74
     0
 42
0.0000000001
 43
0.0000000001
 40
0.0
 40
0.0
 40
0.0890118672761453
 40
0.1256786419522236
 40
0.2146905092283689
 40
0.2513572839044471
 40
0.2513572839044471
 10
727.9152935113715
 20
99.75165974316701
 30
0.0
 10
728.2555887934889
 20
99.75165974316701
 30
0.0
 10
728.2555887934889
 20
100.2965884110395
 30
0.0
 10
727.9152935113715
 20
100.2965884110395
 30
0.0
 10
727.9152935113715
 20
99.75165974316701
 30
0.0
  0
SPLINE
  5
16C
102
{ACAD_REACTORS
330
2A6
102
}
330
1F
100
AcDbEntity
  8
DXF_SILKSCREEN_TOP
100
AcDbSpline
210
0.0
220
0.0
230
1.0
 70
    11
 71
     1
 72
     7
 73
     5
 74
     0
 42
0.0000000001
 43
0.0000000001
 40
0.0
 40
0.0
 40
0.0890118672761453
 40
0.1256786419522236
 40
0.2146905092283689
 40
0.2513572839044471
 40
0.2513572839044471
 10
728.8071770901173
 20
101.8295163974061
 30
0.0
 10
729.1474723722348
 20
101.8295163974061
 30
0.0
 10
729.1474723722348
 20
102.3744450652786
 30
0.0
 10
728.8071770901173
 20
102.3744450652786
 30
0.0
 10
728.8071770901173
 20
101.8295163974061
 30
0.0
  0
SPLINE
  5
16D
102
{ACAD_REACTORS
330
2A6
102
}
330
1F
100
AcDbEntity
  8
DXF_SILKSCREEN_TOP
100
AcDbSpline
210
0.0
220
0.0
230
1.0
 70
    11
 71
     1
 72
     7
 73
     5
 74
     0
 42
0.0000000001
 43
0.0000000001
 40
0.0
 40
0.0
 40
0.0890118672761453
 40
0.1256786419522236
 40
0.2146905092283689
 40
0.2513572839044471
 40
0.2513572839044471
 10
726.9690870640404
 20
101.8295163974061
 30
0.0
 10
727.3093823461578
 20
101.8295163974061
 30
0.0
 10
727.3093823461578
 20
102.3744450652786
 30
0.0
 10
726.9690870640404
 20
102.3744450652786
 30
0.0
 10
726.9690870640404
 20
101.8295163974061
 30
0.0
  0
SPLINE
  5
16E
102
{ACAD_REACTORS
330
2A6
102
}
330
1F
100
AcDbEntity
  8
DXF_SILKSCREEN_TOP
100
AcDbSpline
210
0.0
220
0.0
230
1.0
 70
    11
 71
     1
 72
     7
 73
     5
 74
     0
 42
0.0000000001
 43
0.0000000001
 40
0.0
 40
0.0
 40
0.724780486100304
 40
1.125752199893437
 40
1.850532685993741
 40
2.251504399786874
 40
2.251504399786874
 10
726.7000113915559
 20
100.2965884110395
 30
0.0
 10
729.4708709133043
 20
100.2965884110395
 30
0.0
 10
729.4708709133043
 20
101.8295163974061
 30
0.0
 10
726.7000113915559
 20
101.8295163974061
 30
0.0
 10
726.7000113915559
 20
100.2965884110395
 30
0.0
  0
SPLINE
  5
16F
102
{ACAD_REACTORS
330
2A6
102
}
330
1F
100
AcDbEntity
  8
DXF_SILKSCREEN_TOP
100
AcDbSpline
210
0.0
220
0.0
230
1.0
 70
    11
 71
     1
 72
     7
 73
     5
 74
     0
 42
0.0000000001
 43
0.0000000001
 40
0.015300700351061
 40
0.015300700351061
 40
0.7094797857492431
 40
1.079850098840255
 40
1.774029184238437
 40
2.144399497329448
 40
2.144399497329448
 10
726.7585064698179
 20
100.3550834893015
 30
0.0
 10
729.4123758350423
 20
100.3550834893015
 30
0.0
 10
729.4123758350423
 20
101.7710213191441
 30
0.0
 10
726.7585064698179
 20
101.7710213191441
 30
0.0
 10
726.7585064698179
 20
100.3550834893015
 30
0.0
  0
LINE
  5
170
102
{ACAD_REACTORS
330
2A6
102
}
330
1F
100
AcDbEntity
  8
DXF_SILKSCREEN_TOP
100
AcDbLine
 10
729.4123758350423
 20
101.7710213191441
 30
0.0
 11
729.4708709133043
 21
101.8295163974061
 31
0.0
  0
LINE
  5
171
102
{ACAD_REACTORS
330
2A6
102
}
330
1F
100
AcDbEntity
  8
DXF_SILKSCREEN_TOP
100
AcDbLine
 10
729.4123758350423
 20
100.3550834893015
 30
0.0
 11
729.4708709133043
 21
100.2965884110395
 31
0.0
  0
LINE
  5
172
102
{ACAD_REACTORS
330
2A6
102
}
330
1F
100
AcDbEntity
  8
DXF_SILKSCREEN_TOP
100
AcDbLine
 10
726.7585064698179
 20
101.7710213191441
 30
0.0
 11
726.7000113915559
 21
101.8295163974061
 31
0.0
  0
LINE
  5
173
102
{ACAD_REACTORS
330
2A6
102
}
330
1F
100
AcDbEntity
  8
DXF_SILKSCREEN_TOP
100
AcDbLine
 10
726.7585064698179
 20
100.3550834893015
 30
0.0
 11
726.7000113915559
 21
100.2965884110395
 31
0.0
  0
MTEXT
  5
174
102
{ACAD_REACTORS
330
2A7
102
}
330
1F
100
AcDbEntity
  8
DXF_SILKSCREEN_TOP
100
AcDbMText
 10
724.3640524944752
 20
100.0169902001992
 30
0.0
 40
0.15
 41
0.48
 46
0.06
 71
     1
 72
     1
  1
3
  7
Default
 73
     1
 44
1.0
  0
MTEXT
  5
175
102
{ACAD_REACTORS
330
2A7
102
}
330
1F
100
AcDbEntity
  8
DXF_SILKSCREEN_TOP
100
AcDbMText
 10
725.2709360732212
 20
102.3411653165338
 30
0.0
 40
0.15
 41
0.42
 46
0.06
 71
     1
 72
     1
  1
1
  7
Default
 73
     1
 44
1.0
  0
MTEXT
  5
176
102
{ACAD_REACTORS
330
2A7
102
}
330
1F
100
AcDbEntity
  8
DXF_SILKSCREEN_TOP
100
AcDbMText
 10
723.417846047144
 20
102.3411653165338
 30
0.0
 40
0.15
 41
0.48
 46
0.06
 71
     1
 72
     1
  1
2
  7
Default
 73
     1
 44
1.0
  0
MTEXT
  5
177
102
{ACAD_REACTORS
330
2A7
102
}
330
1F
100
AcDbEntity
  8
DXF_SILKSCREEN_TOP
100
AcDbMText
 10
723.2330604802515
 20
101.341274265781
 30
0.0
 40
0.5564437231164313
 41
2.785591001782862
 46
0.2225774892465725
 71
     1
 72
     1
  1
ML
  7
Default
 73
     1
 44
1.0
  0
MTEXT
  5
178
102
{ACAD_REACTORS
330
2A7
102
}
330
1F
100
AcDbEntity
  8
DXF_SILKSCREEN_TOP
100
AcDbMText
 10
724.3442808797334
 20
101.6462795264437
 30
0.0
 40
0.1185650195252151
 41
0.3794080624806884
 46
0.047426007810086
 71
     1
 72
     1
  1
E
  7
Default
 73
     1
 44
1.0
  0
MTEXT
  5
179
102
{ACAD_REACTORS
330
2A7
102
}
330
1F
100
AcDbEntity
  8
DXF_SILKSCREEN_TOP
100
AcDbMText
 10
725.1939813300411
 20
101.2112505746383
 30
0.0
 40
0.1185650195252151
 41
0.4038396422616418
 46
0.047426007810086
 71
     1
 72
     1
  1
B
  7
Default
 73
     1
 44
1.0
  0
MTEXT
  5
17A
102
{ACAD_REACTORS
330
2A7
102
}
330
1F
100
AcDbEntity
  8
DXF_SILKSCREEN_TOP
100
AcDbMText
 10
724.3148537961946
 20
100.5553850652657
 30
0.0
 40
0.1185650195252151
 41
0.3794080624806884
 46
0.047426007810086
 71
     1
 72
     1
  1
C
  7
Default
 73
     1
 44
1.0
  0
SPLINE
  5
17B
102
{ACAD_REACTORS
330
2A7
102
}
330
1F
100
AcDbEntity
  8
DXF_SILKSCREEN_TOP
100
AcDbSpline
210
0.0
220
0.0
230
1.0
 70
     8
 71
     1
 72
     5
 73
     3
 74
     0
 42
0.0000000001
 43
0.0000000001
 40
0.0
 40
0.0
 40
0.708237789122677
 40
1.31605526757528
 40
1.31605526757528
 10
725.3082088004938
 20
101.771021319144
 30
0.0
 10
725.3082088004938
 20
101.0627835300214
 30
0.0
 10
724.7003913220414
 20
101.0627835300214
 30
0.0
  0
SPLINE
  5
17C
102
{ACAD_REACTORS
330
2A7
102
}
330
1F
100
AcDbEntity
  8
DXF_SILKSCREEN_TOP
100
AcDbSpline
210
0.0
220
0.0
230
1.0
 70
     8
 71
     1
 72
     6
 73
     4
 74
     0
 42
0.0000000001
 43
0.0000000001
 40
0.0
 40
0.0
 40
0.2754233249698927
 40
1.221629772300503
 40
1.294328943955236
 40
1.294328943955236
 10
723.4701187744168
 20
101.771021319144
 30
0.0
 10
723.4701187744168
 20
101.4955979941741
 30
0.0
 10
724.4163252217475
 20
101.4955979941741
 30
0.0
 10
724.4163252217475
 20
101.4228988225194
 30
0.0
  0
LINE
  5
17D
102
{ACAD_REACTORS
330
2A7
102
}
330
1F
100
AcDbEntity
  8
DXF_SILKSCREEN_TOP
100
AcDbLine
 10
724.4163252217478
 20
100.3550834893015
 30
0.0
 11
724.4163252217476
 21
100.629526414835
 31
0.0
  0
LINE
  5
17E
102
{ACAD_REACTORS
330
2A7
102
}
330
1F
100
AcDbEntity
  8
DXF_SILKSCREEN_TOP
100
AcDbLine
 10
724.538798439684
 20
101.3010601808416
 30
0.0
 11
724.7003913220414
 21
101.141069463173
 31
0.0
  0
LINE
  5
17F
102
{ACAD_REACTORS
330
2A7
102
}
330
1F
100
AcDbEntity
  8
DXF_SILKSCREEN_TOP
100
AcDbLine
 10
724.46360622342
 20
101.2254763384509
 30
0.0
 11
724.4163252217475
 21
101.4228988225194
 31
0.0
  0
LINE
  5
180
102
{ACAD_REACTORS
330
2A7
102
}
330
1F
100
AcDbEntity
  8
DXF_SILKSCREEN_TOP
100
AcDbLine
 10
724.61334766554
 20
101.3759976839153
 30
0.0
 11
724.4163252217475
 21
101.4228988225194
 31
0.0
  0
LINE
  5
181
102
{ACAD_REACTORS
330
2A7
102
}
330
1F
100
AcDbEntity
  8
DXF_SILKSCREEN_TOP
100
AcDbLine
 10
724.46360622342
 20
101.2254763384509
 30
0.0
 11
724.61334766554
 21
101.3759976839153
 31
0.0
  0
LINE
  5
182
102
{ACAD_REACTORS
330
2A7
102
}
330
1F
100
AcDbEntity
  8
DXF_SILKSCREEN_TOP
100
AcDbLine
 10
724.7003913220414
 20
100.7818841313847
 30
0.0
 11
724.7003913220414
 21
101.3490863712621
 31
0.0
  0
LINE
  5
183
102
{ACAD_REACTORS
330
2A7
102
}
330
1F
100
AcDbEntity
  8
DXF_SILKSCREEN_TOP
100
AcDbLine
 10
724.4163252217476
 20
100.7060233489439
 30
0.0
 11
724.7003913220414
 21
100.9844975968695
 31
0.0
  0
CIRCLE
  5
184
102
{ACAD_REACTORS
330
2A7
102
}
330
1F
100
AcDbEntity
  8
DXF_SILKSCREEN_TOP
100
AcDbCircle
 10
724.5455426409635
 20
101.0625622045046
 30
0.0
 40
0.4519039019123427
  0
LINE
  5
185
102
{ACAD_REACTORS
330
2A7
102
}
330
1F
100
AcDbEntity
  8
DXF_SILKSCREEN_TOP
100
AcDbLine
 10
724.4163252217476
 20
100.629526414835
 30
0.0
 11
724.4163252217476
 21
100.7060233489439
 31
0.0
  0
SPLINE
  5
186
102
{ACAD_REACTORS
330
2A7
102
}
330
1F
100
AcDbEntity
  8
DXF_SILKSCREEN_TOP
100
AcDbSpline
210
0.0
220
0.0
230
1.0
 70
    11
 71
     1
 72
     7
 73
     5
 74
     0
 42
0.0000000001
 43
0.0000000001
 40
0.0
 40
0.0
 40
0.0890118672761453
 40
0.1256786419522236
 40
0.2146905092283689
 40
0.2513572839044471
 40
0.2513572839044471
 10
724.2461775806893
 20
99.75165974316701
 30
0.0
 10
724.5864728628065
 20
99.75165974316701
 30
0.0
 10
724.5864728628065
 20
100.2965884110395
 30
0.0
 10
724.2461775806893
 20
100.2965884110395
 30
0.0
 10
724.2461775806893
 20
99.75165974316701
 30
0.0
  0
SPLINE
  5
187
102
{ACAD_REACTORS
330
2A7
102
}
330
1F
100
AcDbEntity
  8
DXF_SILKSCREEN_TOP
100
AcDbSpline
210
0.0
220
0.0
230
1.0
 70
    11
 71
     1
 72
     7
 73
     5
 74
     0
 42
0.0000000001
 43
0.0000000001
 40
0.0
 40
0.0
 40
0.0890118672761453
 40
0.1256786419522236
 40
0.2146905092283689
 40
0.2513572839044471
 40
0.2513572839044471
 10
725.1380611594351
 20
101.8295163974061
 30
0.0
 10
725.4783564415526
 20
101.8295163974061
 30
0.0
 10
725.4783564415526
 20
102.3744450652786
 30
0.0
 10
725.1380611594351
 20
102.3744450652786
 30
0.0
 10
725.1380611594351
 20
101.8295163974061
 30
0.0
  0
SPLINE
  5
188
102
{ACAD_REACTORS
330
2A7
102
}
330
1F
100
AcDbEntity
  8
DXF_SILKSCREEN_TOP
100
AcDbSpline
210
0.0
220
0.0
230
1.0
 70
    11
 71
     1
 72
     7
 73
     5
 74
     0
 42
0.0000000001
 43
0.0000000001
 40
0.0
 40
0.0
 40
0.0890118672761453
 40
0.1256786419522236
 40
0.2146905092283689
 40
0.2513572839044471
 40
0.2513572839044471
 10
723.2999711333581
 20
101.8295163974061
 30
0.0
 10
723.6402664154755
 20
101.8295163974061
 30
0.0
 10
723.6402664154755
 20
102.3744450652786
 30
0.0
 10
723.2999711333581
 20
102.3744450652786
 30
0.0
 10
723.2999711333581
 20
101.8295163974061
 30
0.0
  0
SPLINE
  5
189
102
{ACAD_REACTORS
330
2A7
102
}
330
1F
100
AcDbEntity
  8
DXF_SILKSCREEN_TOP
100
AcDbSpline
210
0.0
220
0.0
230
1.0
 70
    11
 71
     1
 72
     7
 73
     5
 74
     0
 42
0.0000000001
 43
0.0000000001
 40
0.0
 40
0.0
 40
0.724780486100304
 40
1.125752199893437
 40
1.850532685993741
 40
2.251504399786874
 40
2.251504399786874
 10
723.0308954608737
 20
100.2965884110395
 30
0.0
 10
725.8017549826221
 20
100.2965884110395
 30
0.0
 10
725.8017549826221
 20
101.8295163974061
 30
0.0
 10
723.0308954608737
 20
101.8295163974061
 30
0.0
 10
723.0308954608737
 20
100.2965884110395
 30
0.0
  0
SPLINE
  5
18A
102
{ACAD_REACTORS
330
2A7
102
}
330
1F
100
AcDbEntity
  8
DXF_SILKSCREEN_TOP
100
AcDbSpline
210
0.0
220
0.0
230
1.0
 70
    11
 71
     1
 72
     7
 73
     5
 74
     0
 42
0.0000000001
 43
0.0000000001
 40
0.015300700351061
 40
0.015300700351061
 40
0.7094797857492431
 40
1.079850098840255
 40
1.774029184238437
 40
2.144399497329448
 40
2.144399497329448
 10
723.0893905391356
 20
100.3550834893015
 30
0.0
 10
725.7432599043601
 20
100.3550834893015
 30
0.0
 10
725.7432599043601
 20
101.7710213191441
 30
0.0
 10
723.0893905391356
 20
101.7710213191441
 30
0.0
 10
723.0893905391356
 20
100.3550834893015
 30
0.0
  0
LINE
  5
18B
102
{ACAD_REACTORS
330
2A7
102
}
330
1F
100
AcDbEntity
  8
DXF_SILKSCREEN_TOP
100
AcDbLine
 10
725.7432599043601
 20
101.7710213191441
 30
0.0
 11
725.8017549826221
 21
101.8295163974061
 31
0.0
  0
LINE
  5
18C
102
{ACAD_REACTORS
330
2A7
102
}
330
1F
100
AcDbEntity
  8
DXF_SILKSCREEN_TOP
100
AcDbLine
 10
725.7432599043601
 20
100.3550834893015
 30
0.0
 11
725.8017549826221
 21
100.2965884110395
 31
0.0
  0
LINE
  5
18D
102
{ACAD_REACTORS
330
2A7
102
}
330
1F
100
AcDbEntity
  8
DXF_SILKSCREEN_TOP
100
AcDbLine
 10
723.0893905391356
 20
101.7710213191441
 30
0.0
 11
723.0308954608737
 21
101.8295163974061
 31
0.0
  0
LINE
  5
18E
102
{ACAD_REACTORS
330
2A7
102
}
330
1F
100
AcDbEntity
  8
DXF_SILKSCREEN_TOP
100
AcDbLine
 10
723.0893905391356
 20
100.3550834893015
 30
0.0
 11
723.0308954608737
 21
100.2965884110395
 31
0.0
  0
MTEXT
  5
18F
102
{ACAD_REACTORS
330
2A8
102
}
330
1F
100
AcDbEntity
  8
DXF_SILKSCREEN_TOP
100
AcDbMText
 10
720.5185771209699
 20
100.0169902001992
 30
0.0
 40
0.15
 41
0.48
 46
0.06
 71
     1
 72
     1
  1
3
  7
Default
 73
     1
 44
1.0
  0
MTEXT
  5
190
102
{ACAD_REACTORS
330
2A8
102
}
330
1F
100
AcDbEntity
  8
DXF_SILKSCREEN_TOP
100
AcDbMText
 10
721.4254606997157
 20
102.3411653165338
 30
0.0
 40
0.15
 41
0.42
 46
0.06
 71
     1
 72
     1
  1
1
  7
Default
 73
     1
 44
1.0
  0
MTEXT
  5
191
102
{ACAD_REACTORS
330
2A8
102
}
330
1F
100
AcDbEntity
  8
DXF_SILKSCREEN_TOP
100
AcDbMText
 10
719.5723706736388
 20
102.3411653165338
 30
0.0
 40
0.15
 41
0.48
 46
0.06
 71
     1
 72
     1
  1
2
  7
Default
 73
     1
 44
1.0
  0
MTEXT
  5
192
102
{ACAD_REACTORS
330
2A8
102
}
330
1F
100
AcDbEntity
  8
DXF_SILKSCREEN_TOP
100
AcDbMText
 10
719.3875851067461
 20
101.341274265781
 30
0.0
 40
0.5564437231164313
 41
2.785591001782862
 46
0.2225774892465725
 71
     1
 72
     1
  1
ML
  7
Default
 73
     1
 44
1.0
  0
MTEXT
  5
193
102
{ACAD_REACTORS
330
2A8
102
}
330
1F
100
AcDbEntity
  8
DXF_SILKSCREEN_TOP
100
AcDbMText
 10
720.498805506228
 20
101.6462795264437
 30
0.0
 40
0.1185650195252151
 41
0.3794080624806884
 46
0.047426007810086
 71
     1
 72
     1
  1
E
  7
Default
 73
     1
 44
1.0
  0
MTEXT
  5
194
102
{ACAD_REACTORS
330
2A8
102
}
330
1F
100
AcDbEntity
  8
DXF_SILKSCREEN_TOP
100
AcDbMText
 10
721.3485059565359
 20
101.2112505746383
 30
0.0
 40
0.1185650195252151
 41
0.4038396422616418
 46
0.047426007810086
 71
     1
 72
     1
  1
B
  7
Default
 73
     1
 44
1.0
  0
MTEXT
  5
195
102
{ACAD_REACTORS
330
2A8
102
}
330
1F
100
AcDbEntity
  8
DXF_SILKSCREEN_TOP
100
AcDbMText
 10
720.4693784226894
 20
100.5553850652657
 30
0.0
 40
0.1185650195252151
 41
0.3794080624806884
 46
0.047426007810086
 71
     1
 72
     1
  1
C
  7
Default
 73
     1
 44
1.0
  0
SPLINE
  5
196
102
{ACAD_REACTORS
330
2A8
102
}
330
1F
100
AcDbEntity
  8
DXF_SILKSCREEN_TOP
100
AcDbSpline
210
0.0
220
0.0
230
1.0
 70
     8
 71
     1
 72
     5
 73
     3
 74
     0
 42
0.0000000001
 43
0.0000000001
 40
0.0
 40
0.0
 40
0.708237789122677
 40
1.31605526757528
 40
1.31605526757528
 10
721.4627334269885
 20
101.771021319144
 30
0.0
 10
721.4627334269886
 20
101.0627835300214
 30
0.0
 10
720.8549159485359
 20
101.0627835300214
 30
0.0
  0
SPLINE
  5
197
102
{ACAD_REACTORS
330
2A8
102
}
330
1F
100
AcDbEntity
  8
DXF_SILKSCREEN_TOP
100
AcDbSpline
210
0.0
220
0.0
230
1.0
 70
     8
 71
     1
 72
     6
 73
     4
 74
     0
 42
0.0000000001
 43
0.0000000001
 40
0.0
 40
0.0
 40
0.2754233249698927
 40
1.221629772300503
 40
1.294328943955236
 40
1.294328943955236
 10
719.6246434009115
 20
101.771021319144
 30
0.0
 10
719.6246434009115
 20
101.4955979941741
 30
0.0
 10
720.5708498482421
 20
101.4955979941741
 30
0.0
 10
720.5708498482421
 20
101.4228988225194
 30
0.0
  0
LINE
  5
198
102
{ACAD_REACTORS
330
2A8
102
}
330
1F
100
AcDbEntity
  8
DXF_SILKSCREEN_TOP
100
AcDbLine
 10
720.5708498482426
 20
100.3550834893015
 30
0.0
 11
720.5708498482423
 21
100.629526414835
 31
0.0
  0
LINE
  5
199
102
{ACAD_REACTORS
330
2A8
102
}
330
1F
100
AcDbEntity
  8
DXF_SILKSCREEN_TOP
100
AcDbLine
 10
720.6933230661788
 20
101.3010601808416
 30
0.0
 11
720.8549159485359
 21
101.141069463173
 31
0.0
  0
LINE
  5
19A
102
{ACAD_REACTORS
330
2A8
102
}
330
1F
100
AcDbEntity
  8
DXF_SILKSCREEN_TOP
100
AcDbLine
 10
720.6181308499147
 20
101.2254763384509
 30
0.0
 11
720.5708498482421
 21
101.4228988225194
 31
0.0
  0
LINE
  5
19B
102
{ACAD_REACTORS
330
2A8
102
}
330
1F
100
AcDbEntity
  8
DXF_SILKSCREEN_TOP
100
AcDbLine
 10
720.7678722920347
 20
101.3759976839153
 30
0.0
 11
720.5708498482421
 21
101.4228988225194
 31
0.0
  0
LINE
  5
19C
102
{ACAD_REACTORS
330
2A8
102
}
330
1F
100
AcDbEntity
  8
DXF_SILKSCREEN_TOP
100
AcDbLine
 10
720.6181308499147
 20
101.2254763384509
 30
0.0
 11
720.7678722920347
 21
101.3759976839153
 31
0.0
  0
LINE
  5
19D
102
{ACAD_REACTORS
330
2A8
102
}
330
1F
100
AcDbEntity
  8
DXF_SILKSCREEN_TOP
100
AcDbLine
 10
720.8549159485359
 20
100.7818841313847
 30
0.0
 11
720.8549159485359
 21
101.3490863712621
 31
0.0
  0
LINE
  5
19E
102
{ACAD_REACTORS
330
2A8
102
}
330
1F
100
AcDbEntity
  8
DXF_SILKSCREEN_TOP
100
AcDbLine
 10
720.5708498482423
 20
100.7060233489439
 30
0.0
 11
720.8549159485359
 21
100.9844975968695
 31
0.0
  0
CIRCLE
  5
19F
102
{ACAD_REACTORS
330
2A8
102
}
330
1F
100
AcDbEntity
  8
DXF_SILKSCREEN_TOP
100
AcDbCircle
 10
720.7000672674582
 20
101.0625622045047
 30
0.0
 40
0.4519039019122953
  0
LINE
  5
1A0
102
{ACAD_REACTORS
330
2A8
102
}
330
1F
100
AcDbEntity
  8
DXF_SILKSCREEN_TOP
100
AcDbLine
 10
720.5708498482423
 20
100.629526414835
 30
0.0
 11
720.5708498482423
 21
100.7060233489439
 31
0.0
  0
SPLINE
  5
1A1
102
{ACAD_REACTORS
330
2A8
102
}
330
1F
100
AcDbEntity
  8
DXF_SILKSCREEN_TOP
100
AcDbSpline
210
0.0
220
0.0
230
1.0
 70
    11
 71
     1
 72
     7
 73
     5
 74
     0
 42
0.0000000001
 43
0.0000000001
 40
0.0
 40
0.0
 40
0.0890118672761453
 40
0.1256786419522236
 40
0.2146905092283689
 40
0.2513572839044471
 40
0.2513572839044471
 10
720.4007022071838
 20
99.75165974316701
 30
0.0
 10
720.7409974893013
 20
99.75165974316701
 30
0.0
 10
720.7409974893013
 20
100.2965884110395
 30
0.0
 10
720.4007022071838
 20
100.2965884110395
 30
0.0
 10
720.4007022071838
 20
99.75165974316701
 30
0.0
  0
SPLINE
  5
1A2
102
{ACAD_REACTORS
330
2A8
102
}
330
1F
100
AcDbEntity
  8
DXF_SILKSCREEN_TOP
100
AcDbSpline
210
0.0
220
0.0
230
1.0
 70
    11
 71
     1
 72
     7
 73
     5
 74
     0
 42
0.0000000001
 43
0.0000000001
 40
0.0
 40
0.0
 40
0.0890118672761453
 40
0.1256786419522236
 40
0.2146905092283689
 40
0.2513572839044471
 40
0.2513572839044471
 10
721.2925857859298
 20
101.8295163974061
 30
0.0
 10
721.6328810680471
 20
101.8295163974061
 30
0.0
 10
721.6328810680471
 20
102.3744450652786
 30
0.0
 10
721.2925857859298
 20
102.3744450652786
 30
0.0
 10
721.2925857859298
 20
101.8295163974061
 30
0.0
  0
SPLINE
  5
1A3
102
{ACAD_REACTORS
330
2A8
102
}
330
1F
100
AcDbEntity
  8
DXF_SILKSCREEN_TOP
100
AcDbSpline
210
0.0
220
0.0
230
1.0
 70
    11
 71
     1
 72
     7
 73
     5
 74
     0
 42
0.0000000001
 43
0.0000000001
 40
0.0
 40
0.0
 40
0.0890118672761453
 40
0.1256786419522236
 40
0.2146905092283689
 40
0.2513572839044471
 40
0.2513572839044471
 10
719.4544957598529
 20
101.8295163974061
 30
0.0
 10
719.7947910419701
 20
101.8295163974061
 30
0.0
 10
719.7947910419701
 20
102.3744450652786
 30
0.0
 10
719.4544957598529
 20
102.3744450652786
 30
0.0
 10
719.4544957598529
 20
101.8295163974061
 30
0.0
  0
SPLINE
  5
1A4
102
{ACAD_REACTORS
330
2A8
102
}
330
1F
100
AcDbEntity
  8
DXF_SILKSCREEN_TOP
100
AcDbSpline
210
0.0
220
0.0
230
1.0
 70
    11
 71
     1
 72
     7
 73
     5
 74
     0
 42
0.0000000001
 43
0.0000000001
 40
0.0
 40
0.0
 40
0.724780486100304
 40
1.125752199893437
 40
1.850532685993741
 40
2.251504399786874
 40
2.251504399786874
 10
719.1854200873682
 20
100.2965884110395
 30
0.0
 10
721.9562796091167
 20
100.2965884110395
 30
0.0
 10
721.9562796091167
 20
101.8295163974061
 30
0.0
 10
719.1854200873682
 20
101.8295163974061
 30
0.0
 10
719.1854200873682
 20
100.2965884110395
 30
0.0
  0
SPLINE
  5
1A5
102
{ACAD_REACTORS
330
2A8
102
}
330
1F
100
AcDbEntity
  8
DXF_SILKSCREEN_TOP
100
AcDbSpline
210
0.0
220
0.0
230
1.0
 70
    11
 71
     1
 72
     7
 73
     5
 74
     0
 42
0.0000000001
 43
0.0000000001
 40
0.015300700351061
 40
0.015300700351061
 40
0.7094797857492431
 40
1.079850098840255
 40
1.774029184238437
 40
2.144399497329448
 40
2.144399497329448
 10
719.2439151656303
 20
100.3550834893015
 30
0.0
 10
721.8977845308548
 20
100.3550834893015
 30
0.0
 10
721.8977845308548
 20
101.7710213191441
 30
0.0
 10
719.2439151656303
 20
101.7710213191441
 30
0.0
 10
719.2439151656303
 20
100.3550834893015
 30
0.0
  0
LINE
  5
1A6
102
{ACAD_REACTORS
330
2A8
102
}
330
1F
100
AcDbEntity
  8
DXF_SILKSCREEN_TOP
100
AcDbLine
 10
721.8977845308548
 20
101.7710213191441
 30
0.0
 11
721.9562796091167
 21
101.8295163974061
 31
0.0
  0
LINE
  5
1A7
102
{ACAD_REACTORS
330
2A8
102
}
330
1F
100
AcDbEntity
  8
DXF_SILKSCREEN_TOP
100
AcDbLine
 10
721.8977845308548
 20
100.3550834893015
 30
0.0
 11
721.9562796091167
 21
100.2965884110395
 31
0.0
  0
LINE
  5
1A8
102
{ACAD_REACTORS
330
2A8
102
}
330
1F
100
AcDbEntity
  8
DXF_SILKSCREEN_TOP
100
AcDbLine
 10
719.2439151656303
 20
101.7710213191441
 30
0.0
 11
719.1854200873682
 21
101.8295163974061
 31
0.0
  0
LINE
  5
1A9
102
{ACAD_REACTORS
330
2A8
102
}
330
1F
100
AcDbEntity
  8
DXF_SILKSCREEN_TOP
100
AcDbLine
 10
719.2439151656303
 20
100.3550834893015
 30
0.0
 11
719.1854200873682
 21
100.2965884110395
 31
0.0
  0
MTEXT
  5
1AA
102
{ACAD_REACTORS
330
2A9
102
}
330
1F
100
AcDbEntity
  8
DXF_SILKSCREEN_TOP
100
AcDbMText
 10
725.1577472134633
 20
106.1393211435456
 30
0.0
 40
0.15
 41
0.48
 46
0.06
 71
     1
 72
     1
  1
3
  7
Default
 73
     1
 44
1.0
  0
MTEXT
  5
1AB
102
{ACAD_REACTORS
330
2A9
102
}
330
1F
100
AcDbEntity
  8
DXF_SILKSCREEN_TOP
100
AcDbMText
 10
726.0646307922092
 20
108.4634962598802
 30
0.0
 40
0.15
 41
0.42
 46
0.06
 71
     1
 72
     1
  1
1
  7
Default
 73
     1
 44
1.0
  0
MTEXT
  5
1AC
102
{ACAD_REACTORS
330
2A9
102
}
330
1F
100
AcDbEntity
  8
DXF_SILKSCREEN_TOP
100
AcDbMText
 10
724.2115407661321
 20
108.4634962598802
 30
0.0
 40
0.15
 41
0.48
 46
0.06
 71
     1
 72
     1
  1
2
  7
Default
 73
     1
 44
1.0
  0
MTEXT
  5
1AD
102
{ACAD_REACTORS
330
2A9
102
}
330
1F
100
AcDbEntity
  8
DXF_SILKSCREEN_TOP
100
AcDbMText
 10
724.0267551992396
 20
107.4636052091275
 30
0.0
 40
0.5564437231164313
 41
2.785591001782862
 46
0.2225774892465725
 71
     1
 72
     1
  1
ML
  7
Default
 73
     1
 44
1.0
  0
MTEXT
  5
1AE
102
{ACAD_REACTORS
330
2A9
102
}
330
1F
100
AcDbEntity
  8
DXF_SILKSCREEN_TOP
100
AcDbMText
 10
725.1379755987215
 20
107.7686104697902
 30
0.0
 40
0.1185650195252151
 41
0.3794080624806884
 46
0.047426007810086
 71
     1
 72
     1
  1
E
  7
Default
 73
     1
 44
1.0
  0
MTEXT
  5
1AF
102
{ACAD_REACTORS
330
2A9
102
}
330
1F
100
AcDbEntity
  8
DXF_SILKSCREEN_TOP
100
AcDbMText
 10
725.9876760490291
 20
107.3335815179848
 30
0.0
 40
0.1185650195252151
 41
0.4038396422616418
 46
0.047426007810086
 71
     1
 72
     1
  1
B
  7
Default
 73
     1
 44
1.0
  0
MTEXT
  5
1B0
102
{ACAD_REACTORS
330
2A9
102
}
330
1F
100
AcDbEntity
  8
DXF_SILKSCREEN_TOP
100
AcDbMText
 10
725.1085485151826
 20
106.6777160086122
 30
0.0
 40
0.1185650195252151
 41
0.3794080624806884
 46
0.047426007810086
 71
     1
 72
     1
  1
C
  7
Default
 73
     1
 44
1.0
  0
SPLINE
  5
1B1
102
{ACAD_REACTORS
330
2A9
102
}
330
1F
100
AcDbEntity
  8
DXF_SILKSCREEN_TOP
100
AcDbSpline
210
0.0
220
0.0
230
1.0
 70
     8
 71
     1
 72
     5
 73
     3
 74
     0
 42
0.0000000001
 43
0.0000000001
 40
0.0
 40
0.0
 40
0.708237789122677
 40
1.31605526757528
 40
1.31605526757528
 10
726.1019035194819
 20
107.8933522624905
 30
0.0
 10
726.1019035194819
 20
107.1851144733678
 30
0.0
 10
725.4940860410294
 20
107.1851144733678
 30
0.0
  0
SPLINE
  5
1B2
102
{ACAD_REACTORS
330
2A9
102
}
330
1F
100
AcDbEntity
  8
DXF_SILKSCREEN_TOP
100
AcDbSpline
210
0.0
220
0.0
230
1.0
 70
     8
 71
     1
 72
     6
 73
     4
 74
     0
 42
0.0000000001
 43
0.0000000001
 40
0.0
 40
0.0
 40
0.2754233249698927
 40
1.221629772300503
 40
1.294328943955236
 40
1.294328943955236
 10
724.2638134934049
 20
107.8933522624905
 30
0.0
 10
724.2638134934049
 20
107.6179289375206
 30
0.0
 10
725.2100199407355
 20
107.6179289375206
 30
0.0
 10
725.2100199407355
 20
107.5452297658659
 30
0.0
  0
LINE
  5
1B3
102
{ACAD_REACTORS
330
2A9
102
}
330
1F
100
AcDbEntity
  8
DXF_SILKSCREEN_TOP
100
AcDbLine
 10
725.2100199407358
 20
106.4774144326479
 30
0.0
 11
725.2100199407356
 21
106.7518573581814
 31
0.0
  0
LINE
  5
1B4
102
{ACAD_REACTORS
330
2A9
102
}
330
1F
100
AcDbEntity
  8
DXF_SILKSCREEN_TOP
100
AcDbLine
 10
725.332493158672
 20
107.423391124188
 30
0.0
 11
725.4940860410294
 21
107.2634004065194
 31
0.0
  0
LINE
  5
1B5
102
{ACAD_REACTORS
330
2A9
102
}
330
1F
100
AcDbEntity
  8
DXF_SILKSCREEN_TOP
100
AcDbLine
 10
725.257300942408
 20
107.3478072817973
 30
0.0
 11
725.2100199407355
 21
107.5452297658659
 31
0.0
  0
LINE
  5
1B6
102
{ACAD_REACTORS
330
2A9
102
}
330
1F
100
AcDbEntity
  8
DXF_SILKSCREEN_TOP
100
AcDbLine
 10
725.407042384528
 20
107.4983286272617
 30
0.0
 11
725.2100199407355
 21
107.5452297658659
 31
0.0
  0
LINE
  5
1B7
102
{ACAD_REACTORS
330
2A9
102
}
330
1F
100
AcDbEntity
  8
DXF_SILKSCREEN_TOP
100
AcDbLine
 10
725.257300942408
 20
107.3478072817973
 30
0.0
 11
725.407042384528
 21
107.4983286272617
 31
0.0
  0
LINE
  5
1B8
102
{ACAD_REACTORS
330
2A9
102
}
330
1F
100
AcDbEntity
  8
DXF_SILKSCREEN_TOP
100
AcDbLine
 10
725.4940860410294
 20
106.9042150747312
 30
0.0
 11
725.4940860410294
 21
107.4714173146085
 31
0.0
  0
LINE
  5
1B9
102
{ACAD_REACTORS
330
2A9
102
}
330
1F
100
AcDbEntity
  8
DXF_SILKSCREEN_TOP
100
AcDbLine
 10
725.2100199407356
 20
106.8283542922904
 30
0.0
 11
725.4940860410294
 21
107.106828540216
 31
0.0
  0
CIRCLE
  5
1BA
102
{ACAD_REACTORS
330
2A9
102
}
330
1F
100
AcDbEntity
  8
DXF_SILKSCREEN_TOP
100
AcDbCircle
 10
725.3392373599514
 20
107.184893147851
 30
0.0
 40
0.4519039019124231
  0
LINE
  5
1BB
102
{ACAD_REACTORS
330
2A9
102
}
330
1F
100
AcDbEntity
  8
DXF_SILKSCREEN_TOP
100
AcDbLine
 10
725.2100199407356
 20
106.7518573581814
 30
0.0
 11
725.2100199407356
 21
106.8283542922904
 31
0.0
  0
SPLINE
  5
1BC
102
{ACAD_REACTORS
330
2A9
102
}
330
1F
100
AcDbEntity
  8
DXF_SILKSCREEN_TOP
100
AcDbSpline
210
0.0
220
0.0
230
1.0
 70
    11
 71
     1
 72
     7
 73
     5
 74
     0
 42
0.0000000001
 43
0.0000000001
 40
0.0
 40
0.0
 40
0.0890118672761453
 40
0.1256786419522236
 40
0.2146905092283689
 40
0.2513572839044471
 40
0.2513572839044471
 10
725.0398722996773
 20
105.8739906865135
 30
0.0
 10
725.3801675817946
 20
105.8739906865135
 30
0.0
 10
725.3801675817946
 20
106.418919354386
 30
0.0
 10
725.0398722996773
 20
106.418919354386
 30
0.0
 10
725.0398722996773
 20
105.8739906865135
 30
0.0
  0
SPLINE
  5
1BD
102
{ACAD_REACTORS
330
2A9
102
}
330
1F
100
AcDbEntity
  8
DXF_SILKSCREEN_TOP
100
AcDbSpline
210
0.0
220
0.0
230
1.0
 70
    11
 71
     1
 72
     7
 73
     5
 74
     0
 42
0.0000000001
 43
0.0000000001
 40
0.0
 40
0.0
 40
0.0890118672761453
 40
0.1256786419522236
 40
0.2146905092283689
 40
0.2513572839044471
 40
0.2513572839044471
 10
725.9317558784231
 20
107.9518473407525
 30
0.0
 10
726.2720511605406
 20
107.9518473407525
 30
0.0
 10
726.2720511605406
 20
108.496776008625
 30
0.0
 10
725.9317558784231
 20
108.496776008625
 30
0.0
 10
725.9317558784231
 20
107.9518473407525
 30
0.0
  0
SPLINE
  5
1BE
102
{ACAD_REACTORS
330
2A9
102
}
330
1F
100
AcDbEntity
  8
DXF_SILKSCREEN_TOP
100
AcDbSpline
210
0.0
220
0.0
230
1.0
 70
    11
 71
     1
 72
     7
 73
     5
 74
     0
 42
0.0000000001
 43
0.0000000001
 40
0.0
 40
0.0
 40
0.0890118672761453
 40
0.1256786419522236
 40
0.2146905092283689
 40
0.2513572839044471
 40
0.2513572839044471
 10
724.0936658523461
 20
107.9518473407525
 30
0.0
 10
724.4339611344635
 20
107.9518473407525
 30
0.0
 10
724.4339611344635
 20
108.496776008625
 30
0.0
 10
724.0936658523461
 20
108.496776008625
 30
0.0
 10
724.0936658523461
 20
107.9518473407525
 30
0.0
  0
SPLINE
  5
1BF
102
{ACAD_REACTORS
330
2A9
102
}
330
1F
100
AcDbEntity
  8
DXF_SILKSCREEN_TOP
100
AcDbSpline
210
0.0
220
0.0
230
1.0
 70
    11
 71
     1
 72
     7
 73
     5
 74
     0
 42
0.0000000001
 43
0.0000000001
 40
0.0
 40
0.0
 40
0.724780486100304
 40
1.125752199893437
 40
1.850532685993741
 40
2.251504399786874
 40
2.251504399786874
 10
723.8245901798617
 20
106.418919354386
 30
0.0
 10
726.5954497016102
 20
106.418919354386
 30
0.0
 10
726.5954497016102
 20
107.9518473407525
 30
0.0
 10
723.8245901798617
 20
107.9518473407525
 30
0.0
 10
723.8245901798617
 20
106.418919354386
 30
0.0
  0
SPLINE
  5
1C0
102
{ACAD_REACTORS
330
2A9
102
}
330
1F
100
AcDbEntity
  8
DXF_SILKSCREEN_TOP
100
AcDbSpline
210
0.0
220
0.0
230
1.0
 70
    11
 71
     1
 72
     7
 73
     5
 74
     0
 42
0.0000000001
 43
0.0000000001
 40
0.015300700351061
 40
0.015300700351061
 40
0.7094797857492431
 40
1.079850098840255
 40
1.774029184238437
 40
2.144399497329448
 40
2.144399497329448
 10
723.8830852581236
 20
106.4774144326479
 30
0.0
 10
726.5369546233482
 20
106.4774144326479
 30
0.0
 10
726.5369546233482
 20
107.8933522624905
 30
0.0
 10
723.8830852581236
 20
107.8933522624905
 30
0.0
 10
723.8830852581236
 20
106.4774144326479
 30
0.0
  0
LINE
  5
1C1
102
{ACAD_REACTORS
330
2A9
102
}
330
1F
100
AcDbEntity
  8
DXF_SILKSCREEN_TOP
100
AcDbLine
 10
726.5369546233482
 20
107.8933522624905
 30
0.0
 11
726.5954497016102
 21
107.9518473407525
 31
0.0
  0
LINE
  5
1C2
102
{ACAD_REACTORS
330
2A9
102
}
330
1F
100
AcDbEntity
  8
DXF_SILKSCREEN_TOP
100
AcDbLine
 10
726.5369546233482
 20
106.4774144326479
 30
0.0
 11
726.5954497016102
 21
106.418919354386
 31
0.0
  0
LINE
  5
1C3
102
{ACAD_REACTORS
330
2A9
102
}
330
1F
100
AcDbEntity
  8
DXF_SILKSCREEN_TOP
100
AcDbLine
 10
723.8830852581236
 20
107.8933522624905
 30
0.0
 11
723.8245901798617
 21
107.9518473407525
 31
0.0
  0
LINE
  5
1C4
102
{ACAD_REACTORS
330
2A9
102
}
330
1F
100
AcDbEntity
  8
DXF_SILKSCREEN_TOP
100
AcDbLine
 10
723.8830852581236
 20
106.4774144326479
 30
0.0
 11
723.8245901798617
 21
106.418919354386
 31
0.0
  0
MTEXT
  5
1C5
102
{ACAD_REACTORS
330
2AE
102
}
330
1F
100
AcDbEntity
  8
DXF_SILKSCREEN_TOP
100
AcDbMText
 10
721.5794129297002
 20
106.1393211435456
 30
0.0
 40
0.15
 41
0.48
 46
0.06
 71
     1
 72
     1
  1
3
  7
Default
 73
     1
 44
1.0
  0
MTEXT
  5
1C6
102
{ACAD_REACTORS
330
2AE
102
}
330
1F
100
AcDbEntity
  8
DXF_SILKSCREEN_TOP
100
AcDbMText
 10
722.4862965084461
 20
108.4634962598802
 30
0.0
 40
0.15
 41
0.42
 46
0.06
 71
     1
 72
     1
  1
1
  7
Default
 73
     1
 44
1.0
  0
MTEXT
  5
1C7
102
{ACAD_REACTORS
330
2AE
102
}
330
1F
100
AcDbEntity
  8
DXF_SILKSCREEN_TOP
100
AcDbMText
 10
720.633206482369
 20
108.4634962598802
 30
0.0
 40
0.15
 41
0.48
 46
0.06
 71
     1
 72
     1
  1
2
  7
Default
 73
     1
 44
1.0
  0
MTEXT
  5
1C8
102
{ACAD_REACTORS
330
2AE
102
}
330
1F
100
AcDbEntity
  8
DXF_SILKSCREEN_TOP
100
AcDbMText
 10
720.4484209154765
 20
107.4636052091275
 30
0.0
 40
0.5564437231164313
 41
2.785591001782862
 46
0.2225774892465725
 71
     1
 72
     1
  1
ML
  7
Default
 73
     1
 44
1.0
  0
MTEXT
  5
1C9
102
{ACAD_REACTORS
330
2AE
102
}
330
1F
100
AcDbEntity
  8
DXF_SILKSCREEN_TOP
100
AcDbMText
 10
721.5596413149584
 20
107.7686104697902
 30
0.0
 40
0.1185650195252151
 41
0.3794080624806884
 46
0.047426007810086
 71
     1
 72
     1
  1
E
  7
Default
 73
     1
 44
1.0
  0
MTEXT
  5
1CA
102
{ACAD_REACTORS
330
2AE
102
}
330
1F
100
AcDbEntity
  8
DXF_SILKSCREEN_TOP
100
AcDbMText
 10
722.409341765266
 20
107.3335815179848
 30
0.0
 40
0.1185650195252151
 41
0.4038396422616418
 46
0.047426007810086
 71
     1
 72
     1
  1
B
  7
Default
 73
     1
 44
1.0
  0
MTEXT
  5
1CB
102
{ACAD_REACTORS
330
2AE
102
}
330
1F
100
AcDbEntity
  8
DXF_SILKSCREEN_TOP
100
AcDbMText
 10
721.5302142314196
 20
106.6777160086122
 30
0.0
 40
0.1185650195252151
 41
0.3794080624806884
 46
0.047426007810086
 71
     1
 72
     1
  1
C
  7
Default
 73
     1
 44
1.0
  0
MTEXT
  5
1CC
102
{ACAD_REACTORS
330
2AE
102
}
330
1F
100
AcDbEntity
  8
DXF_SILKSCREEN_TOP
100
AcDbMText
 10
722.3396216926159
 20
106.9431215253674
 30
0.0
 40
0.4
 41
1.92
 46
0.16
 71
     1
 72
     1
  1
T2
  7
Default
 73
     1
 44
1.0
  0
SPLINE
  5
1CD
102
{ACAD_REACTORS
330
2AE
102
}
330
1F
100
AcDbEntity
  8
DXF_SILKSCREEN_TOP
100
AcDbSpline
210
0.0
220
0.0
230
1.0
 70
     8
 71
     1
 72
     5
 73
     3
 74
     0
 42
0.0000000001
 43
0.0000000001
 40
0.0
 40
0.0
 40
0.708237789122677
 40
1.31605526757528
 40
1.31605526757528
 10
722.5235692357188
 20
107.8933522624905
 30
0.0
 10
722.5235692357188
 20
107.1851144733678
 30
0.0
 10
721.9157517572663
 20
107.1851144733678
 30
0.0
  0
SPLINE
  5
1CE
102
{ACAD_REACTORS
330
2AE
102
}
330
1F
100
AcDbEntity
  8
DXF_SILKSCREEN_TOP
100
AcDbSpline
210
0.0
220
0.0
230
1.0
 70
     8
 71
     1
 72
     6
 73
     4
 74
     0
 42
0.0000000001
 43
0.0000000001
 40
0.0
 40
0.0
 40
0.2754233249698927
 40
1.221629772300503
 40
1.294328943955236
 40
1.294328943955236
 10
720.6854792096418
 20
107.8933522624905
 30
0.0
 10
720.6854792096418
 20
107.6179289375206
 30
0.0
 10
721.6316856569724
 20
107.6179289375206
 30
0.0
 10
721.6316856569724
 20
107.5452297658659
 30
0.0
  0
LINE
  5
1CF
102
{ACAD_REACTORS
330
2AE
102
}
330
1F
100
AcDbEntity
  8
DXF_SILKSCREEN_TOP
100
AcDbLine
 10
721.6316856569728
 20
106.4774144326479
 30
0.0
 11
721.6316856569725
 21
106.7518573581814
 31
0.0
  0
LINE
  5
1D0
102
{ACAD_REACTORS
330
2AE
102
}
330
1F
100
AcDbEntity
  8
DXF_SILKSCREEN_TOP
100
AcDbLine
 10
721.754158874909
 20
107.423391124188
 30
0.0
 11
721.9157517572663
 21
107.2634004065194
 31
0.0
  0
LINE
  5
1D1
102
{ACAD_REACTORS
330
2AE
102
}
330
1F
100
AcDbEntity
  8
DXF_SILKSCREEN_TOP
100
AcDbLine
 10
721.678966658645
 20
107.3478072817973
 30
0.0
 11
721.6316856569724
 21
107.5452297658659
 31
0.0
  0
LINE
  5
1D2
102
{ACAD_REACTORS
330
2AE
102
}
330
1F
100
AcDbEntity
  8
DXF_SILKSCREEN_TOP
100
AcDbLine
 10
721.828708100765
 20
107.4983286272617
 30
0.0
 11
721.6316856569724
 21
107.5452297658659
 31
0.0
  0
LINE
  5
1D3
102
{ACAD_REACTORS
330
2AE
102
}
330
1F
100
AcDbEntity
  8
DXF_SILKSCREEN_TOP
100
AcDbLine
 10
721.678966658645
 20
107.3478072817973
 30
0.0
 11
721.828708100765
 21
107.4983286272617
 31
0.0
  0
LINE
  5
1D4
102
{ACAD_REACTORS
330
2AE
102
}
330
1F
100
AcDbEntity
  8
DXF_SILKSCREEN_TOP
100
AcDbLine
 10
721.9157517572663
 20
106.9042150747312
 30
0.0
 11
721.9157517572663
 21
107.4714173146085
 31
0.0
  0
LINE
  5
1D5
102
{ACAD_REACTORS
330
2AE
102
}
330
1F
100
AcDbEntity
  8
DXF_SILKSCREEN_TOP
100
AcDbLine
 10
721.6316856569725
 20
106.8283542922904
 30
0.0
 11
721.9157517572663
 21
107.106828540216
 31
0.0
  0
CIRCLE
  5
1D6
102
{ACAD_REACTORS
330
2AE
102
}
330
1F
100
AcDbEntity
  8
DXF_SILKSCREEN_TOP
100
AcDbCircle
 10
721.7609030761885
 20
107.1848931478511
 30
0.0
 40
0.4519039019123144
  0
LINE
  5
1D7
102
{ACAD_REACTORS
330
2AE
102
}
330
1F
100
AcDbEntity
  8
DXF_SILKSCREEN_TOP
100
AcDbLine
 10
721.6316856569725
 20
106.7518573581814
 30
0.0
 11
721.6316856569725
 21
106.8283542922904
 31
0.0
  0
SPLINE
  5
1D8
102
{ACAD_REACTORS
330
2AE
102
}
330
1F
100
AcDbEntity
  8
DXF_SILKSCREEN_TOP
100
AcDbSpline
210
0.0
220
0.0
230
1.0
 70
    11
 71
     1
 72
     7
 73
     5
 74
     0
 42
0.0000000001
 43
0.0000000001
 40
0.0
 40
0.0
 40
0.0890118672761453
 40
0.1256786419522236
 40
0.2146905092283689
 40
0.2513572839044471
 40
0.2513572839044471
 10
721.4615380159142
 20
105.8739906865135
 30
0.0
 10
721.8018332980315
 20
105.8739906865135
 30
0.0
 10
721.8018332980315
 20
106.418919354386
 30
0.0
 10
721.4615380159142
 20
106.418919354386
 30
0.0
 10
721.4615380159142
 20
105.8739906865135
 30
0.0
  0
SPLINE
  5
1D9
102
{ACAD_REACTORS
330
2AE
102
}
330
1F
100
AcDbEntity
  8
DXF_SILKSCREEN_TOP
100
AcDbSpline
210
0.0
220
0.0
230
1.0
 70
    11
 71
     1
 72
     7
 73
     5
 74
     0
 42
0.0000000001
 43
0.0000000001
 40
0.0
 40
0.0
 40
0.0890118672761453
 40
0.1256786419522236
 40
0.2146905092283689
 40
0.2513572839044471
 40
0.2513572839044471
 10
722.3534215946601
 20
107.9518473407525
 30
0.0
 10
722.6937168767776
 20
107.9518473407525
 30
0.0
 10
722.6937168767776
 20
108.496776008625
 30
0.0
 10
722.3534215946601
 20
108.496776008625
 30
0.0
 10
722.3534215946601
 20
107.9518473407525
 30
0.0
  0
SPLINE
  5
1DA
102
{ACAD_REACTORS
330
2AE
102
}
330
1F
100
AcDbEntity
  8
DXF_SILKSCREEN_TOP
100
AcDbSpline
210
0.0
220
0.0
230
1.0
 70
    11
 71
     1
 72
     7
 73
     5
 74
     0
 42
0.0000000001
 43
0.0000000001
 40
0.0
 40
0.0
 40
0.0890118672761453
 40
0.1256786419522236
 40
0.2146905092283689
 40
0.2513572839044471
 40
0.2513572839044471
 10
720.5153315685831
 20
107.9518473407525
 30
0.0
 10
720.8556268507004
 20
107.9518473407525
 30
0.0
 10
720.8556268507004
 20
108.496776008625
 30
0.0
 10
720.5153315685831
 20
108.496776008625
 30
0.0
 10
720.5153315685831
 20
107.9518473407525
 30
0.0
  0
SPLINE
  5
1DB
102
{ACAD_REACTORS
330
2AE
102
}
330
1F
100
AcDbEntity
  8
DXF_SILKSCREEN_TOP
100
AcDbSpline
210
0.0
220
0.0
230
1.0
 70
    11
 71
     1
 72
     7
 73
     5
 74
     0
 42
0.0000000001
 43
0.0000000001
 40
0.0
 40
0.0
 40
0.724780486100304
 40
1.125752199893437
 40
1.850532685993741
 40
2.251504399786874
 40
2.251504399786874
 10
720.2462558960987
 20
106.418919354386
 30
0.0
 10
723.0171154178471
 20
106.418919354386
 30
0.0
 10
723.0171154178471
 20
107.9518473407525
 30
0.0
 10
720.2462558960987
 20
107.9518473407525
 30
0.0
 10
720.2462558960987
 20
106.418919354386
 30
0.0
  0
SPLINE
  5
1DC
102
{ACAD_REACTORS
330
2AE
102
}
330
1F
100
AcDbEntity
  8
DXF_SILKSCREEN_TOP
100
AcDbSpline
210
0.0
220
0.0
230
1.0
 70
    11
 71
     1
 72
     7
 73
     5
 74
     0
 42
0.0000000001
 43
0.0000000001
 40
0.015300700351061
 40
0.015300700351061
 40
0.7094797857492431
 40
1.079850098840255
 40
1.774029184238437
 40
2.144399497329448
 40
2.144399497329448
 10
720.3047509743606
 20
106.4774144326479
 30
0.0
 10
722.9586203395851
 20
106.4774144326479
 30
0.0
 10
722.9586203395851
 20
107.8933522624905
 30
0.0
 10
720.3047509743606
 20
107.8933522624905
 30
0.0
 10
720.3047509743606
 20
106.4774144326479
 30
0.0
  0
LINE
  5
1DD
102
{ACAD_REACTORS
330
2AE
102
}
330
1F
100
AcDbEntity
  8
DXF_SILKSCREEN_TOP
100
AcDbLine
 10
722.9586203395851
 20
107.8933522624905
 30
0.0
 11
723.0171154178471
 21
107.9518473407525
 31
0.0
  0
LINE
  5
1DE
102
{ACAD_REACTORS
330
2AE
102
}
330
1F
100
AcDbEntity
  8
DXF_SILKSCREEN_TOP
100
AcDbLine
 10
722.9586203395851
 20
106.4774144326479
 30
0.0
 11
723.0171154178471
 21
106.418919354386
 31
0.0
  0
LINE
  5
1DF
102
{ACAD_REACTORS
330
2AE
102
}
330
1F
100
AcDbEntity
  8
DXF_SILKSCREEN_TOP
100
AcDbLine
 10
720.3047509743606
 20
107.8933522624905
 30
0.0
 11
720.2462558960987
 21
107.9518473407525
 31
0.0
  0
LINE
  5
1E0
102
{ACAD_REACTORS
330
2AE
102
}
330
1F
100
AcDbEntity
  8
DXF_SILKSCREEN_TOP
100
AcDbLine
 10
720.3047509743606
 20
106.4774144326479
 30
0.0
 11
720.2462558960987
 21
106.418919354386
 31
0.0
  0
MTEXT
  5
1E1
330
1F
100
AcDbEntity
  8
DXF_SILKSCREEN_TOP
100
AcDbMText
 10
739.3078007514896
 20
105.3106248831719
 30
0.0
 40
0.3550418192645933
 41
1.704200732470048
 46
0.1420167277058373
 71
     1
 72
     1
  1
R3
  7
Default
 73
     1
 44
1.0
  0
POLYLINE
  5
1E2
102
{ACAD_REACTORS
330
2B0
102
}
330
1F
100
AcDbEntity
  8
DXF_SILKSCREEN_TOP
100
AcDb2dPolyline
 66
     1
 10
0.0
 20
0.0
 30
0.0
 70
     1
  0
VERTEX
  5
1E3
330
1E2
100
AcDbEntity
  8
DXF_SILKSCREEN_TOP
100
AcDbVertex
100
AcDb2dVertex
 10
740.2349789001006
 20
105.7310922430376
 30
0.0
 42
-0.0514217440147681
  0
VERTEX
  5
1E4
330
1E2
100
AcDbEntity
  8
DXF_SILKSCREEN_TOP
100
AcDbVertex
100
AcDb2dVertex
 10
740.2993678966162
 20
106.4113759888336
 30
0.0
 42
0.3937318965226401
  0
VERTEX
  5
1E5
330
1E2
100
AcDbEntity
  8
DXF_SILKSCREEN_TOP
100
AcDbVertex
100
AcDb2dVertex
 10
739.8010530540168
 20
107.1112563857432
 30
0.0
  0
VERTEX
  5
1E6
330
1E2
100
AcDbEntity
  8
DXF_SILKSCREEN_TOP
100
AcDbVertex
100
AcDb2dVertex
 10
739.3460352935584
 20
107.111256385743
 30
0.0
 42
0.3937318965227087
  0
VERTEX
  5
1E7
330
1E2
100
AcDbEntity
  8
DXF_SILKSCREEN_TOP
100
AcDbVertex
100
AcDb2dVertex
 10
738.8477204509587
 20
106.4113759888337
 30
0.0
 42
-0.0514217440148839
  0
VERTEX
  5
1E8
330
1E2
100
AcDbEntity
  8
DXF_SILKSCREEN_TOP
100
AcDbVertex
100
AcDb2dVertex
 10
738.9121094474746
 20
105.7310922430376
 30
0.0
  0
VERTEX
  5
1E9
330
1E2
100
AcDbEntity
  8
DXF_SILKSCREEN_TOP
100
AcDbVertex
100
AcDb2dVertex
 10
738.9121094474746
 20
104.6405672768973
 30
0.0
 42
-0.0514217440149225
  0
VERTEX
  5
1EA
330
1E2
100
AcDbEntity
  8
DXF_SILKSCREEN_TOP
100
AcDbVertex
100
AcDb2dVertex
 10
738.847720450959
 20
103.9602835311012
 30
0.0
 42
0.3937318965224334
  0
VERTEX
  5
1EB
330
1E2
100
AcDbEntity
  8
DXF_SILKSCREEN_TOP
100
AcDbVertex
100
AcDb2dVertex
 10
739.3460352935583
 20
103.2604031341916
 30
0.0
  0
VERTEX
  5
1EC
330
1E2
100
AcDbEntity
  8
DXF_SILKSCREEN_TOP
100
AcDbVertex
100
AcDb2dVertex
 10
739.8010530540167
 20
103.2604031341917
 30
0.0
 42
0.3937318965222504
  0
VERTEX
  5
1ED
330
1E2
100
AcDbEntity
  8
DXF_SILKSCREEN_TOP
100
AcDbVertex
100
AcDb2dVertex
 10
740.2993678966163
 20
103.9602835311012
 30
0.0
 42
-0.0514217440150717
  0
VERTEX
  5
1EE
330
1E2
100
AcDbEntity
  8
DXF_SILKSCREEN_TOP
100
AcDbVertex
100
AcDb2dVertex
 10
740.2349789001006
 20
104.6405672768973
 30
0.0
  0
SEQEND
  5
1EF
330
1E2
100
AcDbEntity
  8
DXF_SILKSCREEN_TOP
  0
LINE
  5
1F0
102
{ACAD_REACTORS
330
2B1
102
}
330
1F
100
AcDbEntity
  8
DXF_SILKSCREEN_TOP
100
AcDbLine
 10
740.2348618348021
 20
105.7310922430375
 30
0.0
 11
738.9121094474746
 21
105.7310922430375
 31
0.0
  0
LINE
  5
1F1
102
{ACAD_REACTORS
330
2B1
102
}
330
1F
100
AcDbEntity
  8
DXF_SILKSCREEN_TOP
100
AcDbLine
 10
738.9121094474746
 20
105.3125132069354
 30
0.0
 11
740.2348618348021
 21
105.3125132069354
 31
0.0
  0
LINE
  5
1F2
102
{ACAD_REACTORS
330
2B1
102
}
330
1F
100
AcDbEntity
  8
DXF_SILKSCREEN_TOP
100
AcDbLine
 10
740.2348618348021
 20
104.9457758789549
 30
0.0
 11
738.9122265127729
 21
104.9457758789549
 31
0.0
  0
LINE
  5
1F3
102
{ACAD_REACTORS
330
2B1
102
}
330
1F
100
AcDbEntity
  8
DXF_SILKSCREEN_TOP
100
AcDbLine
 10
738.9122265127729
 20
104.6126412799613
 30
0.0
 11
740.2348618348021
 21
104.6126412799613
 31
0.0
  0
MTEXT
  5
1F4
330
1F
100
AcDbEntity
  8
DXF_SILKSCREEN_TOP
100
AcDbMText
 10
721.3203223051637
 20
93.09488947049243
 30
0.0
 40
0.3
 41
1.443636363636364
 46
0.12
 71
     1
 72
     1
  1
34
  7
Default
 73
     1
 44
1.0
  0
LINE
  5
1F5
102
{ACAD_REACTORS
330
2B2
102
}
330
1F
100
AcDbEntity
  8
DXF_SILKSCREEN_TOP
100
AcDbLine
 10
718.7482699906404
 20
111.2965438525655
 30
0.0
 11
718.7482699906404
 21
111.0198375265846
 31
0.0
  0
LINE
  5
1F6
102
{ACAD_REACTORS
330
2B2
102
}
330
1F
100
AcDbEntity
  8
DXF_SILKSCREEN_TOP
100
AcDbLine
 10
718.7482699906404
 20
111.7184467402285
 30
0.0
 11
718.7482699906404
 21
111.5169301643073
 31
0.0
  0
LINE
  5
1F7
102
{ACAD_REACTORS
330
2B3
102
}
330
1F
100
AcDbEntity
  8
DXF_SILKSCREEN_TOP
100
AcDbLine
 10
718.7542931675001
 20
112.843750954014
 30
0.0
 11
718.7542931675001
 21
112.6771852059284
 31
0.0
  0
LINE
  5
1F8
102
{ACAD_REACTORS
330
2B3
102
}
330
1F
100
AcDbEntity
  8
DXF_SILKSCREEN_TOP
100
AcDbLine
 10
718.7542931675001
 20
113.2962430084224
 30
0.0
 11
718.7542931675001
 21
113.0641372657558
 31
0.0
  0
LINE
  5
1F9
102
{ACAD_REACTORS
330
2B3
102
}
330
1F
100
AcDbEntity
  8
DXF_SILKSCREEN_TOP
100
AcDbLine
 10
718.3511158560196
 20
113.0641372657558
 30
0.0
 11
719.1574704789806
 21
113.0641372657558
 31
0.0
  0
LINE
  5
1FA
102
{ACAD_REACTORS
330
2B3
102
}
330
1F
100
AcDbEntity
  8
DXF_SILKSCREEN_TOP
100
AcDbLine
 10
718.3511158560196
 20
112.8437509540141
 30
0.0
 11
719.1574704789806
 21
112.8437509540141
 31
0.0
  0
MTEXT
  5
1FB
330
1F
100
AcDbEntity
  8
DXF_SILKSCREEN_TOP
100
AcDbMText
 10
719.2005265512458
 20
113.1149379994086
 30
0.0
 40
0.35
 41
1.964242424242424
 46
0.14
 71
     1
 72
     1
  1
C17
  7
Default
 73
     1
 44
1.0
  0
MTEXT
  5
1FC
330
1F
100
AcDbEntity
  8
DXF_SILKSCREEN_TOP
100
AcDbMText
 10
719.2439964209601
 20
111.5795622332234
 30
0.0
 40
0.35
 41
1.964242424242424
 46
0.14
 71
     1
 72
     1
  1
C17
  7
Default
 73
     1
 44
1.0
  0
MTEXT
  5
1FD
330
1F
100
AcDbEntity
  8
DXF_SILKSCREEN_TOP
100
AcDbMText
 10
721.2161589927586
 20
111.975741581271
 30
0.0
 40
0.35
 41
1.964242424242424
 46
0.14
 71
     1
 72
     1
  1
C16
  7
Default
 73
     1
 44
1.0
  0
MTEXT
  5
1FE
330
1F
100
AcDbEntity
  8
DXF_SILKSCREEN_TOP
100
AcDbMText
 10
730.7121615257896
 20
112.0089341939775
 30
0.0
 40
0.35
 41
1.964242424242424
 46
0.14
 71
     1
 72
     1
  1
C15
  7
Default
 73
     1
 44
1.0
  0
MTEXT
  5
1FF
330
1F
100
AcDbEntity
  8
DXF_SILKSCREEN_TOP
100
AcDbMText
 10
735.5146021811735
 20
113.4532366861783
 30
0.0
 40
0.35
 41
1.964242424242424
 46
0.14
 71
     1
 72
     1
  1
C13
  7
Default
 73
     1
 44
1.0
  0
MTEXT
  5
200
330
1F
100
AcDbEntity
  8
DXF_SILKSCREEN_TOP
100
AcDbMText
 10
745.1951439532734
 20
95.49915475056619
 30
0.0
 40
0.35
 41
2.036363636363636
 46
0.14
 71
     1
 72
     1
  1
C14
  7
Default
 73
     1
 44
1.0
  0
LINE
  5
201
102
{ACAD_REACTORS
330
2B4
102
}
330
1F
100
AcDbEntity
  8
DXF_SILKSCREEN_TOP
100
AcDbLine
 10
735.9684611703372
 20
113.9470218401264
 30
0.0
 11
736.2503744163545
 21
113.9470218401264
 31
0.0
  0
LINE
  5
202
102
{ACAD_REACTORS
330
2B4
102
}
330
1F
100
AcDbEntity
  8
DXF_SILKSCREEN_TOP
100
AcDbLine
 10
735.5035730776485
 20
113.9470218401264
 30
0.0
 11
735.7480748585954
 21
113.9470218401264
 31
0.0
  0
MTEXT
  5
203
330
1F
100
AcDbEntity
  8
DXF_SILKSCREEN_TOP
100
AcDbMText
 10
760.9611524502486
 20
98.81795781854095
 30
0.0
 40
0.3550418192645933
 41
1.562184004764211
 46
0.1420167277058373
 71
     1
 72
     1
  1
R1
  7
Default
 73
     1
 44
1.0
  0
MTEXT
  5
204
330
1F
100
AcDbEntity
  8
DXF_SILKSCREEN_TOP
100
AcDbMText
 10
760.8731524032397
 20
105.8753726682375
 30
0.0
 40
0.3550418192645933
 41
1.704200732470048
 46
0.1420167277058373
 71
     1
 72
     1
  1
R2
  7
Default
 73
     1
 44
1.0
  0
POLYLINE
  5
205
102
{ACAD_REACTORS
330
2B5
102
}
330
1F
100
AcDbEntity
  8
DXF_SILKSCREEN_TOP
100
AcDb2dPolyline
 66
     1
 10
0.0
 20
0.0
 30
0.0
 70
     1
  0
VERTEX
  5
206
330
205
100
AcDbEntity
  8
DXF_SILKSCREEN_TOP
100
AcDbVertex
100
AcDb2dVertex
 10
736.7254095226397
 20
105.7578718285386
 30
0.0
 42
-0.0514217440147681
  0
VERTEX
  5
207
330
205
100
AcDbEntity
  8
DXF_SILKSCREEN_TOP
100
AcDbVertex
100
AcDb2dVertex
 10
736.7897985191553
 20
106.4381555743346
 30
0.0
 42
0.393731896522476
  0
VERTEX
  5
208
330
205
100
AcDbEntity
  8
DXF_SILKSCREEN_TOP
100
AcDbVertex
100
AcDb2dVertex
 10
736.2914836765557
 20
107.1380359712442
 30
0.0
  0
VERTEX
  5
209
330
205
100
AcDbEntity
  8
DXF_SILKSCREEN_TOP
100
AcDbVertex
100
AcDb2dVertex
 10
735.8364659160975
 20
107.1380359712441
 30
0.0
 42
0.3937318965227032
  0
VERTEX
  5
20A
330
205
100
AcDbEntity
  8
DXF_SILKSCREEN_TOP
100
AcDbVertex
100
AcDb2dVertex
 10
735.3381510734978
 20
106.4381555743347
 30
0.0
 42
-0.0514217440148839
  0
VERTEX
  5
20B
330
205
100
AcDbEntity
  8
DXF_SILKSCREEN_TOP
100
AcDbVertex
100
AcDb2dVertex
 10
735.4025400700136
 20
105.7578718285386
 30
0.0
  0
VERTEX
  5
20C
330
205
100
AcDbEntity
  8
DXF_SILKSCREEN_TOP
100
AcDbVertex
100
AcDb2dVertex
 10
735.4025400700136
 20
104.6673468623983
 30
0.0
 42
-0.0514217440149119
  0
VERTEX
  5
20D
330
205
100
AcDbEntity
  8
DXF_SILKSCREEN_TOP
100
AcDbVertex
100
AcDb2dVertex
 10
735.338151073498
 20
103.9870631166022
 30
0.0
 42
0.3937318965223891
  0
VERTEX
  5
20E
330
205
100
AcDbEntity
  8
DXF_SILKSCREEN_TOP
100
AcDbVertex
100
AcDb2dVertex
 10
735.8364659160975
 20
103.2871827196928
 30
0.0
  0
VERTEX
  5
20F
330
205
100
AcDbEntity
  8
DXF_SILKSCREEN_TOP
100
AcDbVertex
100
AcDb2dVertex
 10
736.2914836765556
 20
103.2871827196927
 30
0.0
 42
0.3937318965224792
  0
VERTEX
  5
210
330
205
100
AcDbEntity
  8
DXF_SILKSCREEN_TOP
100
AcDbVertex
100
AcDb2dVertex
 10
736.7897985191554
 20
103.9870631166022
 30
0.0
 42
-0.0514217440146653
  0
VERTEX
  5
211
330
205
100
AcDbEntity
  8
DXF_SILKSCREEN_TOP
100
AcDbVertex
100
AcDb2dVertex
 10
736.7254095226394
 20
104.6673468623983
 30
0.0
  0
SEQEND
  5
212
330
205
100
AcDbEntity
  8
DXF_SILKSCREEN_TOP
  0
LINE
  5
213
102
{ACAD_REACTORS
330
2B6
102
}
330
1F
100
AcDbEntity
  8
DXF_SILKSCREEN_TOP
100
AcDbLine
 10
736.7252924573411
 20
105.7578718285385
 30
0.0
 11
735.4025400700136
 21
105.7578718285385
 31
0.0
  0
LINE
  5
214
102
{ACAD_REACTORS
330
2B6
102
}
330
1F
100
AcDbEntity
  8
DXF_SILKSCREEN_TOP
100
AcDbLine
 10
735.4025400700136
 20
105.3392927924365
 30
0.0
 11
736.7252924573411
 21
105.3392927924365
 31
0.0
  0
LINE
  5
215
102
{ACAD_REACTORS
330
2B6
102
}
330
1F
100
AcDbEntity
  8
DXF_SILKSCREEN_TOP
100
AcDbLine
 10
736.7252924573411
 20
104.972555464456
 30
0.0
 11
735.402657135312
 21
104.972555464456
 31
0.0
  0
LINE
  5
216
102
{ACAD_REACTORS
330
2B6
102
}
330
1F
100
AcDbEntity
  8
DXF_SILKSCREEN_TOP
100
AcDbLine
 10
735.402657135312
 20
104.6394208654623
 30
0.0
 11
736.7252924573411
 21
104.6394208654623
 31
0.0
  0
LINE
  5
217
102
{ACAD_REACTORS
330
2B7
102
}
330
1F
100
AcDbEntity
  8
DXF_SILKSCREEN_TOP
100
AcDbLine
 10
733.6649482050623
 20
104.6394208654623
 30
0.0
 11
734.9875835270913
 21
104.6394208654623
 31
0.0
  0
LINE
  5
218
102
{ACAD_REACTORS
330
2B7
102
}
330
1F
100
AcDbEntity
  8
DXF_SILKSCREEN_TOP
100
AcDbLine
 10
734.9875835270913
 20
104.972555464456
 30
0.0
 11
733.6649482050623
 21
104.972555464456
 31
0.0
  0
LINE
  5
219
102
{ACAD_REACTORS
330
2B7
102
}
330
1F
100
AcDbEntity
  8
DXF_SILKSCREEN_TOP
100
AcDbLine
 10
733.6648311397639
 20
105.3392927924365
 30
0.0
 11
734.9875835270913
 21
105.3392927924365
 31
0.0
  0
LINE
  5
21A
102
{ACAD_REACTORS
330
2B7
102
}
330
1F
100
AcDbEntity
  8
DXF_SILKSCREEN_TOP
100
AcDbLine
 10
734.9875835270913
 20
105.7578718285385
 30
0.0
 11
733.6648311397639
 21
105.7578718285385
 31
0.0
  0
POLYLINE
  5
21B
102
{ACAD_REACTORS
330
2B7
102
}
330
1F
100
AcDbEntity
  8
DXF_SILKSCREEN_TOP
100
AcDb2dPolyline
 66
     1
 10
0.0
 20
0.0
 30
0.0
 70
     1
  0
VERTEX
  5
21C
330
21B
100
AcDbEntity
  8
DXF_SILKSCREEN_TOP
100
AcDbVertex
100
AcDb2dVertex
 10
734.9877005923897
 20
105.7578718285386
 30
0.0
 42
-0.0514217440147681
  0
VERTEX
  5
21D
330
21B
100
AcDbEntity
  8
DXF_SILKSCREEN_TOP
100
AcDbVertex
100
AcDb2dVertex
 10
735.0520895889053
 20
106.4381555743346
 30
0.0
 42
0.3937318965227397
  0
VERTEX
  5
21E
330
21B
100
AcDbEntity
  8
DXF_SILKSCREEN_TOP
100
AcDbVertex
100
AcDb2dVertex
 10
734.553774746306
 20
107.1380359712442
 30
0.0
  0
VERTEX
  5
21F
330
21B
100
AcDbEntity
  8
DXF_SILKSCREEN_TOP
100
AcDbVertex
100
AcDb2dVertex
 10
734.0987569858478
 20
107.1380359712441
 30
0.0
 42
0.3937318965227032
  0
VERTEX
  5
220
330
21B
100
AcDbEntity
  8
DXF_SILKSCREEN_TOP
100
AcDbVertex
100
AcDb2dVertex
 10
733.6004421432481
 20
106.4381555743347
 30
0.0
 42
-0.051421744014716
  0
VERTEX
  5
221
330
21B
100
AcDbEntity
  8
DXF_SILKSCREEN_TOP
100
AcDbVertex
100
AcDb2dVertex
 10
733.6648311397637
 20
105.7578718285386
 30
0.0
  0
VERTEX
  5
222
330
21B
100
AcDbEntity
  8
DXF_SILKSCREEN_TOP
100
AcDbVertex
100
AcDb2dVertex
 10
733.6648311397637
 20
104.6673468623983
 30
0.0
 42
-0.051421744014583
  0
VERTEX
  5
223
330
21B
100
AcDbEntity
  8
DXF_SILKSCREEN_TOP
100
AcDbVertex
100
AcDb2dVertex
 10
733.6004421432481
 20
103.9870631166022
 30
0.0
 42
0.393731896522495
  0
VERTEX
  5
224
330
21B
100
AcDbEntity
  8
DXF_SILKSCREEN_TOP
100
AcDbVertex
100
AcDb2dVertex
 10
734.0987569858478
 20
103.2871827196927
 30
0.0
  0
VERTEX
  5
225
330
21B
100
AcDbEntity
  8
DXF_SILKSCREEN_TOP
100
AcDbVertex
100
AcDb2dVertex
 10
734.5537747463059
 20
103.2871827196927
 30
0.0
 42
0.3937318965223465
  0
VERTEX
  5
226
330
21B
100
AcDbEntity
  8
DXF_SILKSCREEN_TOP
100
AcDbVertex
100
AcDb2dVertex
 10
735.0520895889053
 20
103.9870631166022
 30
0.0
 42
-0.0514217440145782
  0
VERTEX
  5
227
330
21B
100
AcDbEntity
  8
DXF_SILKSCREEN_TOP
100
AcDbVertex
100
AcDb2dVertex
 10
734.9877005923897
 20
104.6673468623983
 30
0.0
  0
SEQEND
  5
228
330
21B
100
AcDbEntity
  8
DXF_SILKSCREEN_TOP
  0
POLYLINE
  5
229
102
{ACAD_REACTORS
330
2B9
102
}
330
1F
100
AcDbEntity
  8
DXF_SILKSCREEN_TOP
100
AcDb2dPolyline
 66
     1
 10
0.0
 20
0.0
 30
0.0
 70
     1
  0
VERTEX
  5
22A
330
229
100
AcDbEntity
  8
DXF_SILKSCREEN_TOP
100
AcDbVertex
100
AcDb2dVertex
 10
733.2622290489726
 20
105.7578718285386
 30
0.0
 42
-0.0514217440147681
  0
VERTEX
  5
22B
330
229
100
AcDbEntity
  8
DXF_SILKSCREEN_TOP
100
AcDbVertex
100
AcDb2dVertex
 10
733.3266180454881
 20
106.4381555743346
 30
0.0
 42
0.3937318965225954
  0
VERTEX
  5
22C
330
229
100
AcDbEntity
  8
DXF_SILKSCREEN_TOP
100
AcDbVertex
100
AcDb2dVertex
 10
732.8283032028887
 20
107.1380359712442
 30
0.0
  0
VERTEX
  5
22D
330
229
100
AcDbEntity
  8
DXF_SILKSCREEN_TOP
100
AcDbVertex
100
AcDb2dVertex
 10
732.3732854424304
 20
107.138035971244
 30
0.0
 42
0.3937318965225238
  0
VERTEX
  5
22E
330
229
100
AcDbEntity
  8
DXF_SILKSCREEN_TOP
100
AcDbVertex
100
AcDb2dVertex
 10
731.8749705998309
 20
106.4381555743347
 30
0.0
 42
-0.051421744014716
  0
VERTEX
  5
22F
330
229
100
AcDbEntity
  8
DXF_SILKSCREEN_TOP
100
AcDbVertex
100
AcDb2dVertex
 10
731.9393595963465
 20
105.7578718285386
 30
0.0
  0
VERTEX
  5
230
330
229
100
AcDbEntity
  8
DXF_SILKSCREEN_TOP
100
AcDbVertex
100
AcDb2dVertex
 10
731.9393595963465
 20
104.6673468623983
 30
0.0
 42
-0.0514217440149119
  0
VERTEX
  5
231
330
229
100
AcDbEntity
  8
DXF_SILKSCREEN_TOP
100
AcDbVertex
100
AcDb2dVertex
 10
731.8749705998309
 20
103.9870631166022
 30
0.0
 42
0.393731896522598
  0
VERTEX
  5
232
330
229
100
AcDbEntity
  8
DXF_SILKSCREEN_TOP
100
AcDbVertex
100
AcDb2dVertex
 10
732.3732854424304
 20
103.2871827196928
 30
0.0
  0
VERTEX
  5
233
330
229
100
AcDbEntity
  8
DXF_SILKSCREEN_TOP
100
AcDbVertex
100
AcDb2dVertex
 10
732.8283032028887
 20
103.2871827196927
 30
0.0
 42
0.3937318965223465
  0
VERTEX
  5
234
330
229
100
AcDbEntity
  8
DXF_SILKSCREEN_TOP
100
AcDbVertex
100
AcDb2dVertex
 10
733.3266180454882
 20
103.9870631166022
 30
0.0
 42
-0.0514217440149086
  0
VERTEX
  5
235
330
229
100
AcDbEntity
  8
DXF_SILKSCREEN_TOP
100
AcDbVertex
100
AcDb2dVertex
 10
733.2622290489726
 20
104.6673468623983
 30
0.0
  0
SEQEND
  5
236
330
229
100
AcDbEntity
  8
DXF_SILKSCREEN_TOP
  0
LINE
  5
237
102
{ACAD_REACTORS
330
2BA
102
}
330
1F
100
AcDbEntity
  8
DXF_SILKSCREEN_TOP
100
AcDbLine
 10
733.2621119836742
 20
105.7578718285385
 30
0.0
 11
731.9393595963465
 21
105.7578718285385
 31
0.0
  0
LINE
  5
238
102
{ACAD_REACTORS
330
2BA
102
}
330
1F
100
AcDbEntity
  8
DXF_SILKSCREEN_TOP
100
AcDbLine
 10
731.9393595963465
 20
105.3392927924365
 30
0.0
 11
733.2621119836742
 21
105.3392927924365
 31
0.0
  0
LINE
  5
239
102
{ACAD_REACTORS
330
2BA
102
}
330
1F
100
AcDbEntity
  8
DXF_SILKSCREEN_TOP
100
AcDbLine
 10
733.2621119836742
 20
104.972555464456
 30
0.0
 11
731.939476661645
 21
104.972555464456
 31
0.0
  0
LINE
  5
23A
102
{ACAD_REACTORS
330
2BA
102
}
330
1F
100
AcDbEntity
  8
DXF_SILKSCREEN_TOP
100
AcDbLine
 10
731.939476661645
 20
104.6394208654623
 30
0.0
 11
733.2621119836742
 21
104.6394208654623
 31
0.0
  0
MTEXT
  5
23B
330
1F
100
AcDbEntity
  8
DXF_SILKSCREEN_TOP
100
AcDbMText
 10
732.3323239939668
 20
104.3249809948
 30
0.0
 40
0.3550418192645933
 41
1.704200732470048
 46
0.1420167277058373
 71
     1
 72
     1
  1
R6
  7
Default
 73
     1
 44
1.0
  0
MTEXT
  5
23C
330
1F
100
AcDbEntity
  8
DXF_SILKSCREEN_TOP
100
AcDbMText
 10
734.0953100927421
 20
104.3249809948
 30
0.0
 40
0.3550418192645933
 41
1.704200732470048
 46
0.1420167277058373
 71
     1
 72
     1
  1
R5
  7
Default
 73
     1
 44
1.0
  0
MTEXT
  5
23D
330
1F
100
AcDbEntity
  8
DXF_SILKSCREEN_TOP
100
AcDbMText
 10
735.82522755222
 20
104.3249809948
 30
0.0
 40
0.3550418192645933
 41
1.77736086492457
 46
0.1420167277058373
 71
     1
 72
     1
  1
R4
  7
Default
 73
     1
 44
1.0
  0
MTEXT
  5
23E
330
1F
100
AcDbEntity
  8
DXF_SILKSCREEN_TOP
100
AcDbMText
 10
735.5113093888428
 20
93.8109370929646
 30
0.0
 40
0.3550418192645933
 41
1.704200732470048
 46
0.1420167277058373
 71
     1
 72
     1
  1
R8
  7
Default
 73
     1
 44
1.0
  0
POLYLINE
  5
23F
102
{ACAD_REACTORS
330
2BB
102
}
330
1F
100
AcDbEntity
  8
DXF_SILKSCREEN_TOP
100
AcDb2dPolyline
 66
     1
 10
0.0
 20
0.0
 30
0.0
 70
     1
  0
VERTEX
  5
240
330
23F
100
AcDbEntity
  8
DXF_SILKSCREEN_TOP
100
AcDbVertex
100
AcDb2dVertex
 10
749.1530285982764
 20
97.86028769301484
 30
0.0
 42
-0.051421744014767
  0
VERTEX
  5
241
330
23F
100
AcDbEntity
  8
DXF_SILKSCREEN_TOP
100
AcDbVertex
100
AcDb2dVertex
 10
748.4727448524803
 20
97.92467668953044
 30
0.0
 42
0.3937318965225725
  0
VERTEX
  5
242
330
23F
100
AcDbEntity
  8
DXF_SILKSCREEN_TOP
100
AcDbVertex
100
AcDb2dVertex
 10
747.7728644555708
 20
97.426361846931
 30
0.0
  0
VERTEX
  5
243
330
23F
100
AcDbEntity
  8
DXF_SILKSCREEN_TOP
100
AcDbVertex
100
AcDb2dVertex
 10
747.7728644555707
 20
96.9713440864727
 30
0.0
 42
0.3937318965224002
  0
VERTEX
  5
244
330
23F
100
AcDbEntity
  8
DXF_SILKSCREEN_TOP
100
AcDbVertex
100
AcDb2dVertex
 10
748.4727448524803
 20
96.47302924387314
 30
0.0
 42
-0.051421744014815
  0
VERTEX
  5
245
330
23F
100
AcDbEntity
  8
DXF_SILKSCREEN_TOP
100
AcDbVertex
100
AcDb2dVertex
 10
749.1530285982764
 20
96.53741824038887
 30
0.0
  0
VERTEX
  5
246
330
23F
100
AcDbEntity
  8
DXF_SILKSCREEN_TOP
100
AcDbVertex
100
AcDb2dVertex
 10
750.2435535644167
 20
96.5374182403888
 30
0.0
 42
-0.0514217440146673
  0
VERTEX
  5
247
330
23F
100
AcDbEntity
  8
DXF_SILKSCREEN_TOP
100
AcDbVertex
100
AcDb2dVertex
 10
750.9238373102128
 20
96.47302924387327
 30
0.0
 42
0.3937318965223569
  0
VERTEX
  5
248
330
23F
100
AcDbEntity
  8
DXF_SILKSCREEN_TOP
100
AcDbVertex
100
AcDb2dVertex
 10
751.6237177071221
 20
96.97134408647271
 30
0.0
  0
VERTEX
  5
249
330
23F
100
AcDbEntity
  8
DXF_SILKSCREEN_TOP
100
AcDbVertex
100
AcDb2dVertex
 10
751.6237177071222
 20
97.42636184693097
 30
0.0
 42
0.3937318965225588
  0
VERTEX
  5
24A
330
23F
100
AcDbEntity
  8
DXF_SILKSCREEN_TOP
100
AcDbVertex
100
AcDb2dVertex
 10
750.9238373102128
 20
97.92467668953049
 30
0.0
 42
-0.0514217440144559
  0
VERTEX
  5
24B
330
23F
100
AcDbEntity
  8
DXF_SILKSCREEN_TOP
100
AcDbVertex
100
AcDb2dVertex
 10
750.2435535644167
 20
97.86028769301478
 30
0.0
  0
SEQEND
  5
24C
330
23F
100
AcDbEntity
  8
DXF_SILKSCREEN_TOP
  0
LINE
  5
24D
102
{ACAD_REACTORS
330
2BC
102
}
330
1F
100
AcDbEntity
  8
DXF_SILKSCREEN_TOP
100
AcDbLine
 10
749.1530285982763
 20
97.86017062771637
 30
0.0
 11
749.1530285982763
 21
96.53741824038894
 31
0.0
  0
LINE
  5
24E
102
{ACAD_REACTORS
330
2BC
102
}
330
1F
100
AcDbEntity
  8
DXF_SILKSCREEN_TOP
100
AcDbLine
 10
749.5716076343786
 20
96.53741824038894
 30
0.0
 11
749.5716076343786
 21
97.86017062771637
 31
0.0
  0
LINE
  5
24F
102
{ACAD_REACTORS
330
2BC
102
}
330
1F
100
AcDbEntity
  8
DXF_SILKSCREEN_TOP
100
AcDbLine
 10
749.938344962359
 20
97.86017062771637
 30
0.0
 11
749.938344962359
 21
96.5375353056873
 31
0.0
  0
LINE
  5
250
102
{ACAD_REACTORS
330
2BC
102
}
330
1F
100
AcDbEntity
  8
DXF_SILKSCREEN_TOP
100
AcDbLine
 10
750.2714795613526
 20
96.5375353056873
 30
0.0
 11
750.2714795613526
 21
97.86017062771637
 31
0.0
  0
MTEXT
  5
251
330
1F
100
AcDbEntity
  8
DXF_SILKSCREEN_TOP
100
AcDbMText
 10
750.7137116490385
 20
97.3763738763341
 30
0.0
 40
0.3550418192645933
 41
1.704200732470048
 46
0.1420167277058373
 71
     1
 72
     1
  1
R7
  7
Default
 73
     1
 44
1.0
  0
MTEXT
  5
252
330
1F
100
AcDbEntity
  8
DXF_SILKSCREEN_TOP
100
AcDbMText
 10
746.6220649405119
 20
93.34015285670117
 30
0.0
 40
0.3
 41
1.261818181818182
 46
0.12
 71
     1
 72
     1
  1
13
  7
Default
 73
     1
 44
1.0
  0
MTEXT
  5
253
330
1F
100
AcDbEntity
  8
DXF_SILKSCREEN_TOP
100
AcDbMText
 10
748.1602114534085
 20
93.34015285670117
 30
0.0
 40
0.3
 41
1.141818181818182
 46
0.12
 71
     1
 72
     1
  1
11
  7
Default
 73
     1
 44
1.0
  0
MTEXT
  5
254
330
1F
100
AcDbEntity
  8
DXF_SILKSCREEN_TOP
100
AcDbMText
 10
749.7274692524007
 20
93.34015285670117
 30
0.0
 40
0.3
 41
1.261818181818182
 46
0.12
 71
     1
 72
     1
  1
12
  7
Default
 73
     1
 44
1.0
  0
MTEXT
  5
255
330
1F
100
AcDbEntity
  8
DXF_SILKSCREEN_TOP
100
AcDbMText
 10
751.17106751627
 20
93.34015285670117
 30
0.0
 40
0.3
 41
1.323636363636364
 46
0.12
 71
     1
 72
     1
  1
14
  7
Default
 73
     1
 44
1.0
  0
MTEXT
  5
256
330
1F
100
AcDbEntity
  8
DXF_SILKSCREEN_TOP
100
AcDbMText
 10
752.6388046132596
 20
93.34015285670117
 30
0.0
 40
0.3
 41
1.261818181818182
 46
0.12
 71
     1
 72
     1
  1
15
  7
Default
 73
     1
 44
1.0
  0
MTEXT
  5
257
330
1F
100
AcDbEntity
  8
DXF_SILKSCREEN_TOP
100
AcDbMText
 10
754.1498077811278
 20
93.34015285670117
 30
0.0
 40
0.3
 41
1.261818181818182
 46
0.12
 71
     1
 72
     1
  1
16
  7
Default
 73
     1
 44
1.0
  0
MTEXT
  5
258
330
1F
100
AcDbEntity
  8
DXF_SILKSCREEN_TOP
100
AcDbMText
 10
755.7555976813209
 20
93.34015285670117
 30
0.0
 40
0.3
 41
1.261818181818182
 46
0.12
 71
     1
 72
     1
  1
18
  7
Default
 73
     1
 44
1.0
  0
MTEXT
  5
259
330
1F
100
AcDbEntity
  8
DXF_SILKSCREEN_TOP
100
AcDbMText
 10
757.4256191775215
 20
93.34015285670117
 30
0.0
 40
0.3
 41
1.261818181818182
 46
0.12
 71
     1
 72
     1
  1
19
  7
Default
 73
     1
 44
1.0
  0
MTEXT
  5
25A
330
1F
100
AcDbEntity
  8
DXF_SILKSCREEN_TOP
100
AcDbMText
 10
758.8065984916872
 20
93.34015285670117
 30
0.0
 40
0.3
 41
1.443636363636364
 46
0.12
 71
     1
 72
     1
  1
24
  7
Default
 73
     1
 44
1.0
  0
POLYLINE
  5
25B
102
{ACAD_REACTORS
330
2BD
102
}
330
1F
100
AcDbEntity
  8
DXF_SILKSCREEN_TOP
100
AcDb2dPolyline
 66
     1
 10
0.0
 20
0.0
 30
0.0
 70
     1
  0
VERTEX
  5
25C
330
25B
100
AcDbEntity
  8
DXF_SILKSCREEN_TOP
100
AcDbVertex
100
AcDb2dVertex
 10
735.1795461744917
 20
94.29490944229451
 30
0.0
 42
-0.051421744014767
  0
VERTEX
  5
25D
330
25B
100
AcDbEntity
  8
DXF_SILKSCREEN_TOP
100
AcDbVertex
100
AcDb2dVertex
 10
734.4992624286957
 20
94.35929843881013
 30
0.0
 42
0.3937318965224619
  0
VERTEX
  5
25E
330
25B
100
AcDbEntity
  8
DXF_SILKSCREEN_TOP
100
AcDbVertex
100
AcDb2dVertex
 10
733.7993820317864
 20
93.86098359621064
 30
0.0
  0
VERTEX
  5
25F
330
25B
100
AcDbEntity
  8
DXF_SILKSCREEN_TOP
100
AcDbVertex
100
AcDb2dVertex
 10
733.7993820317863
 20
93.40596583575237
 30
0.0
 42
0.3937318965224002
  0
VERTEX
  5
260
330
25B
100
AcDbEntity
  8
DXF_SILKSCREEN_TOP
100
AcDbVertex
100
AcDb2dVertex
 10
734.4992624286959
 20
92.90765099315283
 30
0.0
 42
-0.0514217440148295
  0
VERTEX
  5
261
330
25B
100
AcDbEntity
  8
DXF_SILKSCREEN_TOP
100
AcDbVertex
100
AcDb2dVertex
 10
735.1795461744917
 20
92.97203998966854
 30
0.0
  0
VERTEX
  5
262
330
25B
100
AcDbEntity
  8
DXF_SILKSCREEN_TOP
100
AcDbVertex
100
AcDb2dVertex
 10
736.2700711406322
 20
92.9720399896685
 30
0.0
 42
-0.0514217440147613
  0
VERTEX
  5
263
330
25B
100
AcDbEntity
  8
DXF_SILKSCREEN_TOP
100
AcDbVertex
100
AcDb2dVertex
 10
736.9503548864282
 20
92.90765099315283
 30
0.0
 42
0.3937318965221522
  0
VERTEX
  5
264
330
25B
100
AcDbEntity
  8
DXF_SILKSCREEN_TOP
100
AcDbVertex
100
AcDb2dVertex
 10
737.6502352833377
 20
93.40596583575237
 30
0.0
  0
VERTEX
  5
265
330
25B
100
AcDbEntity
  8
DXF_SILKSCREEN_TOP
100
AcDbVertex
100
AcDb2dVertex
 10
737.6502352833377
 20
93.86098359621062
 30
0.0
 42
0.393731896522429
  0
VERTEX
  5
266
330
25B
100
AcDbEntity
  8
DXF_SILKSCREEN_TOP
100
AcDbVertex
100
AcDb2dVertex
 10
736.950354886428
 20
94.35929843881009
 30
0.0
 42
-0.0514217440145125
  0
VERTEX
  5
267
330
25B
100
AcDbEntity
  8
DXF_SILKSCREEN_TOP
100
AcDbVertex
100
AcDb2dVertex
 10
736.2700711406322
 20
94.29490944229447
 30
0.0
  0
SEQEND
  5
268
330
25B
100
AcDbEntity
  8
DXF_SILKSCREEN_TOP
  0
LINE
  5
269
102
{ACAD_REACTORS
330
2BE
102
}
330
1F
100
AcDbEntity
  8
DXF_SILKSCREEN_TOP
100
AcDbLine
 10
735.1795461744919
 20
94.29479237699601
 30
0.0
 11
735.1795461744919
 21
92.97203998966862
 31
0.0
  0
LINE
  5
26A
102
{ACAD_REACTORS
330
2BE
102
}
330
1F
100
AcDbEntity
  8
DXF_SILKSCREEN_TOP
100
AcDbLine
 10
735.5981252105942
 20
92.97203998966862
 30
0.0
 11
735.5981252105942
 21
94.29479237699601
 31
0.0
  0
LINE
  5
26B
102
{ACAD_REACTORS
330
2BE
102
}
330
1F
100
AcDbEntity
  8
DXF_SILKSCREEN_TOP
100
AcDbLine
 10
735.9648625385746
 20
94.29479237699601
 30
0.0
 11
735.9648625385746
 21
92.97215705496697
 31
0.0
  0
LINE
  5
26C
102
{ACAD_REACTORS
330
2BE
102
}
330
1F
100
AcDbEntity
  8
DXF_SILKSCREEN_TOP
100
AcDbLine
 10
736.2979971375682
 20
92.97215705496697
 30
0.0
 11
736.2979971375682
 21
94.29479237699601
 31
0.0
  0
LINE
  5
26D
102
{ACAD_REACTORS
330
2BF
102
}
330
1F
100
AcDbEntity
  8
DXF_SILKSCREEN_TOP
100
AcDbLine
 10
760.4775781645233
 20
98.11278086978814
 30
0.0
 11
761.8002134865524
 21
98.11278086978814
 31
0.0
  0
LINE
  5
26E
102
{ACAD_REACTORS
330
2BF
102
}
330
1F
100
AcDbEntity
  8
DXF_SILKSCREEN_TOP
100
AcDbLine
 10
761.8002134865524
 20
98.4459154687818
 30
0.0
 11
760.4775781645233
 21
98.4459154687818
 31
0.0
  0
LINE
  5
26F
102
{ACAD_REACTORS
330
2BF
102
}
330
1F
100
AcDbEntity
  8
DXF_SILKSCREEN_TOP
100
AcDbLine
 10
760.4774610992249
 20
98.81265279676248
 30
0.0
 11
761.8002134865524
 21
98.81265279676248
 31
0.0
  0
LINE
  5
270
102
{ACAD_REACTORS
330
2BF
102
}
330
1F
100
AcDbEntity
  8
DXF_SILKSCREEN_TOP
100
AcDbLine
 10
761.8002134865524
 20
99.23123183286455
 30
0.0
 11
760.4774610992249
 21
99.23123183286455
 31
0.0
  0
POLYLINE
  5
271
102
{ACAD_REACTORS
330
2BF
102
}
330
1F
100
AcDbEntity
  8
DXF_SILKSCREEN_TOP
100
AcDb2dPolyline
 66
     1
 10
0.0
 20
0.0
 30
0.0
 70
     1
  0
VERTEX
  5
272
330
271
100
AcDbEntity
  8
DXF_SILKSCREEN_TOP
100
AcDbVertex
100
AcDb2dVertex
 10
761.800330551851
 20
99.2312318328645
 30
0.0
 42
-0.0514217440147681
  0
VERTEX
  5
273
330
271
100
AcDbEntity
  8
DXF_SILKSCREEN_TOP
100
AcDbVertex
100
AcDb2dVertex
 10
761.8647195483667
 20
99.91151557866048
 30
0.0
 42
0.393731896522488
  0
VERTEX
  5
274
330
271
100
AcDbEntity
  8
DXF_SILKSCREEN_TOP
100
AcDbVertex
100
AcDb2dVertex
 10
761.366404705767
 20
100.61139597557
 30
0.0
  0
VERTEX
  5
275
330
271
100
AcDbEntity
  8
DXF_SILKSCREEN_TOP
100
AcDbVertex
100
AcDb2dVertex
 10
760.9113869453088
 20
100.6113959755699
 30
0.0
 42
0.3937318965227032
  0
VERTEX
  5
276
330
271
100
AcDbEntity
  8
DXF_SILKSCREEN_TOP
100
AcDbVertex
100
AcDb2dVertex
 10
760.4130721027091
 20
99.91151557866053
 30
0.0
 42
-0.051421744014901
  0
VERTEX
  5
277
330
271
100
AcDbEntity
  8
DXF_SILKSCREEN_TOP
100
AcDbVertex
100
AcDb2dVertex
 10
760.4774610992249
 20
99.23123183286458
 30
0.0
  0
VERTEX
  5
278
330
271
100
AcDbEntity
  8
DXF_SILKSCREEN_TOP
100
AcDbVertex
100
AcDb2dVertex
 10
760.4774610992249
 20
98.14070686672412
 30
0.0
 42
-0.0514217440149141
  0
VERTEX
  5
279
330
271
100
AcDbEntity
  8
DXF_SILKSCREEN_TOP
100
AcDbVertex
100
AcDb2dVertex
 10
760.4130721027091
 20
97.46042312092827
 30
0.0
 42
0.3937318965224669
  0
VERTEX
  5
27A
330
271
100
AcDbEntity
  8
DXF_SILKSCREEN_TOP
100
AcDbVertex
100
AcDb2dVertex
 10
760.9113869453088
 20
96.76054272401878
 30
0.0
  0
VERTEX
  5
27B
330
271
100
AcDbEntity
  8
DXF_SILKSCREEN_TOP
100
AcDbVertex
100
AcDb2dVertex
 10
761.3664047057671
 20
96.76054272401868
 30
0.0
 42
0.3937318965223917
  0
VERTEX
  5
27C
330
271
100
AcDbEntity
  8
DXF_SILKSCREEN_TOP
100
AcDbVertex
100
AcDb2dVertex
 10
761.8647195483665
 20
97.46042312092827
 30
0.0
 42
-0.0514217440147647
  0
VERTEX
  5
27D
330
271
100
AcDbEntity
  8
DXF_SILKSCREEN_TOP
100
AcDbVertex
100
AcDb2dVertex
 10
761.8003305518507
 20
98.14070686672412
 30
0.0
  0
SEQEND
  5
27E
330
271
100
AcDbEntity
  8
DXF_SILKSCREEN_TOP
  0
POLYLINE
  5
27F
102
{ACAD_REACTORS
330
2C1
102
}
330
1F
100
AcDbEntity
  8
DXF_SILKSCREEN_TOP
100
AcDb2dPolyline
 66
     1
 10
0.0
 20
0.0
 30
0.0
 70
     1
  0
VERTEX
  5
280
330
27F
100
AcDbEntity
  8
DXF_SILKSCREEN_TOP
100
AcDbVertex
100
AcDb2dVertex
 10
761.800330551851
 20
106.2879738275646
 30
0.0
 42
-0.0514217440147681
  0
VERTEX
  5
281
330
27F
100
AcDbEntity
  8
DXF_SILKSCREEN_TOP
100
AcDbVertex
100
AcDb2dVertex
 10
761.8647195483667
 20
106.9682575733606
 30
0.0
 42
0.393731896522488
  0
VERTEX
  5
282
330
27F
100
AcDbEntity
  8
DXF_SILKSCREEN_TOP
100
AcDbVertex
100
AcDb2dVertex
 10
761.366404705767
 20
107.6681379702702
 30
0.0
  0
VERTEX
  5
283
330
27F
100
AcDbEntity
  8
DXF_SILKSCREEN_TOP
100
AcDbVertex
100
AcDb2dVertex
 10
760.9113869453088
 20
107.6681379702701
 30
0.0
 42
0.3937318965227032
  0
VERTEX
  5
284
330
27F
100
AcDbEntity
  8
DXF_SILKSCREEN_TOP
100
AcDbVertex
100
AcDb2dVertex
 10
760.4130721027091
 20
106.9682575733607
 30
0.0
 42
-0.0514217440148937
  0
VERTEX
  5
285
330
27F
100
AcDbEntity
  8
DXF_SILKSCREEN_TOP
100
AcDbVertex
100
AcDb2dVertex
 10
760.4774610992249
 20
106.2879738275646
 30
0.0
  0
VERTEX
  5
286
330
27F
100
AcDbEntity
  8
DXF_SILKSCREEN_TOP
100
AcDbVertex
100
AcDb2dVertex
 10
760.4774610992249
 20
105.1974488614243
 30
0.0
 42
-0.0514217440149099
  0
VERTEX
  5
287
330
27F
100
AcDbEntity
  8
DXF_SILKSCREEN_TOP
100
AcDbVertex
100
AcDb2dVertex
 10
760.4130721027091
 20
104.5171651156284
 30
0.0
 42
0.3937318965222756
  0
VERTEX
  5
288
330
27F
100
AcDbEntity
  8
DXF_SILKSCREEN_TOP
100
AcDbVertex
100
AcDb2dVertex
 10
760.9113869453088
 20
103.8172847187187
 30
0.0
  0
VERTEX
  5
289
330
27F
100
AcDbEntity
  8
DXF_SILKSCREEN_TOP
100
AcDbVertex
100
AcDb2dVertex
 10
761.3664047057671
 20
103.8172847187187
 30
0.0
 42
0.3937318965222986
  0
VERTEX
  5
28A
330
27F
100
AcDbEntity
  8
DXF_SILKSCREEN_TOP
100
AcDbVertex
100
AcDb2dVertex
 10
761.8647195483665
 20
104.5171651156284
 30
0.0
 42
-0.0514217440147567
  0
VERTEX
  5
28B
330
27F
100
AcDbEntity
  8
DXF_SILKSCREEN_TOP
100
AcDbVertex
100
AcDb2dVertex
 10
761.8003305518507
 20
105.1974488614243
 30
0.0
  0
SEQEND
  5
28C
330
27F
100
AcDbEntity
  8
DXF_SILKSCREEN_TOP
  0
LINE
  5
28D
102
{ACAD_REACTORS
330
2C2
102
}
330
1F
100
AcDbEntity
  8
DXF_SILKSCREEN_TOP
100
AcDbLine
 10
761.8002134865524
 20
106.2879738275647
 30
0.0
 11
760.4774610992249
 21
106.2879738275647
 31
0.0
  0
LINE
  5
28E
102
{ACAD_REACTORS
330
2C2
102
}
330
1F
100
AcDbEntity
  8
DXF_SILKSCREEN_TOP
100
AcDbLine
 10
760.4774610992249
 20
105.8693947914626
 30
0.0
 11
761.8002134865524
 21
105.8693947914626
 31
0.0
  0
LINE
  5
28F
102
{ACAD_REACTORS
330
2C2
102
}
330
1F
100
AcDbEntity
  8
DXF_SILKSCREEN_TOP
100
AcDbLine
 10
761.8002134865524
 20
105.5026574634819
 30
0.0
 11
760.4775781645233
 21
105.5026574634819
 31
0.0
  0
LINE
  5
290
102
{ACAD_REACTORS
330
2C2
102
}
330
1F
100
AcDbEntity
  8
DXF_SILKSCREEN_TOP
100
AcDbLine
 10
760.4775781645233
 20
105.1695228644884
 30
0.0
 11
761.8002134865524
 21
105.1695228644884
 31
0.0
  0
LINE
  5
291
102
{ACAD_REACTORS
330
2C3
102
}
330
1F
100
AcDbEntity
  8
DXF_SILKSCREEN_TOP
100
AcDbLine
 10
744.7639993467455
 20
95.81089259969363
 30
0.0
 11
744.7639993467455
 21
95.3466811143604
 31
0.0
  0
LINE
  5
292
102
{ACAD_REACTORS
330
2C3
102
}
330
1F
100
AcDbEntity
  8
DXF_SILKSCREEN_TOP
100
AcDbLine
 10
744.7639993467455
 20
95.12629480261862
 30
0.0
 11
744.7639993467455
 21
94.6148210571879
 31
0.0
  0
LINE
  5
293
102
{ACAD_REACTORS
330
2C3
102
}
330
1F
100
AcDbEntity
  8
DXF_SILKSCREEN_TOP
100
AcDbLine
 10
744.3608220352651
 20
95.12629480261865
 30
0.0
 11
745.167176658226
 21
95.12629480261865
 31
0.0
  0
LINE
  5
294
102
{ACAD_REACTORS
330
2C3
102
}
330
1F
100
AcDbEntity
  8
DXF_SILKSCREEN_TOP
100
AcDbLine
 10
744.3608220352651
 20
95.3466811143604
 30
0.0
 11
745.167176658226
 21
95.3466811143604
 31
0.0
  0
LINE
  5
295
102
{ACAD_REACTORS
330
2B4
102
}
330
1F
100
AcDbEntity
  8
DXF_SILKSCREEN_TOP
100
AcDbLine
 10
735.7480748585954
 20
113.543844528646
 30
0.0
 11
735.7480748585954
 21
114.350199151607
 31
0.0
  0
LINE
  5
296
102
{ACAD_REACTORS
330
2B4
102
}
330
1F
100
AcDbEntity
  8
DXF_SILKSCREEN_TOP
100
AcDbLine
 10
735.9684611703372
 20
113.543844528646
 30
0.0
 11
735.9684611703372
 21
114.350199151607
 31
0.0
  0
LINE
  5
297
102
{ACAD_REACTORS
330
2C4
102
}
330
1F
100
AcDbEntity
  8
DXF_SILKSCREEN_TOP
100
AcDbLine
 10
730.2896606977323
 20
112.410703694345
 30
0.0
 11
730.2896606977323
 21
111.9464922090117
 31
0.0
  0
LINE
  5
298
102
{ACAD_REACTORS
330
2C4
102
}
330
1F
100
AcDbEntity
  8
DXF_SILKSCREEN_TOP
100
AcDbLine
 10
730.2896606977323
 20
111.72610589727
 30
0.0
 11
730.2896606977323
 21
111.2146321518393
 31
0.0
  0
LINE
  5
299
102
{ACAD_REACTORS
330
2C4
102
}
330
1F
100
AcDbEntity
  8
DXF_SILKSCREEN_TOP
100
AcDbLine
 10
729.8864833862518
 20
111.72610589727
 30
0.0
 11
730.6928380092128
 21
111.72610589727
 31
0.0
  0
LINE
  5
29A
102
{ACAD_REACTORS
330
2C4
102
}
330
1F
100
AcDbEntity
  8
DXF_SILKSCREEN_TOP
100
AcDbLine
 10
729.8864833862518
 20
111.9464922090117
 30
0.0
 11
730.6928380092128
 21
111.9464922090117
 31
0.0
  0
LINE
  5
29B
102
{ACAD_REACTORS
330
2C5
102
}
330
1F
100
AcDbEntity
  8
DXF_SILKSCREEN_TOP
100
AcDbLine
 10
720.3709044265386
 20
111.9171827167598
 30
0.0
 11
721.1772590494996
 21
111.9171827167598
 31
0.0
  0
LINE
  5
29C
102
{ACAD_REACTORS
330
2C5
102
}
330
1F
100
AcDbEntity
  8
DXF_SILKSCREEN_TOP
100
AcDbLine
 10
720.3709044265386
 20
111.696796405018
 30
0.0
 11
721.1772590494996
 21
111.696796405018
 31
0.0
  0
LINE
  5
29D
102
{ACAD_REACTORS
330
2C5
102
}
330
1F
100
AcDbEntity
  8
DXF_SILKSCREEN_TOP
100
AcDbLine
 10
720.774081738019
 20
111.696796405018
 30
0.0
 11
720.774081738019
 21
111.1853226595873
 31
0.0
  0
LINE
  5
29E
102
{ACAD_REACTORS
330
2C5
102
}
330
1F
100
AcDbEntity
  8
DXF_SILKSCREEN_TOP
100
AcDbLine
 10
720.774081738019
 20
112.381394202093
 30
0.0
 11
720.774081738019
 21
111.9171827167598
 31
0.0
  0
LINE
  5
29F
102
{ACAD_REACTORS
330
2B2
102
}
330
1F
100
AcDbEntity
  8
DXF_SILKSCREEN_TOP
100
AcDbLine
 10
718.34509267916
 20
111.5169301643073
 30
0.0
 11
719.151447302121
 21
111.5169301643073
 31
0.0
  0
LINE
  5
2A0
102
{ACAD_REACTORS
330
2B2
102
}
330
1F
100
AcDbEntity
  8
DXF_SILKSCREEN_TOP
100
AcDbLine
 10
718.34509267916
 20
111.2965438525655
 30
0.0
 11
719.151447302121
 21
111.2965438525655
 31
0.0
  0
ENDSEC
  0
SECTION
  2
OBJECTS
  0
DICTIONARY
  5
C
330
0
100
AcDbDictionary
281
     1
  3
ACAD_DETAILVIEWSTYLE
350
2CD
  3
ACAD_GROUP
350
D
  3
ACAD_LAYOUT
350
1A
  3
ACAD_MATERIAL
350
43
  3
ACAD_MLEADERSTYLE
350
5B
  3
ACAD_MLINESTYLE
350
17
  3
ACAD_PLOTSETTINGS
350
19
  3
ACAD_PLOTSTYLENAME
350
E
  3
ACAD_SCALELIST
350
47
  3
ACAD_SECTIONVIEWSTYLE
350
2CE
  3
ACAD_TABLESTYLE
350
59
  3
ACAD_VISUALSTYLE
350
2A
  3
ACDB_RECOMPOSE_DATA
350
2CA
  3
AcDbVariableDictionary
350
2C6
  0
SUN
  5
5D
330
29
100
AcDbSun
 90
        1
290
     0
 63
     7
421
 16777215
 40
1.0
291
     1
 91
  2455826
 92
 54000000
292
     0
 70
     2
 71
   256
280
     1
  0
DICTIONARY
  5
2CD
102
{ACAD_REACTORS
330
C
102
}
330
C
100
AcDbDictionary
281
     1
  0
DICTIONARY
  5
D
102
{ACAD_REACTORS
330
C
102
}
330
C
100
AcDbDictionary
281
     1
  3
Group125
350
2A1
  3
Group126
350
2A2
  3
Group127
350
2A3
  3
Group128
350
2A4
  3
Group129
350
2A5
  3
Group130
350
2A6
  3
Group131
350
2A7
  3
Group132
350
2A8
  3
Group133
350
2A9
  3
Group134
350
2AA
  3
Group135
350
2AB
  3
Group136
350
2AC
  3
Group137
350
2AD
  3
Group138
350
2AE
  3
Group139
350
2AF
  3
Group140
350
2B0
  3
Group141
350
2B1
  3
Group142
350
2B2
  3
Group143
350
2B3
  3
Group144
350
2B4
  3
Group145
350
2B5
  3
Group146
350
2B6
  3
Group147
350
2B7
  3
Group148
350
2B8
  3
Group149
350
2B9
  3
Group150
350
2BA
  3
Group151
350
2BB
  3
Group152
350
2BC
  3
Group153
350
2BD
  3
Group154
350
2BE
  3
Group155
350
2BF
  3
Group156
350
2C0
  3
Group157
350
2C1
  3
Group158
350
2C2
  3
Group159
350
2C3
  3
Group160
350
2C4
  3
Group161
350
2C5
  0
DICTIONARY
  5
1A
102
{ACAD_REACTORS
330
C
102
}
330
C
100
AcDbDictionary
281
     1
  3
Layout1
350
1E
  3
Layout2
350
26
  3
Model
350
22
  0
DICTIONARY
  5
43
102
{ACAD_REACTORS
330
C
102
}
330
C
100
AcDbDictionary
281
     1
  3
ByBlock
350
45
  3
ByLayer
350
44
  3
Global
350
46
  0
DICTIONARY
  5
5B
102
{ACAD_REACTORS
330
C
102
}
330
C
100
AcDbDictionary
281
     1
  3
Standard
350
5C
  0
DICTIONARY
  5
17
102
{ACAD_REACTORS
330
C
102
}
330
C
100
AcDbDictionary
281
     1
  3
Standard
350
18
  0
DICTIONARY
  5
19
102
{ACAD_REACTORS
330
C
102
}
330
C
100
AcDbDictionary
281
     1
  0
ACDBDICTIONARYWDFLT
  5
E
102
{ACAD_REACTORS
330
C
102
}
330
C
100
AcDbDictionary
281
     1
  3
Normal
350
F
100
AcDbDictionaryWithDefault
340
F
  0
DICTIONARY
  5
47
102
{ACAD_REACTORS
330
C
102
}
330
C
100
AcDbDictionary
281
     1
  3
A0
350
48
  3
A1
350
49
  3
A2
350
4A
  3
A3
350
4B
  3
A4
350
4C
  3
A5
350
4D
  3
A6
350
4E
  3
A7
350
4F
  3
A8
350
50
  3
A9
350
51
  3
B1
350
52
  3
B2
350
53
  3
B3
350
54
  3
B4
350
55
  3
B5
350
56
  3
B6
350
57
  3
B7
350
58
  0
DICTIONARY
  5
2CE
102
{ACAD_REACTORS
330
C
102
}
330
C
100
AcDbDictionary
281
     1
  0
DICTIONARY
  5
59
102
{ACAD_REACTORS
330
C
102
}
330
C
100
AcDbDictionary
281
     1
  3
Standard
350
5A
  0
DICTIONARY
  5
2A
102
{ACAD_REACTORS
330
C
102
}
330
C
100
AcDbDictionary
281
     1
  3
2dWireframe
350
2F
  3
Basic
350
32
  3
Brighten
350
36
  3
ColorChange
350
3A
  3
Conceptual
350
34
  3
Dim
350
35
  3
EdgeColorOff
350
3D
  3
Facepattern
350
39
  3
Flat
350
2B
  3
FlatWithEdges
350
2C
  3
Gouraud
350
2D
  3
GouraudWithEdges
350
2E
  3
Hidden
350
31
  3
JitterOff
350
3B
  3
Linepattern
350
38
  3
OverhangOff
350
3C
  3
Realistic
350
33
  3
Shaded
350
42
  3
Shaded with edges
350
41
  3
Shades of Gray
350
3E
  3
Sketchy
350
3F
  3
Thicken
350
37
  3
Wireframe
350
30
  3
X-Ray
350
40
  0
XRECORD
  5
2CA
102
{ACAD_REACTORS
330
C
102
}
330
C
100
AcDbXrecord
280
     1
 90
        1
330
5A
  0
DICTIONARY
  5
2C6
102
{ACAD_REACTORS
330
C
102
}
330
C
100
AcDbDictionary
281
     1
  3
CANNOSCALE
350
2C7
  3
CMLEADERSTYLE
350
2CC
  3
CTABLESTYLE
350
2CB
  0
GROUP
  5
2A1
102
{ACAD_REACTORS
330
D
102
}
330
D
100
AcDbGroup
300

 70
     0
 71
     1
340
7F
340
83
340
87
  0
GROUP
  5
2A2
102
{ACAD_REACTORS
330
D
102
}
330
D
100
AcDbGroup
300

 70
     0
 71
     1
340
99
340
AB
340
AF
  0
GROUP
  5
2A3
102
{ACAD_REACTORS
330
D
102
}
330
D
100
AcDbGroup
300

 70
     0
 71
     1
340
B6
340
BA
340
BE
  0
GROUP
  5
2A4
102
{ACAD_REACTORS
330
D
102
}
330
D
100
AcDbGroup
300

 70
     0
 71
     1
340
D0
340
D4
340
D8
  0
GROUP
  5
2A5
102
{ACAD_REACTORS
330
D
102
}
330
D
100
AcDbGroup
300

 70
     0
 71
     1
340
EA
340
EE
340
F2
  0
GROUP
  5
2A6
102
{ACAD_REACTORS
330
D
102
}
330
D
100
AcDbGroup
300

 70
     0
 71
     1
340
155
340
156
340
15A
340
15B
340
15C
340
15D
340
15E
340
15F
340
160
340
161
340
162
340
163
340
164
340
165
340
166
340
167
340
168
340
169
340
16A
340
16B
340
16C
340
16D
340
16E
340
16F
340
170
340
171
340
172
340
173
  0
GROUP
  5
2A7
102
{ACAD_REACTORS
330
D
102
}
330
D
100
AcDbGroup
300

 70
     0
 71
     1
340
157
340
174
340
175
340
176
340
177
340
178
340
179
340
17A
340
17B
340
17C
340
17D
340
17E
340
17F
340
180
340
181
340
182
340
183
340
184
340
185
340
186
340
187
340
188
340
189
340
18A
340
18B
340
18C
340
18D
340
18E
  0
GROUP
  5
2A8
102
{ACAD_REACTORS
330
D
102
}
330
D
100
AcDbGroup
300

 70
     0
 71
     1
340
158
340
18F
340
190
340
191
340
192
340
193
340
194
340
195
340
196
340
197
340
198
340
199
340
19A
340
19B
340
19C
340
19D
340
19E
340
19F
340
1A0
340
1A1
340
1A2
340
1A3
340
1A4
340
1A5
340
1A6
340
1A7
340
1A8
340
1A9
  0
GROUP
  5
2A9
102
{ACAD_REACTORS
330
D
102
}
330
D
100
AcDbGroup
300

 70
     0
 71
     1
340
159
340
1AA
340
1AB
340
1AC
340
1AD
340
1AE
340
1AF
340
1B0
340
1B1
340
1B2
340
1B3
340
1B4
340
1B5
340
1B6
340
1B7
340
1B8
340
1B9
340
1BA
340
1BB
340
1BC
340
1BD
340
1BE
340
1BF
340
1C0
340
1C1
340
1C2
340
1C3
340
1C4
  0
GROUP
  5
2AA
102
{ACAD_REACTORS
330
D
102
}
330
D
100
AcDbGroup
300

 70
     0
 71
     1
  0
GROUP
  5
2AB
102
{ACAD_REACTORS
330
D
102
}
330
D
100
AcDbGroup
300

 70
     0
 71
     1
  0
GROUP
  5
2AC
102
{ACAD_REACTORS
330
D
102
}
330
D
100
AcDbGroup
300

 70
     0
 71
     1
  0
GROUP
  5
2AD
102
{ACAD_REACTORS
330
D
102
}
330
D
100
AcDbGroup
300

 70
     0
 71
     1
  0
GROUP
  5
2AE
102
{ACAD_REACTORS
330
D
102
}
330
D
100
AcDbGroup
300

 70
     0
 71
     1
340
1C5
340
1C6
340
1C7
340
1C8
340
1C9
340
1CA
340
1CB
340
1CC
340
1CD
340
1CE
340
1CF
340
1D0
340
1D1
340
1D2
340
1D3
340
1D4
340
1D5
340
1D6
340
1D7
340
1D8
340
1D9
340
1DA
340
1DB
340
1DC
340
1DD
340
1DE
340
1DF
340
1E0
  0
GROUP
  5
2AF
102
{ACAD_REACTORS
330
D
102
}
330
D
100
AcDbGroup
300

 70
     0
 71
     1
  0
GROUP
  5
2B0
102
{ACAD_REACTORS
330
D
102
}
330
D
100
AcDbGroup
300

 70
     0
 71
     1
340
1E2
  0
GROUP
  5
2B1
102
{ACAD_REACTORS
330
D
102
}
330
D
100
AcDbGroup
300

 70
     0
 71
     1
340
1F0
340
1F1
340
1F2
340
1F3
  0
GROUP
  5
2B2
102
{ACAD_REACTORS
330
D
102
}
330
D
100
AcDbGroup
300

 70
     0
 71
     1
340
1F5
340
1F6
340
29F
340
2A0
  0
GROUP
  5
2B3
102
{ACAD_REACTORS
330
D
102
}
330
D
100
AcDbGroup
300

 70
     0
 71
     1
340
1F7
340
1F8
340
1F9
340
1FA
  0
GROUP
  5
2B4
102
{ACAD_REACTORS
330
D
102
}
330
D
100
AcDbGroup
300

 70
     0
 71
     1
340
201
340
202
340
295
340
296
  0
GROUP
  5
2B5
102
{ACAD_REACTORS
330
D
102
}
330
D
100
AcDbGroup
300

 70
     0
 71
     1
340
205
  0
GROUP
  5
2B6
102
{ACAD_REACTORS
330
D
102
}
330
D
100
AcDbGroup
300

 70
     0
 71
     1
340
213
340
214
340
215
340
216
  0
GROUP
  5
2B7
102
{ACAD_REACTORS
330
D
102
}
330
D
100
AcDbGroup
300

 70
     0
 71
     1
340
217
340
218
340
219
340
21A
340
21B
  0
GROUP
  5
2B8
102
{ACAD_REACTORS
330
D
102
}
330
D
100
AcDbGroup
300

 70
     0
 71
     1
  0
GROUP
  5
2B9
102
{ACAD_REACTORS
330
D
102
}
330
D
100
AcDbGroup
300

 70
     0
 71
     1
340
229
  0
GROUP
  5
2BA
102
{ACAD_REACTORS
330
D
102
}
330
D
100
AcDbGroup
300

 70
     0
 71
     1
340
237
340
238
340
239
340
23A
  0
GROUP
  5
2BB
102
{ACAD_REACTORS
330
D
102
}
330
D
100
AcDbGroup
300

 70
     0
 71
     1
340
23F
  0
GROUP
  5
2BC
102
{ACAD_REACTORS
330
D
102
}
330
D
100
AcDbGroup
300

 70
     0
 71
     1
340
24D
340
24E
340
24F
340
250
  0
GROUP
  5
2BD
102
{ACAD_REACTORS
330
D
102
}
330
D
100
AcDbGroup
300

 70
     0
 71
     1
340
25B
  0
GROUP
  5
2BE
102
{ACAD_REACTORS
330
D
102
}
330
D
100
AcDbGroup
300

 70
     0
 71
     1
340
269
340
26A
340
26B
340
26C
  0
GROUP
  5
2BF
102
{ACAD_REACTORS
330
D
102
}
330
D
100
AcDbGroup
300

 70
     0
 71
     1
340
26D
340
26E
340
26F
340
270
340
271
  0
GROUP
  5
2C0
102
{ACAD_REACTORS
330
D
102
}
330
D
100
AcDbGroup
300

 70
     0
 71
     1
  0
GROUP
  5
2C1
102
{ACAD_REACTORS
330
D
102
}
330
D
100
AcDbGroup
300

 70
     0
 71
     1
340
27F
  0
GROUP
  5
2C2
102
{ACAD_REACTORS
330
D
102
}
330
D
100
AcDbGroup
300

 70
     0
 71
     1
340
28D
340
28E
340
28F
340
290
  0
GROUP
  5
2C3
102
{ACAD_REACTORS
330
D
102
}
330
D
100
AcDbGroup
300

 70
     0
 71
     1
340
291
340
292
340
293
340
294
  0
GROUP
  5
2C4
102
{ACAD_REACTORS
330
D
102
}
330
D
100
AcDbGroup
300

 70
     0
 71
     1
340
297
340
298
340
299
340
29A
  0
GROUP
  5
2C5
102
{ACAD_REACTORS
330
D
102
}
330
D
100
AcDbGroup
300

 70
     0
 71
     1
340
29B
340
29C
340
29D
340
29E
  0
LAYOUT
  5
1E
102
{ACAD_REACTORS
330
1A
102
}
330
1A
100
AcDbPlotSettings
  1

  2
none_device
  4

  6

 40
0.0
 41
0.0
 42
0.0
 43
0.0
 44
0.0
 45
0.0
 46
0.0
 47
0.0
 48
0.0
 49
0.0
140
0.0
141
0.0
142
1.0
143
1.0
 70
   688
 72
     0
 73
     0
 74
     5
  7

 75
    16
 76
     0
 77
     2
 78
   300
147
1.0
148
0.0
149
0.0
100
AcDbLayout
  1
Layout1
 70
     1
 71
     1
 10
0.0
 20
0.0
 11
12.0
 21
9.0
 12
0.0
 22
0.0
 32
0.0
 14
1.000000000000000E+20
 24
1.000000000000000E+20
 34
1.000000000000000E+20
 15
-1.000000000000000E+20
 25
-1.000000000000000E+20
 35
-1.000000000000000E+20
146
0.0
 13
0.0
 23
0.0
 33
0.0
 16
1.0
 26
0.0
 36
0.0
 17
0.0
 27
1.0
 37
0.0
 76
     0
330
1B
  0
LAYOUT
  5
26
102
{ACAD_REACTORS
330
1A
102
}
330
1A
100
AcDbPlotSettings
  1

  2
none_device
  4

  6

 40
0.0
 41
0.0
 42
0.0
 43
0.0
 44
0.0
 45
0.0
 46
0.0
 47
0.0
 48
0.0
 49
0.0
140
0.0
141
0.0
142
1.0
143
1.0
 70
   688
 72
     0
 73
     0
 74
     5
  7

 75
    16
 76
     0
 77
     2
 78
   300
147
1.0
148
0.0
149
0.0
100
AcDbLayout
  1
Layout2
 70
     1
 71
     2
 10
0.0
 20
0.0
 11
0.0
 21
0.0
 12
0.0
 22
0.0
 32
0.0
 14
0.0
 24
0.0
 34
0.0
 15
0.0
 25
0.0
 35
0.0
146
0.0
 13
0.0
 23
0.0
 33
0.0
 16
1.0
 26
0.0
 36
0.0
 17
0.0
 27
1.0
 37
0.0
 76
     0
330
23
  0
LAYOUT
  5
22
102
{ACAD_REACTORS
330
1A
102
}
330
1A
100
AcDbPlotSettings
  1

  2
none_device
  4
Letter_(8.50_x_11.00_Inches)
  6

 40
6.35
 41
6.35
 42
6.35000508
 43
6.35000508
 44
215.9
 45
279.4
 46
0.0
 47
0.0
 48
0.0
 49
0.0
140
0.0
141
0.0
142
1.0
143
1.0
 70
  1712
 72
     0
 73
     0
 74
     0
  7

 75
     0
 76
     0
 77
     2
 78
   300
147
1.0
148
0.0
149
0.0
100
AcDbLayout
  1
Model
 70
     1
 71
     0
 10
0.0
 20
0.0
 11
12.0
 21
9.0
 12
0.0
 22
0.0
 32
0.0
 14
717.2948022877944
 24
92.18886928440406
 34
0.0
 15
763.6447007030131
 25
140.6452710119331
 35
0.0
146
0.0
 13
0.0
 23
0.0
 33
0.0
 16
1.0
 26
0.0
 36
0.0
 17
0.0
 27
1.0
 37
0.0
 76
     0
330
1F
331
29
  0
MATERIAL
  5
45
102
{ACAD_REACTORS
330
43
102
}
330
43
100
AcDbMaterial
  1
ByBlock
 72
     1
 94
      127
  0
MATERIAL
  5
44
102
{ACAD_REACTORS
330
43
102
}
330
43
100
AcDbMaterial
  1
ByLayer
 72
     1
 94
      127
  0
MATERIAL
  5
46
102
{ACAD_REACTORS
330
43
102
}
330
43
100
AcDbMaterial
  1
Global
 72
     1
 94
      127
  0
MLEADERSTYLE
  5
5C
102
{ACAD_REACTORS
330
5B
102
}
330
5B
100
AcDbMLeaderStyle
179
     2
170
     2
171
     1
172
     0
 90
        2
 40
0.0
 41
0.0
173
     1
 91
-1056964608
340
14
 92
       -2
290
     1
 42
0.09
291
     1
 43
0.36
  3
Standard
341
0
 44
0.18
300

342
11
174
     1
178
     6
175
     1
176
     0
 93
-1056964608
 45
0.18
292
     0
297
     0
 46
0.18
343
0
 94
-1056964608
 47
1.0
 49
1.0
140
1.0
293
     1
141
0.0
294
     1
177
     0
142
1.0
295
     0
296
     0
143
0.125
271
     0
272
     9
273
     9
298
     0
  0
MLINESTYLE
  5
18
102
{ACAD_REACTORS
330
17
102
}
330
17
100
AcDbMlineStyle
  2
Standard
 70
     0
  3

 62
   256
 51
90.0
 52
90.0
 71
     2
 49
0.5
 62
   256
  6
BYLAYER
 49
-0.5
 62
   256
  6
BYLAYER
  0
ACDBPLACEHOLDER
  5
F
102
{ACAD_REACTORS
330
E
102
}
330
E
  0
SCALE
  5
48
102
{ACAD_REACTORS
330
47
102
}
330
47
100
AcDbScale
 70
     0
300
1:1
140
1.0
141
1.0
290
     1
  0
SCALE
  5
49
102
{ACAD_REACTORS
330
47
102
}
330
47
100
AcDbScale
 70
     0
300
1/128" = 1'-0"
140
0.0078125
141
12.0
290
     0
  0
SCALE
  5
4A
102
{ACAD_REACTORS
330
47
102
}
330
47
100
AcDbScale
 70
     0
300
1/64" = 1'-0"
140
0.015625
141
12.0
290
     0
  0
SCALE
  5
4B
102
{ACAD_REACTORS
330
47
102
}
330
47
100
AcDbScale
 70
     0
300
1/32" = 1'-0"
140
0.03125
141
12.0
290
     0
  0
SCALE
  5
4C
102
{ACAD_REACTORS
330
47
102
}
330
47
100
AcDbScale
 70
     0
300
1/16" = 1'-0"
140
0.0625
141
12.0
290
     0
  0
SCALE
  5
4D
102
{ACAD_REACTORS
330
47
102
}
330
47
100
AcDbScale
 70
     0
300
3/32" = 1'-0"
140
0.09375
141
12.0
290
     0
  0
SCALE
  5
4E
102
{ACAD_REACTORS
330
47
102
}
330
47
100
AcDbScale
 70
     0
300
1/8" = 1'-0"
140
0.125
141
12.0
290
     0
  0
SCALE
  5
4F
102
{ACAD_REACTORS
330
47
102
}
330
47
100
AcDbScale
 70
     0
300
3/16" = 1'-0"
140
0.1875
141
12.0
290
     0
  0
SCALE
  5
50
102
{ACAD_REACTORS
330
47
102
}
330
47
100
AcDbScale
 70
     0
300
1/4" = 1'-0"
140
0.25
141
12.0
290
     0
  0
SCALE
  5
51
102
{ACAD_REACTORS
330
47
102
}
330
47
100
AcDbScale
 70
     0
300
3/8" = 1'-0"
140
0.375
141
12.0
290
     0
  0
SCALE
  5
52
102
{ACAD_REACTORS
330
47
102
}
330
47
100
AcDbScale
 70
     0
300
1/2" = 1'-0"
140
0.5
141
12.0
290
     0
  0
SCALE
  5
53
102
{ACAD_REACTORS
330
47
102
}
330
47
100
AcDbScale
 70
     0
300
3/4" = 1'-0"
140
0.75
141
12.0
290
     0
  0
SCALE
  5
54
102
{ACAD_REACTORS
330
47
102
}
330
47
100
AcDbScale
 70
     0
300
1" = 1'-0"
140
1.0
141
12.0
290
     0
  0
SCALE
  5
55
102
{ACAD_REACTORS
330
47
102
}
330
47
100
AcDbScale
 70
     0
300
1-1/2" = 1'-0"
140
1.5
141
12.0
290
     0
  0
SCALE
  5
56
102
{ACAD_REACTORS
330
47
102
}
330
47
100
AcDbScale
 70
     0
300
3" = 1'-0"
140
3.0
141
12.0
290
     0
  0
SCALE
  5
57
102
{ACAD_REACTORS
330
47
102
}
330
47
100
AcDbScale
 70
     0
300
6" = 1'-0"
140
6.0
141
12.0
290
     0
  0
SCALE
  5
58
102
{ACAD_REACTORS
330
47
102
}
330
47
100
AcDbScale
 70
     0
300
1'-0" = 1'-0"
140
12.0
141
12.0
290
     0
  0
TABLESTYLE
  5
5A
102
{ACAD_REACTORS
330
59
102
}
102
{ACAD_XDICTIONARY
360
2C8
102
}
330
59
100
AcDbTableStyle
  3
Standard
 70
     0
 71
     0
 40
0.06
 41
0.06
280
     0
281
     0
  7
Standard
140
0.18
170
     2
 62
     0
 63
   257
283
     0
 90
        4
 91
        0
  1

274
    -2
284
     1
 64
     0
275
    -2
285
     1
 65
     0
276
    -2
286
     1
 66
     0
277
    -2
287
     1
 67
     0
278
    -2
288
     1
 68
     0
279
    -2
289
     1
 69
     0
  7
Standard
140
0.25
170
     5
 62
     0
 63
   257
283
     0
 90
        4
 91
        0
  1

274
    -2
284
     1
 64
     0
275
    -2
285
     1
 65
     0
276
    -2
286
     1
 66
     0
277
    -2
287
     1
 67
     0
278
    -2
288
     1
 68
     0
279
    -2
289
     1
 69
     0
  7
Standard
140
0.18
170
     5
 62
     0
 63
   257
283
     0
 90
        4
 91
        0
  1

274
    -2
284
     1
 64
     0
275
    -2
285
     1
 65
     0
276
    -2
286
     1
 66
     0
277
    -2
287
     1
 67
     0
278
    -2
288
     1
 68
     0
279
    -2
289
     1
 69
     0
  0
VISUALSTYLE
  5
2F
102
{ACAD_REACTORS
330
2A
102
}
330
2A
100
AcDbVisualStyle
  2
2dWireframe
 70
     4
177
     3
291
     0
 70
    58
 90
        0
176
     1
 90
        2
176
     1
 90
        0
176
     1
 90
        0
176
     1
 40
0.6
176
     1
 40
30.0
176
     1
 62
     7
420
 16777215
176
     1
 90
        1
176
     1
 90
        4
176
     1
 62
     7
176
     1
 62
   257
176
     1
 90
        1
176
     1
 90
        1
176
     1
 40
1.0
176
     1
 90
        0
176
     1
 62
   257
176
     1
 40
1.0
176
     1
 90
        1
176
     1
 90
        6
176
     1
 90
        2
176
     1
 62
     7
176
     1
 90
        5
176
     1
 90
        0
176
     1
 90
        0
176
     1
290
     0
176
     1
 90
        1
176
     1
 40
0.0
176
     1
 90
        0
176
     1
290
     1
176
     1
290
     1
176
     1
290
     0
176
     1
290
     0
176
     1
290
     0
176
     1
290
     0
176
     1
290
     0
176
     1
290
     0
176
     1
290
     0
176
     1
 90
       50
176
     1
 40
0.0
176
     1
 40
1.0
176
     1
 90
        0
176
     1
 62
    18
420
        0
176
     1
 90
       50
176
     1
 90
        3
176
     1
 62
     5
420
      255
176
     1
290
     0
176
     1
 90
       50
176
     1
 90
       50
176
     1
 90
       50
176
     1
290
     0
176
     1
 90
       50
176
     1
 62
   256
176
     0
 40
1.0
176
     0
 90
        2
176
     1
  1
strokes_ogs.tif
176
     1
290
     0
176
     1
 40
1.0
176
     1
 40
1.0
176
     1
  0
VISUALSTYLE
  5
32
102
{ACAD_REACTORS
330
2A
102
}
330
2A
100
AcDbVisualStyle
  2
Basic
 70
     7
177
     3
291
     1
 70
    58
 90
        1
176
     1
 90
        0
176
     1
 90
        1
176
     1
 90
        0
176
     1
 40
0.6
176
     1
 40
30.0
176
     1
 62
     7
420
 16777215
176
     1
 90
        0
176
     1
 90
        4
176
     1
 62
     7
176
     1
 62
   257
176
     1
 90
        1
176
     1
 90
        1
176
     1
 40
1.0
176
     1
 90
        8
176
     1
 62
     7
176
     1
 40
1.0
176
     1
 90
        1
176
     1
 90
        6
176
     1
 90
        2
176
     1
 62
     7
176
     1
 90
        5
176
     1
 90
        0
176
     1
 90
        0
176
     1
290
     0
176
     1
 90
        1
176
     1
 40
0.0
176
     1
 90
        0
176
     1
290
     0
176
     1
290
     1
176
     1
290
     1
176
     1
290
     0
176
     1
290
     0
176
     1
290
     0
176
     1
290
     0
176
     1
290
     0
176
     1
290
     0
176
     1
 90
       50
176
     1
 40
0.0
176
     1
 40
1.0
176
     1
 90
        0
176
     1
 62
    18
420
        0
176
     1
 90
       50
176
     1
 90
        3
176
     1
 62
     5
420
      255
176
     1
290
     0
176
     1
 90
       50
176
     1
 90
       50
176
     1
 90
       50
176
     1
290
     0
176
     1
 90
       50
176
     1
 62
   256
176
     0
 40
1.0
176
     0
 90
        2
176
     1
  1
strokes_ogs.tif
176
     1
290
     0
176
     1
 40
1.0
176
     1
 40
1.0
176
     1
  0
VISUALSTYLE
  5
36
102
{ACAD_REACTORS
330
2A
102
}
330
2A
100
AcDbVisualStyle
  2
Brighten
 70
    12
177
     3
291
     1
 70
    58
 90
        2
176
     1
 90
        2
176
     1
 90
        0
176
     1
 90
        0
176
     1
 40
0.6
176
     1
 40
30.0
176
     1
 62
     7
420
 16777215
176
     1
 90
        1
176
     1
 90
        4
176
     1
 62
     7
176
     1
 62
   257
176
     1
 90
        1
176
     1
 90
        1
176
     1
 40
1.0
176
     1
 90
        8
176
     1
 62
     7
176
     1
 40
1.0
176
     1
 90
        1
176
     1
 90
        6
176
     1
 90
        2
176
     1
 62
     7
176
     1
 90
        5
176
     1
 90
        0
176
     1
 90
        0
176
     1
290
     0
176
     1
 90
        1
176
     1
 40
50.0
176
     1
 90
        0
176
     1
290
     0
176
     1
290
     1
176
     1
290
     1
176
     1
290
     0
176
     1
290
     0
176
     1
290
     0
176
     1
290
     0
176
     1
290
     0
176
     1
290
     0
176
     1
 90
       50
176
     1
 40
0.0
176
     1
 40
1.0
176
     1
 90
        0
176
     1
 62
    18
420
        0
176
     1
 90
       50
176
     1
 90
        3
176
     1
 62
     5
420
      255
176
     1
290
     0
176
     1
 90
       50
176
     1
 90
       50
176
     1
 90
       50
176
     1
290
     0
176
     1
 90
       50
176
     1
 62
   256
176
     0
 40
1.0
176
     0
 90
        2
176
     1
  1
strokes_ogs.tif
176
     1
290
     0
176
     1
 40
1.0
176
     1
 40
1.0
176
     1
  0
VISUALSTYLE
  5
3A
102
{ACAD_REACTORS
330
2A
102
}
330
2A
100
AcDbVisualStyle
  2
ColorChange
 70
    16
177
     3
291
     1
 70
    58
 90
        2
176
     1
 90
        2
176
     1
 90
        3
176
     1
 90
        0
176
     1
 40
0.6
176
     1
 40
30.0
176
     1
 62
     8
420
  8421504
176
     1
 90
        1
176
     1
 90
        4
176
     1
 62
     7
176
     1
 62
   257
176
     1
 90
        1
176
     1
 90
        1
176
     1
 40
1.0
176
     1
 90
        8
176
     1
 62
     8
420
  8421504
176
     1
 40
1.0
176
     1
 90
        1
176
     1
 90
        6
176
     1
 90
        2
176
     1
 62
     7
176
     1
 90
        5
176
     1
 90
        0
176
     1
 90
        0
176
     1
290
     0
176
     1
 90
        1
176
     1
 40
0.0
176
     1
 90
        0
176
     1
290
     0
176
     1
290
     1
176
     1
290
     1
176
     1
290
     0
176
     1
290
     0
176
     1
290
     0
176
     1
290
     0
176
     1
290
     0
176
     1
290
     0
176
     1
 90
       50
176
     1
 40
0.0
176
     1
 40
1.0
176
     1
 90
        0
176
     1
 62
    18
420
        0
176
     1
 90
       50
176
     1
 90
        3
176
     1
 62
     5
420
      255
176
     1
290
     0
176
     1
 90
       50
176
     1
 90
       50
176
     1
 90
       50
176
     1
290
     0
176
     1
 90
       50
176
     1
 62
   256
176
     0
 40
1.0
176
     0
 90
        2
176
     1
  1
strokes_ogs.tif
176
     1
290
     0
176
     1
 40
1.0
176
     1
 40
1.0
176
     1
  0
VISUALSTYLE
  5
34
102
{ACAD_REACTORS
330
2A
102
}
330
2A
100
AcDbVisualStyle
  2
Conceptual
 70
     9
177
     3
291
     0
 70
    58
 90
        3
176
     1
 90
        2
176
     1
 90
        0
176
     1
 90
        0
176
     1
 40
0.6
176
     1
 40
30.0
176
     1
 62
     7
420
 16777215
176
     1
 90
        2
176
     1
 90
        2
176
     1
 62
     7
176
     1
 62
   257
176
     1
 90
        1
176
     1
 90
        1
176
     1
 40
179.0
176
     1
 90
        8
176
     1
 62
     7
176
     1
 40
1.0
176
     1
 90
        1
176
     1
 90
        6
176
     1
 90
        2
176
     1
 62
     7
176
     1
 90
        3
176
     1
 90
        0
176
     1
 90
        0
176
     1
290
     0
176
     1
 90
        1
176
     1
 40
0.0
176
     1
 90
        0
176
     1
290
     0
176
     1
290
     1
176
     1
290
     1
176
     1
290
     0
176
     1
290
     0
176
     1
290
     0
176
     1
290
     0
176
     1
290
     0
176
     1
290
     0
176
     1
 90
       50
176
     1
 40
0.0
176
     1
 40
1.0
176
     1
 90
        0
176
     1
 62
    18
420
        0
176
     1
 90
       50
176
     1
 90
        3
176
     1
 62
     5
420
      255
176
     1
290
     0
176
     1
 90
       50
176
     1
 90
       50
176
     1
 90
       50
176
     1
290
     0
176
     1
 90
       50
176
     1
 62
   256
176
     0
 40
1.0
176
     0
 90
        2
176
     1
  1
strokes_ogs.tif
176
     1
290
     0
176
     1
 40
1.0
176
     1
 40
1.0
176
     1
  0
VISUALSTYLE
  5
35
102
{ACAD_REACTORS
330
2A
102
}
330
2A
100
AcDbVisualStyle
  2
Dim
 70
    11
177
     3
291
     1
 70
    58
 90
        2
176
     1
 90
        2
176
     1
 90
        0
176
     1
 90
        0
176
     1
 40
0.6
176
     1
 40
30.0
176
     1
 62
     7
420
 16777215
176
     1
 90
        1
176
     1
 90
        4
176
     1
 62
     7
176
     1
 62
   257
176
     1
 90
        1
176
     1
 90
        1
176
     1
 40
1.0
176
     1
 90
        8
176
     1
 62
     7
176
     1
 40
1.0
176
     1
 90
        1
176
     1
 90
        6
176
     1
 90
        2
176
     1
 62
     7
176
     1
 90
        5
176
     1
 90
        0
176
     1
 90
        0
176
     1
290
     0
176
     1
 90
        1
176
     1
 40
-50.0
176
     1
 90
        0
176
     1
290
     0
176
     1
290
     1
176
     1
290
     1
176
     1
290
     0
176
     1
290
     0
176
     1
290
     0
176
     1
290
     0
176
     1
290
     0
176
     1
290
     0
176
     1
 90
       50
176
     1
 40
0.0
176
     1
 40
1.0
176
     1
 90
        0
176
     1
 62
    18
420
        0
176
     1
 90
       50
176
     1
 90
        3
176
     1
 62
     5
420
      255
176
     1
290
     0
176
     1
 90
       50
176
     1
 90
       50
176
     1
 90
       50
176
     1
290
     0
176
     1
 90
       50
176
     1
 62
   256
176
     0
 40
1.0
176
     0
 90
        2
176
     1
  1
strokes_ogs.tif
176
     1
290
     0
176
     1
 40
1.0
176
     1
 40
1.0
176
     1
  0
VISUALSTYLE
  5
3D
102
{ACAD_REACTORS
330
2A
102
}
330
2A
100
AcDbVisualStyle
  2
EdgeColorOff
 70
    22
177
     3
291
     1
 70
    58
 90
        2
176
     0
 90
        2
176
     0
 90
        0
176
     0
 90
        0
176
     0
 40
0.6
176
     0
 40
30.0
176
     0
 62
     7
420
 16777215
176
     0
 90
        1
176
     0
 90
        4
176
     0
 62
     7
176
     0
 62
   257
176
     0
 90
        1
176
     0
 90
        1
176
     0
 40
1.0
176
     0
 90
        8
176
     2
 62
     7
176
     0
 40
1.0
176
     0
 90
        1
176
     0
 90
        6
176
     0
 90
        2
176
     0
 62
     7
176
     0
 90
        5
176
     0
 90
        0
176
     0
 90
        0
176
     0
290
     0
176
     0
 90
        1
176
     0
 40
0.0
176
     0
 90
        0
176
     0
290
     0
176
     0
290
     1
176
     0
290
     1
176
     0
290
     0
176
     0
290
     0
176
     0
290
     0
176
     0
290
     0
176
     0
290
     0
176
     0
290
     0
176
     0
 90
       50
176
     0
 40
0.0
176
     0
 40
1.0
176
     0
 90
        0
176
     0
 62
    18
420
        0
176
     0
 90
       50
176
     0
 90
        3
176
     0
 62
     5
420
      255
176
     0
290
     0
176
     0
 90
       50
176
     0
 90
       50
176
     0
 90
       50
176
     0
290
     0
176
     0
 90
       50
176
     0
 62
   256
176
     0
 40
1.0
176
     0
 90
        2
176
     0
  1
strokes_ogs.tif
176
     0
290
     0
176
     0
 40
1.0
176
     0
 40
1.0
176
     0
  0
VISUALSTYLE
  5
39
102
{ACAD_REACTORS
330
2A
102
}
330
2A
100
AcDbVisualStyle
  2
Facepattern
 70
    15
177
     3
291
     1
 70
    58
 90
        2
176
     1
 90
        2
176
     1
 90
        0
176
     1
 90
        0
176
     1
 40
0.6
176
     1
 40
30.0
176
     1
 62
     7
420
 16777215
176
     1
 90
        1
176
     1
 90
        4
176
     1
 62
     7
176
     1
 62
   257
176
     1
 90
        1
176
     1
 90
        1
176
     1
 40
1.0
176
     1
 90
        8
176
     1
 62
     7
176
     1
 40
1.0
176
     1
 90
        1
176
     1
 90
        6
176
     1
 90
        2
176
     1
 62
     7
176
     1
 90
        5
176
     1
 90
        0
176
     1
 90
        0
176
     1
290
     0
176
     1
 90
        1
176
     1
 40
0.0
176
     1
 90
        0
176
     1
290
     0
176
     1
290
     1
176
     1
290
     1
176
     1
290
     0
176
     1
290
     0
176
     1
290
     0
176
     1
290
     0
176
     1
290
     0
176
     1
290
     0
176
     1
 90
       50
176
     1
 40
0.0
176
     1
 40
1.0
176
     1
 90
        0
176
     1
 62
    18
420
        0
176
     1
 90
       50
176
     1
 90
        3
176
     1
 62
     5
420
      255
176
     1
290
     0
176
     1
 90
       50
176
     1
 90
       50
176
     1
 90
       50
176
     1
290
     0
176
     1
 90
       50
176
     1
 62
   256
176
     0
 40
1.0
176
     0
 90
        2
176
     1
  1
strokes_ogs.tif
176
     1
290
     0
176
     1
 40
1.0
176
     1
 40
1.0
176
     1
  0
VISUALSTYLE
  5
2B
102
{ACAD_REACTORS
330
2A
102
}
330
2A
100
AcDbVisualStyle
  2
Flat
 70
     0
177
     3
291
     1
 70
    58
 90
        2
176
     1
 90
        1
176
     1
 90
        1
176
     1
 90
        2
176
     1
 40
0.6
176
     1
 40
30.0
176
     1
 62
     7
420
 16777215
176
     1
 90
        0
176
     1
 90
        0
176
     1
 62
     7
176
     1
 62
   257
176
     1
 90
        1
176
     1
 90
        1
176
     1
 40
1.0
176
     1
 90
        8
176
     1
 62
     7
176
     1
 40
1.0
176
     1
 90
        1
176
     1
 90
        6
176
     1
 90
        2
176
     1
 62
     7
176
     1
 90
        5
176
     1
 90
        0
176
     1
 90
        0
176
     1
290
     0
176
     1
 90
       13
176
     1
 40
0.0
176
     1
 90
        0
176
     1
290
     0
176
     1
290
     1
176
     1
290
     1
176
     1
290
     0
176
     1
290
     0
176
     1
290
     0
176
     1
290
     0
176
     1
290
     0
176
     1
290
     0
176
     1
 90
       50
176
     1
 40
0.0
176
     1
 40
1.0
176
     1
 90
        0
176
     1
 62
    18
420
        0
176
     1
 90
       50
176
     1
 90
        3
176
     1
 62
     5
420
      255
176
     1
290
     0
176
     1
 90
       50
176
     1
 90
       50
176
     1
 90
       50
176
     1
290
     0
176
     1
 90
       50
176
     1
 62
   256
176
     0
 40
1.0
176
     0
 90
        2
176
     1
  1
strokes_ogs.tif
176
     1
290
     0
176
     1
 40
1.0
176
     1
 40
1.0
176
     1
  0
VISUALSTYLE
  5
2C
102
{ACAD_REACTORS
330
2A
102
}
330
2A
100
AcDbVisualStyle
  2
FlatWithEdges
 70
     1
177
     3
291
     1
 70
    58
 90
        2
176
     1
 90
        1
176
     1
 90
        1
176
     1
 90
        2
176
     1
 40
0.6
176
     1
 40
30.0
176
     1
 62
     7
420
 16777215
176
     1
 90
        1
176
     1
 90
        0
176
     1
 62
     7
176
     1
 62
   257
176
     1
 90
        1
176
     1
 90
        1
176
     1
 40
1.0
176
     1
 90
        0
176
     1
 62
   257
176
     1
 40
1.0
176
     1
 90
        1
176
     1
 90
        6
176
     1
 90
        2
176
     1
 62
     7
176
     1
 90
        5
176
     1
 90
        0
176
     1
 90
        0
176
     1
290
     0
176
     1
 90
       13
176
     1
 40
0.0
176
     1
 90
        0
176
     1
290
     0
176
     1
290
     1
176
     1
290
     1
176
     1
290
     0
176
     1
290
     0
176
     1
290
     0
176
     1
290
     0
176
     1
290
     0
176
     1
290
     0
176
     1
 90
       50
176
     1
 40
0.0
176
     1
 40
1.0
176
     1
 90
        0
176
     1
 62
    18
420
        0
176
     1
 90
       50
176
     1
 90
        3
176
     1
 62
     5
420
      255
176
     1
290
     0
176
     1
 90
       50
176
     1
 90
       50
176
     1
 90
       50
176
     1
290
     0
176
     1
 90
       50
176
     1
 62
   256
176
     0
 40
1.0
176
     0
 90
        2
176
     1
  1
strokes_ogs.tif
176
     1
290
     0
176
     1
 40
1.0
176
     1
 40
1.0
176
     1
  0
VISUALSTYLE
  5
2D
102
{ACAD_REACTORS
330
2A
102
}
330
2A
100
AcDbVisualStyle
  2
Gouraud
 70
     2
177
     3
291
     1
 70
    58
 90
        2
176
     1
 90
        2
176
     1
 90
        1
176
     1
 90
        2
176
     1
 40
0.6
176
     1
 40
30.0
176
     1
 62
     7
420
 16777215
176
     1
 90
        0
176
     1
 90
        0
176
     1
 62
     7
176
     1
 62
   257
176
     1
 90
        1
176
     1
 90
        1
176
     1
 40
1.0
176
     1
 90
        0
176
     1
 62
     7
176
     1
 40
1.0
176
     1
 90
        1
176
     1
 90
        6
176
     1
 90
        2
176
     1
 62
     7
176
     1
 90
        5
176
     1
 90
        0
176
     1
 90
        0
176
     1
290
     0
176
     1
 90
       13
176
     1
 40
0.0
176
     1
 90
        0
176
     1
290
     0
176
     1
290
     1
176
     1
290
     1
176
     1
290
     0
176
     1
290
     0
176
     1
290
     0
176
     1
290
     0
176
     1
290
     0
176
     1
290
     0
176
     1
 90
       50
176
     1
 40
0.0
176
     1
 40
1.0
176
     1
 90
        0
176
     1
 62
    18
420
        0
176
     1
 90
       50
176
     1
 90
        3
176
     1
 62
     5
420
      255
176
     1
290
     0
176
     1
 90
       50
176
     1
 90
       50
176
     1
 90
       50
176
     1
290
     0
176
     1
 90
       50
176
     1
 62
   256
176
     0
 40
1.0
176
     0
 90
        2
176
     1
  1
strokes_ogs.tif
176
     1
290
     0
176
     1
 40
1.0
176
     1
 40
1.0
176
     1
  0
VISUALSTYLE
  5
2E
102
{ACAD_REACTORS
330
2A
102
}
330
2A
100
AcDbVisualStyle
  2
GouraudWithEdges
 70
     3
177
     3
291
     1
 70
    58
 90
        2
176
     1
 90
        2
176
     1
 90
        1
176
     1
 90
        2
176
     1
 40
0.6
176
     1
 40
30.0
176
     1
 62
     7
420
 16777215
176
     1
 90
        1
176
     1
 90
        0
176
     1
 62
     7
176
     1
 62
   257
176
     1
 90
        1
176
     1
 90
        1
176
     1
 40
1.0
176
     1
 90
        0
176
     1
 62
   257
176
     1
 40
1.0
176
     1
 90
        1
176
     1
 90
        6
176
     1
 90
        2
176
     1
 62
     7
176
     1
 90
        5
176
     1
 90
        0
176
     1
 90
        0
176
     1
290
     0
176
     1
 90
       13
176
     1
 40
0.0
176
     1
 90
        0
176
     1
290
     0
176
     1
290
     1
176
     1
290
     1
176
     1
290
     0
176
     1
290
     0
176
     1
290
     0
176
     1
290
     0
176
     1
290
     0
176
     1
290
     0
176
     1
 90
       50
176
     1
 40
0.0
176
     1
 40
1.0
176
     1
 90
        0
176
     1
 62
    18
420
        0
176
     1
 90
       50
176
     1
 90
        3
176
     1
 62
     5
420
      255
176
     1
290
     0
176
     1
 90
       50
176
     1
 90
       50
176
     1
 90
       50
176
     1
290
     0
176
     1
 90
       50
176
     1
 62
   256
176
     0
 40
1.0
176
     0
 90
        2
176
     1
  1
strokes_ogs.tif
176
     1
290
     0
176
     1
 40
1.0
176
     1
 40
1.0
176
     1
  0
VISUALSTYLE
  5
31
102
{ACAD_REACTORS
330
2A
102
}
330
2A
100
AcDbVisualStyle
  2
Hidden
 70
     6
177
     3
291
     0
 70
    58
 90
        1
176
     1
 90
        2
176
     1
 90
        2
176
     1
 90
        0
176
     1
 40
0.6
176
     1
 40
30.0
176
     1
 62
     7
420
 16777215
176
     1
 90
        2
176
     1
 90
        2
176
     1
 62
     7
176
     1
 62
   257
176
     1
 90
        2
176
     1
 90
        1
176
     1
 40
40.0
176
     1
 90
        0
176
     1
 62
   257
176
     1
 40
1.0
176
     1
 90
        1
176
     1
 90
        6
176
     1
 90
        2
176
     1
 62
     7
176
     1
 90
        3
176
     1
 90
        0
176
     1
 90
        0
176
     1
290
     0
176
     1
 90
        1
176
     1
 40
0.0
176
     1
 90
        0
176
     1
290
     0
176
     1
290
     1
176
     1
290
     1
176
     1
290
     0
176
     1
290
     0
176
     1
290
     0
176
     1
290
     0
176
     1
290
     0
176
     1
290
     0
176
     1
 90
       50
176
     1
 40
0.0
176
     1
 40
1.0
176
     1
 90
        0
176
     1
 62
    18
420
        0
176
     1
 90
       50
176
     1
 90
        3
176
     1
 62
     5
420
      255
176
     1
290
     0
176
     1
 90
       50
176
     1
 90
       50
176
     1
 90
       50
176
     1
290
     0
176
     1
 90
       50
176
     1
 62
   256
176
     0
 40
1.0
176
     0
 90
        2
176
     1
  1
strokes_ogs.tif
176
     1
290
     0
176
     1
 40
1.0
176
     1
 40
1.0
176
     1
  0
VISUALSTYLE
  5
3B
102
{ACAD_REACTORS
330
2A
102
}
330
2A
100
AcDbVisualStyle
  2
JitterOff
 70
    20
177
     3
291
     1
 70
    58
 90
        2
176
     0
 90
        2
176
     0
 90
        0
176
     0
 90
        0
176
     0
 40
0.6
176
     0
 40
30.0
176
     0
 62
     7
420
 16777215
176
     0
 90
        1
176
     0
 90
        4
176
     0
 62
     7
176
     0
 62
   257
176
     0
 90
        1
176
     0
 90
        1
176
     0
 40
1.0
176
     0
 90
       10
176
     2
 62
     7
176
     0
 40
1.0
176
     0
 90
        1
176
     0
 90
        6
176
     0
 90
        2
176
     0
 62
     7
176
     0
 90
        5
176
     0
 90
        0
176
     0
 90
        0
176
     0
290
     0
176
     0
 90
        1
176
     0
 40
0.0
176
     0
 90
        0
176
     0
290
     0
176
     0
290
     1
176
     0
290
     1
176
     0
290
     0
176
     0
290
     0
176
     0
290
     0
176
     0
290
     0
176
     0
290
     0
176
     0
290
     0
176
     0
 90
       50
176
     0
 40
0.0
176
     0
 40
1.0
176
     0
 90
        0
176
     0
 62
    18
420
        0
176
     0
 90
       50
176
     0
 90
        3
176
     0
 62
     5
420
      255
176
     0
290
     0
176
     0
 90
       50
176
     0
 90
       50
176
     0
 90
       50
176
     0
290
     0
176
     0
 90
       50
176
     0
 62
   256
176
     0
 40
1.0
176
     0
 90
        2
176
     0
  1
strokes_ogs.tif
176
     0
290
     0
176
     0
 40
1.0
176
     0
 40
1.0
176
     0
  0
VISUALSTYLE
  5
38
102
{ACAD_REACTORS
330
2A
102
}
330
2A
100
AcDbVisualStyle
  2
Linepattern
 70
    14
177
     3
291
     1
 70
    58
 90
        2
176
     1
 90
        2
176
     1
 90
        0
176
     1
 90
        0
176
     1
 40
0.6
176
     1
 40
30.0
176
     1
 62
     7
420
 16777215
176
     1
 90
        1
176
     1
 90
        4
176
     1
 62
     7
176
     1
 62
   257
176
     1
 90
        7
176
     1
 90
        7
176
     1
 40
1.0
176
     1
 90
        8
176
     1
 62
     7
176
     1
 40
1.0
176
     1
 90
        1
176
     1
 90
        6
176
     1
 90
        2
176
     1
 62
     7
176
     1
 90
        5
176
     1
 90
        0
176
     1
 90
        0
176
     1
290
     0
176
     1
 90
        1
176
     1
 40
0.0
176
     1
 90
        0
176
     1
290
     0
176
     1
290
     1
176
     1
290
     1
176
     1
290
     0
176
     1
290
     0
176
     1
290
     0
176
     1
290
     0
176
     1
290
     0
176
     1
290
     0
176
     1
 90
       50
176
     1
 40
0.0
176
     1
 40
1.0
176
     1
 90
        0
176
     1
 62
    18
420
        0
176
     1
 90
       50
176
     1
 90
        3
176
     1
 62
     5
420
      255
176
     1
290
     0
176
     1
 90
       50
176
     1
 90
       50
176
     1
 90
       50
176
     1
290
     0
176
     1
 90
       50
176
     1
 62
   256
176
     0
 40
1.0
176
     0
 90
        2
176
     1
  1
strokes_ogs.tif
176
     1
290
     0
176
     1
 40
1.0
176
     1
 40
1.0
176
     1
  0
VISUALSTYLE
  5
3C
102
{ACAD_REACTORS
330
2A
102
}
330
2A
100
AcDbVisualStyle
  2
OverhangOff
 70
    21
177
     3
291
     1
 70
    58
 90
        2
176
     0
 90
        2
176
     0
 90
        0
176
     0
 90
        0
176
     0
 40
0.6
176
     0
 40
30.0
176
     0
 62
     7
420
 16777215
176
     0
 90
        1
176
     0
 90
        4
176
     0
 62
     7
176
     0
 62
   257
176
     0
 90
        1
176
     0
 90
        1
176
     0
 40
1.0
176
     0
 90
        9
176
     2
 62
     7
176
     0
 40
1.0
176
     0
 90
        1
176
     0
 90
        6
176
     0
 90
        2
176
     0
 62
     7
176
     0
 90
        5
176
     0
 90
        0
176
     0
 90
        0
176
     0
290
     0
176
     0
 90
        1
176
     0
 40
0.0
176
     0
 90
        0
176
     0
290
     0
176
     0
290
     1
176
     0
290
     1
176
     0
290
     0
176
     0
290
     0
176
     0
290
     0
176
     0
290
     0
176
     0
290
     0
176
     0
290
     0
176
     0
 90
       50
176
     0
 40
0.0
176
     0
 40
1.0
176
     0
 90
        0
176
     0
 62
    18
420
        0
176
     0
 90
       50
176
     0
 90
        3
176
     0
 62
     5
420
      255
176
     0
290
     0
176
     0
 90
       50
176
     0
 90
       50
176
     0
 90
       50
176
     0
290
     0
176
     0
 90
       50
176
     0
 62
   256
176
     0
 40
1.0
176
     0
 90
        2
176
     0
  1
strokes_ogs.tif
176
     0
290
     0
176
     0
 40
1.0
176
     0
 40
1.0
176
     0
  0
VISUALSTYLE
  5
33
102
{ACAD_REACTORS
330
2A
102
}
330
2A
100
AcDbVisualStyle
  2
Realistic
 70
     8
177
     3
291
     0
 70
    58
 90
        2
176
     1
 90
        3
176
     1
 90
        0
176
     1
 90
        2
176
     1
 40
0.6
176
     1
 40
30.0
176
     1
 62
     7
420
 16777215
176
     1
 90
        0
176
     1
 90
        0
176
     1
 62
     7
176
     1
 62
   257
176
     1
 90
        1
176
     1
 90
        1
176
     1
 40
1.0
176
     1
 90
        8
176
     1
 62
   257
176
     1
 40
1.0
176
     1
 90
        1
176
     1
 90
        6
176
     1
 90
        2
176
     1
 62
     7
176
     1
 90
        3
176
     1
 90
        0
176
     1
 90
        0
176
     1
290
     0
176
     1
 90
       13
176
     1
 40
0.0
176
     1
 90
        0
176
     1
290
     0
176
     1
290
     1
176
     1
290
     1
176
     1
290
     0
176
     1
290
     0
176
     1
290
     0
176
     1
290
     0
176
     1
290
     0
176
     1
290
     0
176
     1
 90
       50
176
     1
 40
0.0
176
     1
 40
1.0
176
     1
 90
        0
176
     1
 62
    18
420
        0
176
     1
 90
       50
176
     1
 90
        3
176
     1
 62
     5
420
      255
176
     1
290
     0
176
     1
 90
       50
176
     1
 90
       50
176
     1
 90
       50
176
     1
290
     0
176
     1
 90
       50
176
     1
 62
   256
176
     0
 40
1.0
176
     0
 90
        2
176
     1
  1
strokes_ogs.tif
176
     1
290
     0
176
     1
 40
1.0
176
     1
 40
1.0
176
     1
  0
VISUALSTYLE
  5
42
102
{ACAD_REACTORS
330
2A
102
}
330
2A
100
AcDbVisualStyle
  2
Shaded
 70
    27
177
     3
291
     0
 70
    58
 90
        2
176
     1
 90
        2
176
     1
 90
        1
176
     1
 90
        2
176
     1
 40
0.6
176
     1
 40
30.0
176
     1
 62
     7
420
 16777215
176
     1
 90
        0
176
     1
 90
        4
176
     1
 62
     7
176
     1
 62
   257
176
     1
 90
        1
176
     1
 90
        1
176
     1
 40
1.0
176
     1
 90
        8
176
     1
 62
   257
176
     1
 40
1.0
176
     1
 90
        1
176
     1
 90
        6
176
     1
 90
        2
176
     1
 62
     8
420
  7895160
176
     1
 90
        3
176
     1
 90
        0
176
     1
 90
        0
176
     1
290
     0
176
     1
 90
        5
176
     1
 40
0.0
176
     1
 90
        0
176
     1
290
     0
176
     1
290
     1
176
     1
290
     1
176
     1
290
     0
176
     1
290
     0
176
     1
290
     0
176
     1
290
     0
176
     1
290
     0
176
     1
290
     0
176
     1
 90
       50
176
     1
 40
0.0
176
     1
 40
1.0
176
     1
 90
        0
176
     1
 62
    18
420
        0
176
     1
 90
       50
176
     1
 90
        3
176
     1
 62
     5
420
      255
176
     1
290
     0
176
     1
 90
       50
176
     1
 90
       50
176
     1
 90
       50
176
     1
290
     0
176
     1
 90
       50
176
     1
 62
   256
176
     0
 40
1.0
176
     0
 90
        2
176
     1
  1
strokes_ogs.tif
176
     1
290
     0
176
     1
 40
1.0
176
     1
 40
1.0
176
     1
  0
VISUALSTYLE
  5
41
102
{ACAD_REACTORS
330
2A
102
}
330
2A
100
AcDbVisualStyle
  2
Shaded with edges
 70
    26
177
     3
291
     0
 70
    58
 90
        2
176
     1
 90
        2
176
     1
 90
        1
176
     1
 90
        2
176
     1
 40
0.6
176
     1
 40
30.0
176
     1
 62
     7
420
 16777215
176
     1
 90
        1
176
     1
 90
       10
176
     1
 62
     7
176
     1
 62
   257
176
     1
 90
        2
176
     1
 90
        1
176
     1
 40
1.0
176
     1
 90
        8
176
     1
 62
   257
176
     1
 40
1.0
176
     1
 90
        1
176
     1
 90
        6
176
     1
 90
        2
176
     1
 62
     7
176
     1
 90
        3
176
     1
 90
        0
176
     1
 90
        0
176
     1
290
     0
176
     1
 90
        5
176
     1
 40
0.0
176
     1
 90
        0
176
     1
290
     0
176
     1
290
     1
176
     1
290
     1
176
     1
290
     0
176
     1
290
     0
176
     1
290
     0
176
     1
290
     0
176
     1
290
     0
176
     1
290
     0
176
     1
 90
       50
176
     1
 40
0.0
176
     1
 40
1.0
176
     1
 90
        0
176
     1
 62
    18
420
        0
176
     1
 90
       50
176
     1
 90
        3
176
     1
 62
     5
420
      255
176
     1
290
     0
176
     1
 90
       50
176
     1
 90
       50
176
     1
 90
       50
176
     1
290
     0
176
     1
 90
       50
176
     1
 62
   256
176
     0
 40
1.0
176
     0
 90
        2
176
     1
  1
strokes_ogs.tif
176
     1
290
     0
176
     1
 40
1.0
176
     1
 40
1.0
176
     1
  0
VISUALSTYLE
  5
3E
102
{ACAD_REACTORS
330
2A
102
}
330
2A
100
AcDbVisualStyle
  2
Shades of Gray
 70
    23
177
     3
291
     0
 70
    58
 90
        2
176
     1
 90
        2
176
     1
 90
        3
176
     1
 90
        0
176
     1
 40
0.6
176
     1
 40
30.0
176
     1
 62
     7
420
 16777215
176
     1
 90
        2
176
     1
 90
        2
176
     1
 62
     7
176
     1
 62
     7
176
     1
 90
        1
176
     1
 90
        1
176
     1
 40
40.0
176
     1
 90
        8
176
     1
 62
     7
176
     1
 40
1.0
176
     1
 90
        1
176
     1
 90
        6
176
     1
 90
        2
176
     1
 62
     7
176
     1
 90
        3
176
     1
 90
        0
176
     1
 90
        0
176
     1
290
     0
176
     1
 90
        1
176
     1
 40
0.0
176
     1
 90
        0
176
     1
290
     0
176
     1
290
     1
176
     1
290
     1
176
     1
290
     0
176
     1
290
     0
176
     1
290
     0
176
     1
290
     0
176
     1
290
     0
176
     1
290
     0
176
     1
 90
       50
176
     1
 40
0.0
176
     1
 40
1.0
176
     1
 90
        0
176
     1
 62
    18
420
        0
176
     1
 90
       50
176
     1
 90
        3
176
     1
 62
     5
420
      255
176
     1
290
     0
176
     1
 90
       50
176
     1
 90
       50
176
     1
 90
       50
176
     1
290
     0
176
     1
 90
       50
176
     1
 62
   256
176
     0
 40
1.0
176
     0
 90
        2
176
     1
  1
strokes_ogs.tif
176
     1
290
     0
176
     1
 40
1.0
176
     1
 40
1.0
176
     1
  0
VISUALSTYLE
  5
3F
102
{ACAD_REACTORS
330
2A
102
}
330
2A
100
AcDbVisualStyle
  2
Sketchy
 70
    24
177
     3
291
     0
 70
    58
 90
        1
176
     1
 90
        2
176
     1
 90
        2
176
     1
 90
        0
176
     1
 40
0.6
176
     1
 40
30.0
176
     1
 62
     7
420
 16777215
176
     1
 90
        2
176
     1
 90
        2
176
     1
 62
     7
176
     1
 62
     7
176
     1
 90
        1
176
     1
 90
        1
176
     1
 40
40.0
176
     1
 90
       11
176
     1
 62
     7
176
     1
 40
1.0
176
     1
 90
        1
176
     1
 90
        6
176
     1
 90
        2
176
     1
 62
     7
176
     1
 90
        6
176
     1
 90
        0
176
     1
 90
        0
176
     1
290
     0
176
     1
 90
        1
176
     1
 40
0.0
176
     1
 90
        0
176
     1
290
     0
176
     1
290
     1
176
     1
290
     1
176
     1
290
     0
176
     1
290
     0
176
     1
290
     0
176
     1
290
     0
176
     1
290
     0
176
     1
290
     0
176
     1
 90
       50
176
     1
 40
0.0
176
     1
 40
1.0
176
     1
 90
        0
176
     1
 62
    18
420
        0
176
     1
 90
       50
176
     1
 90
        3
176
     1
 62
     5
420
      255
176
     1
290
     0
176
     1
 90
       50
176
     1
 90
       50
176
     1
 90
       50
176
     1
290
     0
176
     1
 90
       50
176
     1
 62
   256
176
     0
 40
1.0
176
     0
 90
        2
176
     1
  1
strokes_ogs.tif
176
     1
290
     0
176
     1
 40
1.0
176
     1
 40
1.0
176
     1
  0
VISUALSTYLE
  5
37
102
{ACAD_REACTORS
330
2A
102
}
330
2A
100
AcDbVisualStyle
  2
Thicken
 70
    13
177
     3
291
     1
 70
    58
 90
        2
176
     1
 90
        2
176
     1
 90
        0
176
     1
 90
        0
176
     1
 40
0.6
176
     1
 40
30.0
176
     1
 62
     7
420
 16777215
176
     1
 90
        1
176
     1
 90
        4
176
     1
 62
     7
176
     1
 62
   257
176
     1
 90
        1
176
     1
 90
        1
176
     1
 40
1.0
176
     1
 90
       12
176
     1
 62
     7
176
     1
 40
1.0
176
     1
 90
        1
176
     1
 90
        6
176
     1
 90
        2
176
     1
 62
     7
176
     1
 90
        5
176
     1
 90
        0
176
     1
 90
        0
176
     1
290
     0
176
     1
 90
        1
176
     1
 40
0.0
176
     1
 90
        0
176
     1
290
     0
176
     1
290
     1
176
     1
290
     1
176
     1
290
     0
176
     1
290
     0
176
     1
290
     0
176
     1
290
     0
176
     1
290
     0
176
     1
290
     0
176
     1
 90
       50
176
     1
 40
0.0
176
     1
 40
1.0
176
     1
 90
        0
176
     1
 62
    18
420
        0
176
     1
 90
       50
176
     1
 90
        3
176
     1
 62
     5
420
      255
176
     1
290
     0
176
     1
 90
       50
176
     1
 90
       50
176
     1
 90
       50
176
     1
290
     0
176
     1
 90
       50
176
     1
 62
   256
176
     0
 40
1.0
176
     0
 90
        2
176
     1
  1
strokes_ogs.tif
176
     1
290
     0
176
     1
 40
1.0
176
     1
 40
1.0
176
     1
  0
VISUALSTYLE
  5
30
102
{ACAD_REACTORS
330
2A
102
}
330
2A
100
AcDbVisualStyle
  2
Wireframe
 70
     5
177
     3
291
     0
 70
    58
 90
        0
176
     1
 90
        2
176
     1
 90
        0
176
     1
 90
        0
176
     1
 40
0.6
176
     1
 40
30.0
176
     1
 62
     7
420
 16777215
176
     1
 90
        1
176
     1
 90
        4
176
     1
 62
     7
176
     1
 62
   257
176
     1
 90
        1
176
     1
 90
        1
176
     1
 40
1.0
176
     1
 90
        0
176
     1
 62
   257
176
     1
 40
1.0
176
     1
 90
        1
176
     1
 90
        6
176
     1
 90
        2
176
     1
 62
     7
176
     1
 90
        3
176
     1
 90
        0
176
     1
 90
        0
176
     1
290
     0
176
     1
 90
        1
176
     1
 40
0.0
176
     1
 90
        0
176
     1
290
     0
176
     1
290
     1
176
     1
290
     1
176
     1
290
     0
176
     1
290
     0
176
     1
290
     0
176
     1
290
     0
176
     1
290
     0
176
     1
290
     0
176
     1
 90
       50
176
     1
 40
0.0
176
     1
 40
1.0
176
     1
 90
        0
176
     1
 62
    18
420
        0
176
     1
 90
       50
176
     1
 90
        3
176
     1
 62
     5
420
      255
176
     1
290
     0
176
     1
 90
       50
176
     1
 90
       50
176
     1
 90
       50
176
     1
290
     0
176
     1
 90
       50
176
     1
 62
   256
176
     0
 40
1.0
176
     0
 90
        2
176
     1
  1
strokes_ogs.tif
176
     1
290
     0
176
     1
 40
1.0
176
     1
 40
1.0
176
     1
  0
VISUALSTYLE
  5
40
102
{ACAD_REACTORS
330
2A
102
}
330
2A
100
AcDbVisualStyle
  2
X-Ray
 70
    25
177
     3
291
     0
 70
    58
 90
        2
176
     1
 90
        2
176
     1
 90
        1
176
     1
 90
        1
176
     1
 40
0.5
176
     1
 40
30.0
176
     1
 62
     7
420
 16777215
176
     1
 90
        1
176
     1
 90
        0
176
     1
 62
     7
176
     1
 62
   257
176
     1
 90
        1
176
     1
 90
        1
176
     1
 40
1.0
176
     1
 90
        8
176
     1
 62
     7
176
     1
 40
1.0
176
     1
 90
        1
176
     1
 90
        6
176
     1
 90
        2
176
     1
 62
     7
176
     1
 90
        3
176
     1
 90
        0
176
     1
 90
        0
176
     1
290
     0
176
     1
 90
       13
176
     1
 40
0.0
176
     1
 90
        0
176
     1
290
     0
176
     1
290
     1
176
     1
290
     1
176
     1
290
     0
176
     1
290
     0
176
     1
290
     0
176
     1
290
     0
176
     1
290
     0
176
     1
290
     0
176
     1
 90
       50
176
     1
 40
0.0
176
     1
 40
1.0
176
     1
 90
        0
176
     1
 62
    18
420
        0
176
     1
 90
       50
176
     1
 90
        3
176
     1
 62
     5
420
      255
176
     1
290
     0
176
     1
 90
       50
176
     1
 90
       50
176
     1
 90
       50
176
     1
290
     0
176
     1
 90
       50
176
     1
 62
   256
176
     0
 40
1.0
176
     0
 90
        2
176
     1
  1
strokes_ogs.tif
176
     1
290
     0
176
     1
 40
1.0
176
     1
 40
1.0
176
     1
  0
DICTIONARYVAR
  5
2C7
102
{ACAD_REACTORS
330
2C6
102
}
330
2C6
100
DictionaryVariables
280
     0
  1
1:1
  0
DICTIONARYVAR
  5
2CC
102
{ACAD_REACTORS
330
2C6
102
}
330
2C6
100
DictionaryVariables
280
     0
  1
Standard
  0
DICTIONARYVAR
  5
2CB
102
{ACAD_REACTORS
330
2C6
102
}
330
2C6
100
DictionaryVariables
280
     0
  1
Standard
  0
DICTIONARY
  5
2C8
330
5A
100
AcDbDictionary
280
     1
281
     1
  3
ACAD_ROUNDTRIP_2008_TABLESTYLE_CELLSTYLEMAP
360
2C9
  0
CELLSTYLEMAP
  5
2C9
102
{ACAD_REACTORS
330
2C8
102
}
330
2C8
100
AcDbCellStyleMap
 90
        3
300
CELLSTYLE
  1
TABLEFORMAT_BEGIN
 90
        5
170
     1
 91
        0
 92
    32768
 62
   257
 93
        1
300
CONTENTFORMAT
  1
CONTENTFORMAT_BEGIN
 90
        0
 91
        0
 92
        4
 93
        0
300

 40
0.0
140
1.0
 94
        5
 62
     0
340
11
144
0.25
309
CONTENTFORMAT_END
171
     1
301
MARGIN
  1
CELLMARGIN_BEGIN
 40
0.06
 40
0.06
 40
0.06
 40
0.06
 40
0.06
 40
0.06
309
CELLMARGIN_END
 94
        6
 95
        1
302
GRIDFORMAT
  1
GRIDFORMAT_BEGIN
 90
        0
 91
        1
 62
     0
 92
       -2
340
14
 93
        0
 40
0.045
309
GRIDFORMAT_END
 95
        2
302
GRIDFORMAT
  1
GRIDFORMAT_BEGIN
 90
        0
 91
        1
 62
     0
 92
       -2
340
14
 93
        0
 40
0.045
309
GRIDFORMAT_END
 95
        4
302
GRIDFORMAT
  1
GRIDFORMAT_BEGIN
 90
        0
 91
        1
 62
     0
 92
       -2
340
14
 93
        0
 40
0.045
309
GRIDFORMAT_END
 95
        8
302
GRIDFORMAT
  1
GRIDFORMAT_BEGIN
 90
        0
 91
        1
 62
     0
 92
       -2
340
14
 93
        0
 40
0.045
309
GRIDFORMAT_END
 95
       16
302
GRIDFORMAT
  1
GRIDFORMAT_BEGIN
 90
        0
 91
        1
 62
     0
 92
       -2
340
14
 93
        0
 40
0.045
309
GRIDFORMAT_END
 95
       32
302
GRIDFORMAT
  1
GRIDFORMAT_BEGIN
 90
        0
 91
        1
 62
     0
 92
       -2
340
14
 93
        0
 40
0.045
309
GRIDFORMAT_END
309
TABLEFORMAT_END
  1
CELLSTYLE_BEGIN
 90
        1
 91
        1
300
_TITLE
309
CELLSTYLE_END
300
CELLSTYLE
  1
TABLEFORMAT_BEGIN
 90
        5
170
     1
 91
        0
 92
        0
 62
   257
 93
        1
300
CONTENTFORMAT
  1
CONTENTFORMAT_BEGIN
 90
        0
 91
        0
 92
        4
 93
        0
300

 40
0.0
140
1.0
 94
        5
 62
     0
340
11
144
0.18
309
CONTENTFORMAT_END
171
     1
301
MARGIN
  1
CELLMARGIN_BEGIN
 40
0.06
 40
0.06
 40
0.06
 40
0.06
 40
0.06
 40
0.06
309
CELLMARGIN_END
 94
        6
 95
        1
302
GRIDFORMAT
  1
GRIDFORMAT_BEGIN
 90
        0
 91
        1
 62
     0
 92
       -2
340
14
 93
        0
 40
0.045
309
GRIDFORMAT_END
 95
        2
302
GRIDFORMAT
  1
GRIDFORMAT_BEGIN
 90
        0
 91
        1
 62
     0
 92
       -2
340
14
 93
        0
 40
0.045
309
GRIDFORMAT_END
 95
        4
302
GRIDFORMAT
  1
GRIDFORMAT_BEGIN
 90
        0
 91
        1
 62
     0
 92
       -2
340
14
 93
        0
 40
0.045
309
GRIDFORMAT_END
 95
        8
302
GRIDFORMAT
  1
GRIDFORMAT_BEGIN
 90
        0
 91
        1
 62
     0
 92
       -2
340
14
 93
        0
 40
0.045
309
GRIDFORMAT_END
 95
       16
302
GRIDFORMAT
  1
GRIDFORMAT_BEGIN
 90
        0
 91
        1
 62
     0
 92
       -2
340
14
 93
        0
 40
0.045
309
GRIDFORMAT_END
 95
       32
302
GRIDFORMAT
  1
GRIDFORMAT_BEGIN
 90
        0
 91
        1
 62
     0
 92
       -2
340
14
 93
        0
 40
0.045
309
GRIDFORMAT_END
309
TABLEFORMAT_END
  1
CELLSTYLE_BEGIN
 90
        2
 91
        1
300
_HEADER
309
CELLSTYLE_END
300
CELLSTYLE
  1
TABLEFORMAT_BEGIN
 90
        5
170
     1
 91
        0
 92
        0
 62
   257
 93
        1
300
CONTENTFORMAT
  1
CONTENTFORMAT_BEGIN
 90
        0
 91
        0
 92
        4
 93
        0
300

 40
0.0
140
1.0
 94
        2
 62
     0
340
11
144
0.18
309
CONTENTFORMAT_END
171
     1
301
MARGIN
  1
CELLMARGIN_BEGIN
 40
0.06
 40
0.06
 40
0.06
 40
0.06
 40
0.06
 40
0.06
309
CELLMARGIN_END
 94
        6
 95
        1
302
GRIDFORMAT
  1
GRIDFORMAT_BEGIN
 90
        0
 91
        1
 62
     0
 92
       -2
340
14
 93
        0
 40
0.045
309
GRIDFORMAT_END
 95
        2
302
GRIDFORMAT
  1
GRIDFORMAT_BEGIN
 90
        0
 91
        1
 62
     0
 92
       -2
340
14
 93
        0
 40
0.045
309
GRIDFORMAT_END
 95
        4
302
GRIDFORMAT
  1
GRIDFORMAT_BEGIN
 90
        0
 91
        1
 62
     0
 92
       -2
340
14
 93
        0
 40
0.045
309
GRIDFORMAT_END
 95
        8
302
GRIDFORMAT
  1
GRIDFORMAT_BEGIN
 90
        0
 91
        1
 62
     0
 92
       -2
340
14
 93
        0
 40
0.045
309
GRIDFORMAT_END
 95
       16
302
GRIDFORMAT
  1
GRIDFORMAT_BEGIN
 90
        0
 91
        1
 62
     0
 92
       -2
340
14
 93
        0
 40
0.045
309
GRIDFORMAT_END
 95
       32
302
GRIDFORMAT
  1
GRIDFORMAT_BEGIN
 90
        0
 91
        1
 62
     0
 92
       -2
340
14
 93
        0
 40
0.045
309
GRIDFORMAT_END
309
TABLEFORMAT_END
  1
CELLSTYLE_BEGIN
 90
        3
 91
        2
300
_DATA
309
CELLSTYLE_END
  0
ENDSEC
  0
EOF
